<svg width="281" height="127" viewBox="0 0 281 127" fill="none" xmlns="http://www.w3.org/2000/svg">
<g clip-path="url(#clip0_605_3354)">
<path d="M56.6217 13.013C53.1881 10.9972 49.1865 9.97656 44.617 9.97656C40.3314 9.97656 36.6396 10.9207 33.5416 12.8343C31.2181 14.2632 29.3077 16.1769 27.8103 18.5499V10.3338H18V67.9998H27.7845V49.5263C29.2819 51.8993 31.1923 53.813 33.5158 55.2419C36.6138 57.1555 40.3572 58.0996 44.7719 58.0996C49.1865 58.0996 53.343 57.079 56.7508 55.0632C60.1586 53.0475 62.7919 50.2152 64.7023 46.6175C66.5869 43.0197 67.5422 38.8606 67.5422 34.1657C67.5422 29.4707 66.5869 25.1075 64.6507 21.4843C62.7144 17.861 60.0553 15.0287 56.6217 13.013ZM56.6217 42.1267C55.5374 44.4996 53.9884 46.3878 52.0522 47.7402C50.0901 49.118 47.844 49.7814 45.2882 49.7814C42.7323 49.7814 40.5379 49.118 38.5501 47.7657C36.5622 46.4133 35.039 44.5507 33.9289 42.1522C32.8446 39.7537 32.2766 36.9979 32.2766 33.885C32.2766 30.7721 32.8188 28.0674 33.9289 25.7199C35.0132 23.3724 36.5622 21.5098 38.5501 20.1319C40.5379 18.754 42.784 18.0906 45.2882 18.0906C47.7924 18.0906 50.1159 18.7796 52.0522 20.1319C54.0142 21.5098 55.5374 23.3724 56.6217 25.7454C57.706 28.1184 58.274 30.8231 58.274 33.8595C58.274 36.8959 57.7318 39.7026 56.6217 42.0756V42.1267Z" fill="white"/>
<path d="M95.7339 10.1046C92.7392 10.4874 87.0337 11.8142 82.49 16.203L81.5864 17.0705V10.2577H72.2666V57.8195H81.5864V36.8709C81.5864 36.5647 81.5864 36.233 81.5606 35.8758V35.4165L81.5864 34.9572L81.638 34.5489C82.49 21.2296 98.1349 18.7035 98.1349 18.7035H98.1607H98.1865V9.875C97.7218 9.875 96.9731 9.92603 96.0437 10.0281L95.7081 10.0791L95.7339 10.1046Z" fill="white"/>
<path d="M252.105 13.7537C249.369 21.3064 246.529 29.1143 243.689 36.7691L243.457 37.4325L243.199 36.7691C240.901 30.7728 238.5 24.7 236.176 18.8314C235.092 16.1012 234.008 13.3454 232.949 10.6152H222.958C224.378 14.0089 225.772 17.428 227.192 20.8216C230.807 29.5481 234.524 38.5807 238.345 47.4092L238.397 47.5113L238.345 47.6134C238.216 48.0471 236.899 51.8745 233.75 53.4565C232.201 54.222 230.471 54.3241 228.612 53.7372H228.457C227.605 53.431 226.728 53.0738 225.695 52.6145C224.301 54.8344 222.933 57.1053 221.59 59.6059C223.139 60.4479 224.533 61.0858 225.695 61.5451C230.497 63.1781 239.352 64.556 244.696 55.3447C245.006 54.7068 245.316 54.0434 245.625 53.3289C245.832 52.8441 246.038 52.3338 246.245 51.849L246.426 51.3897C249.679 43.5308 253.112 35.085 256.417 26.9199C258.637 21.434 260.857 15.9736 263.026 10.6663H253.293L252.157 13.8302L252.105 13.7537Z" fill="white"/>
<path d="M218.44 48.0723V48.0212C216.84 46.822 215.317 45.4952 213.974 44.0152C217.15 38.5293 218.931 32.3034 219.189 26.9961C219.447 24.3424 220.377 10.7169 214.465 3.82761C212.58 1.60773 210.102 0.331928 207.339 0.000220515C206.41 -0.0763273 205.171 0.000220504 203.854 0.485023L203.544 0.612603C203.286 0.714667 203.002 0.842247 202.744 0.995342C201.117 1.8884 199.698 3.29178 198.484 5.20547L198.226 5.66476C192.546 17.8869 195.928 32.8392 203.544 44.0918C201.969 45.9034 200.214 47.3578 198.381 48.3274C194.663 50.2922 190.972 50.1391 186.996 47.7916C185.628 47.0261 184.259 45.9289 182.994 44.5511C186.247 39.1927 188.312 32.9158 188.596 26.9961C188.855 24.3424 189.784 10.7169 183.872 3.82761C181.987 1.63324 179.535 0.331928 176.798 0.0257365C175.946 -0.0252954 174.785 0.0257364 173.545 0.408476C171.325 1.17395 169.44 2.78146 167.917 5.23099L167.659 5.69028C161.747 18.4483 165.774 33.4771 172.952 44.1428L172.513 44.6276C171.506 45.4441 170.447 46.1841 169.337 46.771C161.592 50.777 150.517 51.0576 145.07 44.9338C149.691 40.5195 153.383 35.5695 155.293 31.1552C157.023 27.4043 159.604 20.3109 157.255 15.0291C156.455 13.243 155.19 11.8396 153.537 10.87C152.479 10.2831 150.336 9.51767 147.445 10.0535C143.107 11.0231 139.39 14.3657 136.834 19.6985C133.659 26.2816 132.471 35.8246 134.485 42.9436C130.225 46.1075 125.552 48.5571 121.215 49.3225C117.007 50.088 113.728 49.2205 111.146 46.6944C110.295 45.4696 109.597 44.0663 109.081 42.5608C111.585 41.6167 113.986 40.2644 116.155 38.3762C122.79 32.6096 127.153 22.6584 122.661 14.7995L122.454 14.4678C120.983 12.3755 118.788 11.0741 116.258 10.7935C113.134 10.4618 109.804 11.712 106.938 14.3402C101.594 19.5965 98.961 27.9657 99.3224 36.1053C96.5084 36.3094 93.617 36.1563 90.8546 35.9267L90.1059 44.2704C93.4104 44.5511 97.0506 44.7297 100.742 44.398C101.594 47.1027 102.834 49.6287 104.46 51.8486L104.847 52.3079C109.443 57.0284 115.639 58.84 122.738 57.5642C128.108 56.5946 133.607 53.8899 138.615 50.3177C143.262 55.676 150.259 58.0235 157.436 58.0235C162.935 58.0235 168.537 56.6456 173.313 54.1706C174.888 53.3541 176.359 52.3334 177.753 51.2107C179.38 52.7927 181.084 54.1195 182.788 55.0636C186.17 57.0794 189.732 58.0745 193.269 58.0745C196.367 58.0745 199.465 57.309 202.408 55.7526C204.835 54.4768 207.03 52.7417 208.966 50.7514C210.979 52.7927 213.122 54.6043 215.394 56.1098L215.626 56.2629C216.349 56.7477 217.098 57.207 217.847 57.6152L221.952 50.3177C219.835 49.0929 218.466 48.0723 218.466 48.0723H218.44ZM112.825 20.3619C113.315 19.9282 113.754 19.622 114.141 19.4434C114.632 19.2392 115.277 19.2137 115.664 19.8771C115.742 20.1068 115.845 20.3364 115.897 20.5916V20.7702C116.491 24.419 113.909 29.1649 110.579 32.0738C109.727 32.8137 108.797 33.4261 107.842 33.9364C107.997 28.6546 109.701 23.4494 112.85 20.3364L112.825 20.3619ZM141.817 34.906C141.558 29.3946 142.953 23.8576 145.973 20.413C146.438 19.9282 146.877 19.5965 147.29 19.3668C147.806 19.1372 148.452 19.0351 148.916 19.724C149.019 19.9537 149.123 20.1833 149.2 20.4385L149.252 20.6171C149.717 22.6584 149.252 25.0824 148.193 27.3788V27.5064C147.083 30.4407 141.997 35.9267 141.997 35.9267L141.817 34.906ZM180.18 26.4092C180.025 29.5732 179.225 32.9158 177.908 36.0543C173.106 27.2002 171.945 17.1725 175.172 9.67076L175.404 9.21148V9.16045C175.972 8.42048 176.488 8.49703 176.85 8.70116C177.031 8.82874 177.211 8.98183 177.418 9.23699C179.948 12.1968 180.722 20.2089 180.154 26.4092H180.18ZM210.773 26.4092C210.618 29.6753 209.766 33.0434 208.449 36.1818C203.725 27.2257 202.692 16.8152 205.764 9.64525C205.868 9.46664 205.945 9.26251 206.048 9.13493L206.1 9.0839C206.668 8.39497 207.262 8.62461 207.701 8.95632L208.011 9.23699C210.541 12.1968 211.315 20.2089 210.747 26.4092H210.773Z" fill="white"/>
</g>
<path d="M219.271 97.168V99.5448H216.894V97.168H219.271Z" fill="white"/>
<path d="M206.408 84.2988V90.059C207.222 88.8384 208.421 88.2174 210.027 88.2174C212.511 88.2174 213.753 89.4808 213.753 91.9862V99.5451H211.933V92.4144C211.933 91.5793 211.74 90.9369 211.398 90.4873C211.055 90.0376 210.413 89.802 209.513 89.802C208.4 89.802 207.586 90.1661 207.115 90.8727C206.644 91.6007 206.408 92.6072 206.408 93.9348V99.5451H204.588V84.2988H206.408Z" fill="white"/>
<path d="M202.595 95.5205C202.423 96.8481 201.931 97.9188 201.074 98.6897C200.218 99.482 199.126 99.8674 197.755 99.8674C196.085 99.8674 194.8 99.3535 193.879 98.3257C192.98 97.2978 192.509 95.906 192.509 94.1715C192.509 92.3299 193.001 90.8738 193.944 89.8032C194.907 88.7325 196.192 88.1758 197.819 88.1758C199.19 88.1758 200.261 88.5184 201.074 89.2036C201.888 89.8888 202.38 90.8524 202.509 92.1158H200.625C200.303 90.5098 199.383 89.7175 197.862 89.7175C196.792 89.7175 195.956 90.103 195.357 90.8738C194.736 91.6447 194.436 92.7154 194.436 94.043C194.436 95.3706 194.714 96.4413 195.314 97.2122C195.892 97.983 196.706 98.3685 197.734 98.3685C198.547 98.3685 199.233 98.1115 199.747 97.6404C200.261 97.1479 200.603 96.4413 200.753 95.5205H202.595Z" fill="white"/>
<path d="M191.065 88.4969V89.9959H188.859V96.4412C188.859 96.8053 188.859 97.0408 188.859 97.1479C188.859 97.2764 188.902 97.4262 188.988 97.619C189.052 97.8117 189.181 97.9402 189.352 97.983C189.523 98.0472 189.759 98.0686 190.08 98.0686C190.337 98.0686 190.68 98.0472 191.065 98.0044V99.5676C190.551 99.6318 190.08 99.6532 189.673 99.6532C189.159 99.6532 188.731 99.6104 188.388 99.4819C188.046 99.3749 187.767 99.2464 187.596 99.0965C187.425 98.968 187.296 98.711 187.211 98.347C187.125 97.983 187.061 97.6832 187.061 97.4262C187.039 97.1693 187.039 96.7624 187.039 96.1629V96.0772V95.9701V95.8631V89.9959H185.176V88.4969H187.039V85.2207H188.859V88.4969H191.065Z" fill="white"/>
<path d="M184.617 98.0903V99.5249C184.232 99.6534 183.825 99.7391 183.375 99.7391C182.326 99.7391 181.791 99.1823 181.769 98.1117C180.72 99.268 179.392 99.8676 177.765 99.8676C176.673 99.8676 175.816 99.5892 175.174 99.0324C174.532 98.4757 174.232 97.7048 174.232 96.7412C174.232 94.7712 175.538 93.6149 178.15 93.2937C178.322 93.2509 178.557 93.2294 178.9 93.208C180.142 93.0581 180.891 92.8868 181.191 92.7155C181.512 92.48 181.684 92.0945 181.684 91.5378C181.684 90.3172 180.849 89.7177 179.178 89.7177C178.322 89.7177 177.658 89.889 177.23 90.2316C176.78 90.5742 176.523 91.1524 176.437 91.9661H174.66C174.682 90.7669 175.11 89.8462 175.924 89.2038C176.737 88.5399 177.851 88.2188 179.285 88.2188C180.827 88.2188 181.983 88.5614 182.754 89.2894C182.99 89.5035 183.161 89.8033 183.29 90.1888C183.397 90.5528 183.461 90.8526 183.482 91.0881C183.482 91.3237 183.504 91.6877 183.504 92.1588C183.504 92.6941 183.482 93.5078 183.461 94.5999C183.418 95.7134 183.418 96.5271 183.418 97.0624C183.418 97.4693 183.461 97.7476 183.568 97.9189C183.675 98.0903 183.868 98.1545 184.168 98.1545C184.275 98.1545 184.425 98.1331 184.617 98.0903ZM181.684 93.829C181.555 93.9147 181.405 94.0003 181.277 94.086C181.127 94.1502 180.934 94.2145 180.72 94.2573C180.506 94.3001 180.356 94.3215 180.27 94.3429C180.185 94.3643 180.013 94.3858 179.714 94.4286C179.414 94.4714 179.243 94.4928 179.243 94.4928C178.793 94.5357 178.493 94.5785 178.365 94.5999C178.236 94.6213 177.979 94.6855 177.594 94.7926C177.208 94.8783 176.951 95.0067 176.801 95.1352C176.63 95.2637 176.48 95.435 176.33 95.692C176.18 95.9489 176.116 96.2487 176.116 96.5913C176.116 97.1481 176.309 97.5977 176.694 97.9404C177.08 98.2616 177.637 98.4329 178.322 98.4329C179.178 98.4329 179.971 98.1759 180.656 97.662C181.341 97.1481 181.684 96.5271 181.684 95.8419V93.829Z" fill="white"/>
<path d="M154.731 84.2988H156.809L159.828 97.0397L163.275 84.2988H165.481L168.886 97.0397L172.012 84.2988H174.025L169.956 99.5451H167.836L164.325 86.7828L160.77 99.5451H158.65L154.731 84.2988Z" fill="white"/>
<path d="M146.666 97.168V99.5448H144.289V97.168H146.666Z" fill="white"/>
<path d="M141.063 84.2988V99.5451H139.221V84.2988H141.063Z" fill="white"/>
<path d="M136.316 84.2988V99.5451H134.474V84.2988H136.316Z" fill="white"/>
<path d="M132.331 96.0559C131.774 98.6254 130.168 99.9102 127.513 99.9102C125.886 99.9102 124.601 99.4177 123.68 98.3899C122.759 97.3835 122.31 95.9702 122.31 94.1715C122.31 92.3942 122.781 90.9595 123.723 89.846C124.665 88.7325 125.907 88.1758 127.449 88.1758C129.14 88.1758 130.404 88.7539 131.217 89.9103C132.031 91.0666 132.459 92.5013 132.459 94.2571V94.5141H124.151L124.13 94.6426C124.13 95.8203 124.429 96.7411 125.05 97.4049C125.65 98.0901 126.507 98.4113 127.577 98.4113C128.369 98.4113 128.99 98.24 129.462 97.8546C129.933 97.4905 130.297 96.891 130.554 96.0559H132.331ZM130.575 93.0366C130.489 91.9873 130.168 91.1736 129.611 90.5741C129.055 89.9745 128.305 89.6747 127.406 89.6747C126.507 89.6747 125.778 89.9745 125.2 90.5741C124.601 91.1736 124.258 92.0088 124.151 93.0366H130.575Z" fill="white"/>
<path d="M120.116 88.7752L118.146 88.7966C117.932 86.7195 116.668 85.6916 114.356 85.6916C113.264 85.6916 112.407 85.9058 111.808 86.3555C111.208 86.7837 110.908 87.4047 110.908 88.2184C110.908 88.4968 110.951 88.7537 111.037 88.9679C111.122 89.182 111.272 89.3533 111.486 89.5246C111.7 89.6959 111.893 89.8244 112.065 89.9529C112.257 90.0599 112.557 90.167 112.942 90.2741C113.349 90.4026 113.671 90.4882 113.906 90.531C114.163 90.5739 114.527 90.6595 115.041 90.7666C115.683 90.8951 116.197 91.0235 116.604 91.1306C117.032 91.2377 117.525 91.409 118.082 91.6445C118.66 91.9015 119.109 92.1584 119.452 92.4582C119.795 92.758 120.073 93.1435 120.33 93.6145C120.587 94.107 120.694 94.6638 120.694 95.2634C120.694 96.334 120.394 97.2334 119.795 97.9614C119.195 98.6895 118.467 99.182 117.611 99.4604C116.754 99.7601 115.812 99.8886 114.763 99.8886C112.857 99.8886 111.336 99.4389 110.18 98.5396C109.024 97.6402 108.446 96.2912 108.446 94.5139H110.394C110.437 95.8201 110.887 96.7623 111.7 97.3619C112.536 97.9614 113.606 98.2612 114.934 98.2612C115.983 98.2612 116.882 98.0257 117.632 97.5974C118.36 97.1691 118.745 96.4625 118.745 95.4775C118.745 95.0064 118.638 94.621 118.446 94.2998C118.232 93.9786 117.932 93.7216 117.503 93.5075C117.075 93.2933 116.647 93.1435 116.219 93.015C115.79 92.8865 115.212 92.7366 114.527 92.5867C114.42 92.5653 114.356 92.5439 114.313 92.5225C112.728 92.1799 111.7 91.8801 111.229 91.6659C109.73 91.0235 109.002 89.9315 109.002 88.3469C109.002 86.8908 109.538 85.8201 110.608 85.0921C111.679 84.364 112.985 84 114.506 84C116.176 84 117.525 84.4069 118.51 85.1991C119.516 86.0128 120.052 87.1906 120.116 88.7752Z" fill="white"/>
<path d="M99.8666 97.168V99.5448H97.4897V97.168H99.8666Z" fill="white"/>
<path d="M97.1091 88.4961L92.3767 100.959C92.184 101.473 92.0127 101.858 91.8842 102.136C91.7558 102.415 91.563 102.714 91.3061 103.057C91.0491 103.4 90.7493 103.635 90.4067 103.785C90.0641 103.935 89.6573 103.999 89.1862 103.999C88.8221 103.999 88.3725 103.935 87.8371 103.807V102.179C88.3511 102.35 88.7579 102.415 89.0149 102.415C89.6144 102.415 90.0427 102.115 90.2997 101.494L91.1562 99.4811L86.7665 88.4961H88.8222L92.0984 97.2969L95.2033 88.4961H97.1091Z" fill="white"/>
<path d="M85.2319 88.4961L85.2105 99.5453H83.5189V97.8109C82.5767 99.1813 81.3133 99.8451 79.7073 99.8451C78.551 99.8451 77.6302 99.5239 76.9878 98.8815C76.3454 98.2391 76.0242 97.3183 76.0242 96.0978V88.4961H77.8444V95.6053C77.8444 96.4832 78.0157 97.147 78.3583 97.5967C78.7009 98.0464 79.3005 98.2605 80.1784 98.2605C82.3197 98.2605 83.4118 96.9329 83.4118 94.2777V88.4961H85.2319Z" fill="white"/>
<path d="M61.7294 84.2988L68.239 84.3202C69.6309 84.3202 70.7872 84.62 71.7079 85.241C72.6287 85.8406 73.0998 86.8042 73.0998 88.1318C73.0998 88.8813 72.8857 89.5451 72.4788 90.1446C72.072 90.7442 71.5366 91.1511 70.8514 91.408C71.7936 91.6222 72.5002 92.0504 73.0141 92.7356C73.5281 93.3995 73.785 94.2346 73.785 95.241C73.785 98.1104 71.8578 99.5451 68.0035 99.5451H61.7294V84.2988ZM63.6994 86.0333V90.8513H67.3182C67.7251 90.8513 68.0677 90.8299 68.3675 90.8085C68.6673 90.787 68.9885 90.7442 69.3739 90.6586C69.7379 90.5729 70.0377 90.4444 70.2518 90.2731C70.466 90.1018 70.6587 89.8663 70.83 89.5665C71.0013 89.2453 71.0655 88.8598 71.0655 88.4316C71.0655 87.9819 71.0013 87.5965 70.8514 87.2967C70.7229 86.9969 70.5516 86.7614 70.3375 86.59C70.1448 86.4187 69.8664 86.3117 69.5238 86.226C69.1812 86.1404 68.86 86.0761 68.5816 86.0547C68.3032 86.0333 67.9392 86.0333 67.5109 86.0333H63.6994ZM63.6994 92.4359L63.678 97.8748H67.7037C68.2176 97.8748 68.6244 97.8534 68.9242 97.832C69.2454 97.8106 69.6094 97.7463 69.9949 97.6607C70.3803 97.5536 70.7015 97.4037 70.9157 97.211C71.1512 97.0183 71.3439 96.7399 71.4938 96.3759C71.6651 96.0119 71.7294 95.5836 71.7294 95.0697C71.7294 94.6414 71.6865 94.256 71.5795 93.9562C71.4724 93.635 71.3011 93.378 71.0441 93.2067C70.7872 93.014 70.5516 92.8641 70.3375 92.7571C70.1234 92.6286 69.8022 92.5643 69.3953 92.5215C68.967 92.4787 68.6458 92.4359 68.4317 92.4359C68.1962 92.4359 67.8536 92.4359 67.3825 92.4359H63.6994Z" fill="white"/>
<defs>
<clipPath id="clip0_605_3354">
<rect width="245" height="68" fill="white" transform="translate(18)"/>
</clipPath>
</defs>
</svg>
