<svg width="48" height="43" viewBox="0 0 48 43" fill="none" xmlns="http://www.w3.org/2000/svg">
<path d="M24 33.734C26.7111 33.734 29 32.8229 30.8667 31.0007C32.7333 29.134 33.6667 26.8229 33.6667 24.0673C33.6667 21.3562 32.7333 19.0895 30.8667 17.2673C29 15.4006 26.7111 14.4673 24 14.4673C21.2889 14.4673 19 15.4006 17.1333 17.2673C15.2667 19.0895 14.3333 21.3562 14.3333 24.0673C14.3333 26.8229 15.2667 29.134 17.1333 31.0007C19 32.8229 21.2889 33.734 24 33.734ZM24 31.6673C21.8222 31.6673 20 30.9562 18.5333 29.534C17.1111 28.0673 16.4 26.2451 16.4 24.0673C16.4 21.934 17.1111 20.1562 18.5333 18.734C20 17.2673 21.8222 16.534 24 16.534C26.1778 16.534 27.9778 17.2673 29.4 18.734C30.8667 20.1562 31.6 21.934 31.6 24.0673C31.6 26.2451 30.8667 28.0673 29.4 29.534C27.9778 30.9562 26.1778 31.6673 24 31.6673ZM3.66667 42.6673C2.64445 42.6673 1.77778 42.3118 1.06667 41.6007C0.355556 40.8895 0 40.0229 0 39.0007V9.26731C0 8.24509 0.355556 7.37843 1.06667 6.66732C1.77778 5.91176 2.64445 5.53398 3.66667 5.53398H12.2L16 1.20065C16.3556 0.800648 16.7556 0.511758 17.2 0.333981C17.6889 0.111759 18.2222 0.000648499 18.8 0.000648499H29.2C29.7778 0.000648499 30.2889 0.111759 30.7333 0.333981C31.2222 0.511758 31.6444 0.800648 32 1.20065L35.8 5.53398H44.3333C45.3556 5.53398 46.2222 5.91176 46.9333 6.66732C47.6444 7.37843 48 8.24509 48 9.26731V39.0007C48 40.0229 47.6444 40.8895 46.9333 41.6007C46.2222 42.3118 45.3556 42.6673 44.3333 42.6673H3.66667ZM3.66667 40.6007H44.3333C44.7778 40.6007 45.1556 40.4451 45.4667 40.134C45.7778 39.8229 45.9333 39.4451 45.9333 39.0007V9.26731C45.9333 8.82287 45.7778 8.44509 45.4667 8.13398C45.1556 7.77843 44.7778 7.60065 44.3333 7.60065H34.8667L29.9333 2.06731H18.0667L13.1333 7.60065H3.66667C3.22222 7.60065 2.84445 7.77843 2.53333 8.13398C2.22222 8.44509 2.06667 8.82287 2.06667 9.26731V39.0007C2.06667 39.4451 2.22222 39.8229 2.53333 40.134C2.84445 40.4451 3.22222 40.6007 3.66667 40.6007Z" fill="#0000FF"/>
</svg>
