<svg width="136" height="18" viewBox="0 0 136 18" fill="none" xmlns="http://www.w3.org/2000/svg">
<path d="M135.9 11.6988V13.4988H134.1V11.6988H135.9Z" fill="white"/>
<path d="M124.909 0.900635V5.66103C125.628 4.65232 126.688 4.13912 128.107 4.13912C130.302 4.13912 131.4 5.18322 131.4 7.25372V13.5006H129.791V7.60766C129.791 6.91749 129.621 6.38659 129.318 6.01496C129.015 5.64333 128.448 5.44867 127.653 5.44867C126.669 5.44867 125.95 5.74951 125.533 6.3335C125.117 6.93518 124.909 7.76693 124.909 8.86412V13.5006H123.3V0.900635H124.909Z" fill="white"/>
<path d="M121.5 10.384C121.347 11.6104 120.908 12.5994 120.143 13.3115C119.379 14.0433 118.405 14.3994 117.182 14.3994C115.691 14.3994 114.545 13.9246 113.723 12.9752C112.92 12.0257 112.5 10.74 112.5 9.13783C112.5 7.43673 112.94 6.09167 113.78 5.10266C114.64 4.11365 115.787 3.59937 117.239 3.59937C118.462 3.59937 119.417 3.91585 120.143 4.54882C120.87 5.18178 121.309 6.07189 121.424 7.23893H119.742C119.456 5.75541 118.634 5.02354 117.277 5.02354C116.322 5.02354 115.577 5.37958 115.041 6.09167C114.487 6.80376 114.22 7.79277 114.22 9.01915C114.22 10.2455 114.468 11.2345 115.003 11.9466C115.519 12.6587 116.245 13.0147 117.163 13.0147C117.889 13.0147 118.5 12.7774 118.959 12.3422C119.417 11.8873 119.723 11.2345 119.857 10.384H121.5Z" fill="white"/>
<path d="M111.6 4.45717V5.67231H109.578V10.8974C109.578 11.1925 109.578 11.3834 109.578 11.4702C109.578 11.5744 109.617 11.6959 109.695 11.8521C109.754 12.0084 109.872 12.1125 110.029 12.1472C110.186 12.1993 110.402 12.2167 110.697 12.2167C110.933 12.2167 111.247 12.1993 111.6 12.1646V13.4318C111.129 13.4839 110.697 13.5012 110.324 13.5012C109.853 13.5012 109.46 13.4665 109.146 13.3624C108.831 13.2756 108.576 13.1714 108.419 13.0499C108.262 12.9457 108.144 12.7374 108.066 12.4423C107.987 12.1472 107.928 11.9042 107.928 11.6959C107.909 11.4876 107.909 11.1578 107.909 10.6717V10.6023V10.5155V10.4287V5.67231H106.2V4.45717H107.909V1.80124H109.578V4.45717H111.6Z" fill="white"/>
<path d="M106.2 12.7516V14.0817C105.866 14.2008 105.514 14.2802 105.124 14.2802C104.215 14.2802 103.751 13.7641 103.732 12.7714C102.823 13.8435 101.672 14.3994 100.262 14.3994C99.3156 14.3994 98.5734 14.1413 98.0167 13.6251C97.46 13.1089 97.2002 12.3942 97.2002 11.5008C97.2002 9.67437 98.3321 8.60231 100.596 8.30451C100.744 8.26481 100.949 8.24495 101.246 8.2251C102.322 8.08613 102.971 7.92731 103.231 7.76848C103.509 7.5501 103.658 7.19275 103.658 6.67657C103.658 5.54495 102.934 4.98907 101.487 4.98907C100.745 4.98907 100.169 5.14789 99.7981 5.46554C99.4084 5.78319 99.1857 6.31922 99.1115 7.07363H97.5713C97.5899 5.96186 97.961 5.10819 98.6661 4.5126C99.3713 3.89716 100.336 3.59937 101.58 3.59937C102.916 3.59937 103.918 3.91701 104.586 4.59201C104.79 4.79054 104.938 5.06848 105.05 5.42584C105.142 5.76334 105.198 6.04128 105.217 6.25966C105.217 6.47804 105.235 6.81554 105.235 7.25231C105.235 7.74863 105.217 8.50304 105.198 9.51554C105.161 10.5479 105.161 11.3023 105.161 11.7986C105.161 12.1758 105.198 12.4339 105.291 12.5927C105.384 12.7516 105.551 12.8111 105.81 12.8111C105.903 12.8111 106.033 12.7913 106.2 12.7516ZM103.658 8.80083C103.547 8.88025 103.417 8.95966 103.305 9.03907C103.175 9.09863 103.008 9.15819 102.823 9.19789C102.637 9.2376 102.507 9.25745 102.433 9.27731C102.359 9.29716 102.21 9.31701 101.951 9.35672C101.691 9.39642 101.542 9.41628 101.542 9.41628C101.153 9.45598 100.893 9.49569 100.782 9.51554C100.67 9.53539 100.448 9.59495 100.114 9.69422C99.7796 9.77363 99.5569 9.89275 99.427 10.0119C99.2785 10.131 99.1486 10.2898 99.0187 10.528C98.8888 10.7663 98.8332 11.0442 98.8332 11.3619C98.8332 11.878 99.0002 12.295 99.3342 12.6126C99.6682 12.9104 100.151 13.0692 100.744 13.0692C101.487 13.0692 102.173 12.831 102.767 12.3545C103.361 11.878 103.658 11.3023 103.658 10.667V8.80083Z" fill="white"/>
<path d="M80.1002 0.900635H81.9411L84.6172 11.4301L87.6728 0.900635H89.6276L92.6453 11.4301L95.4162 0.900635H97.2002L93.5942 13.5006H91.7153L88.6027 2.95344L85.4523 13.5006H83.5733L80.1002 0.900635Z" fill="white"/>
<path d="M72.9002 11.6988V13.4988H71.1002V11.6988H72.9002Z" fill="white"/>
<path d="M68.4002 0.900635V13.5006H66.6002V0.900635H68.4002Z" fill="white"/>
<path d="M64.8001 0.900635V13.5006H63.0001V0.900635H64.8001Z" fill="white"/>
<path d="M61.0864 10.8519C60.5928 13.2169 59.1687 14.3994 56.8143 14.3994C55.3712 14.3994 54.232 13.9461 53.4155 13.0001C52.5991 12.0738 52.2003 10.7731 52.2003 9.11761C52.2003 7.48185 52.6181 6.16141 53.4535 5.13659C54.289 4.11177 55.3902 3.59937 56.7573 3.59937C58.2573 3.59937 59.3776 4.13148 60.0991 5.19572C60.8206 6.25995 61.2004 7.58039 61.2004 9.19644V9.43294H53.8333L53.8143 9.55119C53.8143 10.6351 54.0801 11.4826 54.6307 12.0935C55.1624 12.7242 55.9219 13.0198 56.8712 13.0198C57.5738 13.0198 58.1244 12.8621 58.5421 12.5074C58.9598 12.1724 59.2826 11.6205 59.5105 10.8519H61.0864ZM59.5295 8.07309C59.4535 7.10739 59.1687 6.35849 58.675 5.80666C58.1814 5.25484 57.5168 4.97893 56.7193 4.97893C55.9219 4.97893 55.2763 5.25484 54.7636 5.80666C54.232 6.35849 53.9282 7.1271 53.8333 8.07309H59.5295Z" fill="white"/>
<path d="M49.9327 4.32776L48.3404 4.34717C48.1673 2.46469 47.1462 1.53315 45.277 1.53315C44.3943 1.53315 43.702 1.72722 43.2173 2.13477C42.7327 2.52291 42.4904 3.08571 42.4904 3.82318C42.4904 4.07547 42.525 4.30836 42.5943 4.50243C42.6635 4.6965 42.7846 4.85175 42.9577 5.00701C43.1308 5.16226 43.2866 5.27871 43.425 5.39515C43.5808 5.49218 43.8231 5.58922 44.1347 5.68625C44.4635 5.80269 44.7231 5.88032 44.9135 5.91914C45.1212 5.95795 45.4154 6.03558 45.8308 6.13261C46.35 6.24906 46.7654 6.3655 47.0943 6.46253C47.4404 6.55957 47.8385 6.71482 48.2885 6.9283C48.7558 7.16118 49.1193 7.39407 49.3962 7.66577C49.6731 7.93747 49.8981 8.28679 50.1058 8.71375C50.3135 9.16011 50.4 9.66469 50.4 10.2081C50.4 11.1784 50.1577 11.9935 49.6731 12.6534C49.1885 13.3132 48.6 13.7596 47.9077 14.0119C47.2154 14.2836 46.4539 14.4 45.6058 14.4C44.0654 14.4 42.8366 13.9925 41.902 13.1774C40.9673 12.3623 40.5 11.1396 40.5 9.52884H42.075C42.1096 10.7127 42.4731 11.5666 43.1308 12.11C43.8058 12.6534 44.6712 12.9251 45.7443 12.9251C46.5923 12.9251 47.3193 12.7116 47.925 12.3234C48.5135 11.9353 48.825 11.2949 48.825 10.4022C48.825 9.9752 48.7385 9.62588 48.5827 9.33477C48.4097 9.04366 48.1673 8.81078 47.8212 8.61671C47.475 8.42264 47.1289 8.28679 46.7827 8.17035C46.4366 8.05391 45.9693 7.91806 45.4154 7.78221C45.3289 7.7628 45.277 7.7434 45.2423 7.72399C43.9616 7.41348 43.1308 7.14178 42.75 6.94771C41.5385 6.3655 40.95 5.37574 40.95 3.93962C40.95 2.61995 41.3827 1.6496 42.2481 0.989757C43.1135 0.329918 44.1693 0 45.3981 0C46.7481 0 47.8385 0.368733 48.6347 1.08679C49.4481 1.82426 49.8808 2.89164 49.9327 4.32776Z" fill="white"/>
<path d="M32.4002 11.6988V13.4988H30.6002V11.6988H32.4002Z" fill="white"/>
<path d="M30.6002 4.5L26.4822 15.3522C26.3145 15.7997 26.1654 16.1354 26.0536 16.3778C25.9418 16.6202 25.7741 16.8812 25.5505 17.1796C25.3269 17.4779 25.066 17.683 24.7679 17.8135C24.4698 17.9441 24.1157 18 23.7058 18C23.389 18 22.9977 17.9441 22.5319 17.8322V16.4151C22.9791 16.5642 23.3331 16.6202 23.5567 16.6202C24.0784 16.6202 24.4511 16.3591 24.6747 15.8184L25.4201 14.0656L21.6002 4.5H23.389L26.2399 12.1637L28.9418 4.5H30.6002Z" fill="white"/>
<path d="M19.8002 4.5L19.7834 14.1385H18.4606V12.6255C17.7239 13.8209 16.736 14.4 15.4802 14.4C14.576 14.4 13.856 14.1198 13.3536 13.5594C12.8513 12.9991 12.6002 12.1958 12.6002 11.1311V4.5H14.0234V10.7015C14.0234 11.4674 14.1574 12.0464 14.4253 12.4387C14.6932 12.8309 15.162 13.0177 15.8485 13.0177C17.523 13.0177 18.3769 11.8596 18.3769 9.5434V4.5H19.8002Z" fill="white"/>
<path d="M0 0.900635L5.34566 0.918331C6.48864 0.918331 7.4382 1.16608 8.19433 1.67929C8.95046 2.17479 9.33731 2.97114 9.33731 4.06833C9.33731 4.68771 9.16147 5.23631 8.82736 5.73181C8.49326 6.22732 8.05365 6.56356 7.49095 6.77592C8.26466 6.95288 8.84495 7.30681 9.26697 7.87311C9.689 8.4217 9.90001 9.11187 9.90001 9.94361C9.90001 12.315 8.31742 13.5006 5.15223 13.5006H0V0.900635ZM1.61776 2.33406V6.3158H4.58953C4.92363 6.3158 5.20498 6.29811 5.45116 6.28041C5.69734 6.26271 5.96111 6.22732 6.27763 6.15653C6.57656 6.08575 6.82275 5.97957 6.99859 5.83799C7.17443 5.69642 7.33269 5.50176 7.47337 5.25401C7.61404 4.98856 7.6668 4.67002 7.6668 4.31608C7.6668 3.94445 7.61404 3.62592 7.49095 3.37816C7.38544 3.13041 7.24477 2.93575 7.06893 2.79417C6.91067 2.6526 6.68207 2.56412 6.40072 2.49333C6.11937 2.42254 5.8556 2.36945 5.62701 2.35176C5.39841 2.33406 5.09947 2.33406 4.74779 2.33406H1.61776ZM1.61776 7.62535L1.60018 12.1203H4.90604C5.32807 12.1203 5.66217 12.1026 5.90836 12.0849C6.17212 12.0672 6.47106 12.0141 6.78758 11.9433C7.10409 11.8548 7.36786 11.731 7.54371 11.5717C7.73713 11.4124 7.89539 11.1824 8.01848 10.8815C8.15916 10.5807 8.21191 10.2268 8.21191 9.80204C8.21191 9.44811 8.17674 9.12957 8.08882 8.88181C8.0009 8.61636 7.86022 8.40401 7.64921 8.26243C7.4382 8.10316 7.24477 7.97929 7.06893 7.8908C6.89308 7.78462 6.62932 7.73153 6.29521 7.69614C5.94352 7.66075 5.67976 7.62535 5.50392 7.62535C5.31049 7.62535 5.02914 7.62535 4.64228 7.62535H1.61776Z" fill="white"/>
</svg>
