<svg width="206" height="58" viewBox="0 0 206 58" fill="none" xmlns="http://www.w3.org/2000/svg">
<path d="M32.5815 11.1179C29.6849 9.39925 26.3092 8.52905 22.4543 8.52905C18.8389 8.52905 15.7245 9.33399 13.111 10.9656C11.1509 12.1839 9.53925 13.8155 8.27606 15.8387V8.83362H0V58H8.25428V42.2494C9.51747 44.2726 11.1291 45.9042 13.0892 47.1225C15.7027 48.7541 18.8607 49.5591 22.5849 49.5591C26.3092 49.5591 29.8156 48.6889 32.6904 46.9702C35.5653 45.2516 37.7867 42.8367 39.3984 39.7693C40.9883 36.7018 41.7941 33.1558 41.7941 29.1528C41.7941 25.1499 40.9883 21.4298 39.3548 18.3406C37.7214 15.2514 35.4782 12.8365 32.5815 11.1179ZM32.5815 35.9404C31.6668 37.9636 30.3601 39.5735 28.7266 40.7265C27.0714 41.9013 25.1766 42.4669 23.0205 42.4669C20.8644 42.4669 19.0132 41.9013 17.3362 40.7483C15.6592 39.5952 14.3742 38.0071 13.4377 35.9622C12.523 33.9172 12.0438 31.5676 12.0438 28.9135C12.0438 26.2594 12.5012 23.9534 13.4377 21.9519C14.3524 19.9504 15.6592 18.3623 17.3362 17.1876C19.0132 16.0128 20.9079 15.4472 23.0205 15.4472C25.1331 15.4472 27.0932 16.0345 28.7266 17.1876C30.3818 18.3623 31.6668 19.9504 32.5815 21.9737C33.4963 23.9969 33.9754 26.3029 33.9754 28.8918C33.9754 31.4806 33.518 33.8737 32.5815 35.8969V35.9404Z" fill="white"/>
<path d="M65.2839 8.72107C62.7217 9.04109 57.8402 10.1505 53.9527 13.8201L53.1796 14.5455V8.84908H45.2058V48.6176H53.1796V31.1015C53.1796 30.8455 53.1796 30.5681 53.1575 30.2695V29.8854L53.1796 29.5014L53.2238 29.16C53.9527 18.0231 67.3381 15.911 67.3381 15.911H67.3602H67.3823V8.52905C66.9847 8.52905 66.3441 8.57172 65.549 8.65706L65.2618 8.69973L65.2839 8.72107Z" fill="white"/>
<path d="M196.342 11.2001C194.033 17.6281 191.636 24.2731 189.239 30.7879L189.043 31.3526L188.825 30.7879C186.886 25.6847 184.86 20.5163 182.899 15.5216C181.984 13.198 181.069 10.8527 180.175 8.52905H171.743C172.941 11.4173 174.118 14.3272 175.316 17.2154C178.367 24.6423 181.504 32.3298 184.729 39.8435L184.773 39.9304L184.729 40.0172C184.62 40.3864 183.509 43.6438 180.851 44.9902C179.543 45.6417 178.084 45.7285 176.515 45.2291H176.384C175.665 44.9685 174.924 44.6645 174.053 44.2736C172.876 46.1629 171.721 48.0956 170.588 50.2237C171.896 50.9404 173.072 51.4833 174.053 51.8742C178.105 53.264 185.579 54.4366 190.089 46.5972C190.35 46.0543 190.612 45.4897 190.873 44.8816C191.048 44.469 191.222 44.0347 191.396 43.6221L191.549 43.2312C194.294 36.5427 197.192 29.3547 199.981 22.4056C201.855 17.7366 203.729 13.0894 205.559 8.57248H197.345L196.386 11.2653L196.342 11.2001Z" fill="white"/>
<path d="M168.488 40.9542V40.9108C167.142 39.8896 165.861 38.7599 164.732 37.4997C167.403 32.8286 168.901 27.5274 169.118 23.0083C169.335 20.7487 170.117 9.14687 165.145 3.28076C163.56 1.39057 161.475 0.30425 159.152 0.0218074C158.371 -0.0433716 157.328 0.0218074 156.221 0.434608L155.961 0.54324C155.743 0.630145 155.505 0.738777 155.288 0.869135C153.92 1.62956 152.726 2.82451 151.705 4.45398L151.488 4.84506C146.711 15.252 149.556 27.9836 155.961 37.5649C154.636 39.1075 153.16 40.3459 151.618 41.1715C148.492 42.8444 145.387 42.7141 142.043 40.7152C140.893 40.0634 139.742 39.1292 138.678 37.956C141.414 33.3935 143.151 28.0488 143.389 23.0083C143.607 20.7487 144.388 9.14687 139.416 3.28076C137.831 1.41229 135.769 0.30425 133.467 0.0435337C132.751 8.10543e-05 131.774 0.0435337 130.731 0.369429C128.864 1.02122 127.279 2.38998 125.998 4.47571L125.781 4.86678C120.809 15.73 124.196 28.5268 130.232 37.6084L129.863 38.0212C129.016 38.7164 128.126 39.3465 127.192 39.8462C120.679 43.2572 111.365 43.4962 106.783 38.2819C110.67 34.5232 113.775 30.3083 115.381 26.5497C116.836 23.3559 119.007 17.316 117.031 12.8186C116.358 11.2978 115.294 10.1028 113.905 9.27723C113.015 8.77752 111.213 8.12573 108.781 8.58199C105.133 9.40759 102.007 12.2537 99.8572 16.7945C97.1867 22.3999 96.1879 30.5256 97.8815 36.5872C94.299 39.2813 90.3692 41.367 86.7216 42.0188C83.1826 42.6706 80.4252 41.9319 78.254 39.781C77.5375 38.7381 76.9513 37.5432 76.517 36.2613C78.6231 35.4575 80.6423 34.306 82.4661 32.6982C88.046 27.7881 91.7153 19.3148 87.9375 12.6231L87.7638 12.3406C86.5262 10.5591 84.6807 9.45104 82.5529 9.21205C79.9258 8.92961 77.125 9.9942 74.7149 12.232C70.2206 16.7076 68.006 23.8339 68.31 30.7646C65.9434 30.9384 63.5116 30.808 61.1885 30.6125L60.5588 37.717C63.338 37.956 66.3993 38.1081 69.5041 37.8256C70.2206 40.1286 71.2628 42.2795 72.6306 44.1697L72.9563 44.5608C76.821 48.5802 82.0318 50.1227 88.0026 49.0364C92.5186 48.2108 97.1433 45.9078 101.355 42.8661C105.263 47.4287 111.147 49.4275 117.183 49.4275C121.808 49.4275 126.519 48.2543 130.536 46.1468C131.86 45.4516 133.098 44.5825 134.27 43.6266C135.638 44.9736 137.071 46.1034 138.504 46.9072C141.349 48.6236 144.345 49.471 147.319 49.471C149.925 49.471 152.53 48.8192 155.005 47.4939C157.046 46.4075 158.892 44.9301 160.52 43.2355C162.214 44.9736 164.016 46.5162 165.926 47.798L166.122 47.9284C166.73 48.3412 167.359 48.7323 167.989 49.0799L171.441 42.8661C169.661 41.8233 168.51 40.9542 168.51 40.9542H168.488ZM79.6652 17.3594C80.0778 16.9901 80.4469 16.7294 80.7726 16.5773C81.1851 16.4035 81.7279 16.3817 82.0535 16.9466C82.1187 17.1422 82.2055 17.3377 82.2489 17.555V17.707C82.7483 20.8139 80.5771 24.855 77.7763 27.3318C77.0598 27.9619 76.2782 28.4833 75.4749 28.9178C75.6051 24.4205 77.0381 19.9883 79.687 17.3377L79.6652 17.3594ZM104.048 29.7434C103.831 25.0506 105.003 20.3359 107.543 17.4029C107.934 16.9901 108.303 16.7076 108.651 16.5121C109.085 16.3166 109.628 16.2297 110.018 16.8163C110.105 17.0118 110.192 17.2073 110.257 17.4246L110.301 17.5767C110.691 19.3148 110.301 21.3788 109.41 23.3342V23.4428C108.477 25.9413 104.2 30.6125 104.2 30.6125L104.048 29.7434ZM136.311 22.5086C136.181 25.2026 135.508 28.0488 134.401 30.7211C130.362 23.1821 129.385 14.6436 132.099 8.25609L132.295 7.86502V7.82156C132.772 7.1915 133.207 7.25668 133.511 7.43049C133.663 7.53912 133.815 7.66948 133.988 7.88674C136.116 10.407 136.767 17.2291 136.29 22.5086H136.311ZM162.04 22.5086C161.91 25.2895 161.193 28.1574 160.086 30.8298C156.113 23.2038 155.244 14.3395 157.828 8.23436C157.915 8.08228 157.98 7.90847 158.067 7.79984L158.11 7.75638C158.588 7.16977 159.087 7.36531 159.456 7.64775L159.717 7.88674C161.845 10.407 162.496 17.2291 162.018 22.5086H162.04Z" fill="white"/>
</svg>
