<svg width="12" height="15" viewBox="0 0 12 15" fill="none" xmlns="http://www.w3.org/2000/svg">
<path d="M6 12.925L2.25 14.525C1.71667 14.7583 1.20833 14.7167 0.725 14.4C0.241667 14.0833 0 13.6333 0 13.05V1.625C0 1.15833 0.15 0.774999 0.45 0.474999C0.766667 0.158332 1.15833 -9.53674e-07 1.625 -9.53674e-07H10.375C10.8417 -9.53674e-07 11.225 0.158332 11.525 0.474999C11.8417 0.774999 12 1.15833 12 1.625V13.05C12 13.6333 11.7583 14.0833 11.275 14.4C10.7917 14.7167 10.2833 14.7583 9.75 14.525L6 12.925ZM6 11.8L10.125 13.575C10.3417 13.675 10.5417 13.6583 10.725 13.525C10.9083 13.3917 11 13.2167 11 13V1.625C11 1.45833 10.9333 1.31667 10.8 1.2C10.6833 1.06667 10.5417 1 10.375 1H1.625C1.45833 1 1.30833 1.06667 1.175 1.2C1.05833 1.31667 1 1.45833 1 1.625V13C1 13.2167 1.09167 13.3917 1.275 13.525C1.45833 13.6583 1.65833 13.675 1.875 13.575L6 11.8ZM6 1H1.875C1.65833 1 1.45833 1 1.275 1C1.09167 1 1 1 1 1C1 1 1.05833 1 1.175 1C1.30833 1 1.45833 1 1.625 1H10.375C10.5417 1 10.6833 1 10.8 1C10.9333 1 11 1 11 1C11 1 10.9083 1 10.725 1C10.5417 1 10.3417 1 10.125 1H6Z" fill="#262626"/>
</svg>
