<svg width="48" height="48" viewBox="0 0 48 48" fill="none" xmlns="http://www.w3.org/2000/svg">
<path d="M24 32.175L18.0375 34.7625C17.1375 35.1375 16.275 35.0625 15.45 34.5375C14.65 33.9875 14.25 33.2375 14.25 32.2875V13.95C14.25 13.2 14.5125 12.5625 15.0375 12.0375C15.5625 11.5125 16.2 11.25 16.95 11.25H31.05C31.8 11.25 32.4375 11.5125 32.9625 12.0375C33.4875 12.5625 33.75 13.2 33.75 13.95V32.2875C33.75 33.2375 33.3375 33.9875 32.5125 34.5375C31.7125 35.0625 30.8625 35.1375 29.9625 34.7625L24 32.175ZM24 29.7L30.8625 32.6625C31.0125 32.7125 31.15 32.7 31.275 32.625C31.425 32.525 31.5 32.3875 31.5 32.2125V13.95C31.5 13.85 31.45 13.75 31.35 13.65C31.25 13.55 31.15 13.5 31.05 13.5H16.95C16.85 13.5 16.75 13.55 16.65 13.65C16.55 13.75 16.5 13.85 16.5 13.95V32.2125C16.5 32.3875 16.5625 32.525 16.6875 32.625C16.8375 32.7 16.9875 32.7125 17.1375 32.6625L24 29.7ZM24 13.5H17.1375C16.9875 13.5 16.8375 13.5 16.6875 13.5C16.5625 13.5 16.5 13.5 16.5 13.5C16.5 13.5 16.55 13.5 16.65 13.5C16.75 13.5 16.85 13.5 16.95 13.5H31.05C31.15 13.5 31.25 13.5 31.35 13.5C31.45 13.5 31.5 13.5 31.5 13.5C31.5 13.5 31.425 13.5 31.275 13.5C31.15 13.5 31.0125 13.5 30.8625 13.5H24Z" fill="white"/>
</svg>
