<svg width="48" height="48" viewBox="0 0 48 48" fill="none" xmlns="http://www.w3.org/2000/svg">
<path d="M32.2125 16.3125L36.7125 11.8125C36.9375 11.5875 37.2 11.475 37.5 11.475C37.8 11.475 38.0625 11.5875 38.2875 11.8125C38.5375 12.0375 38.6625 12.3125 38.6625 12.6375C38.6625 12.9375 38.5375 13.2 38.2875 13.425L33.15 18.5625C32.875 18.8375 32.55 18.975 32.175 18.975C31.825 18.975 31.5125 18.8375 31.2375 18.5625L29.2875 16.575C29.0625 16.375 28.95 16.125 28.95 15.825C28.95 15.5 29.0625 15.225 29.2875 15C29.5125 14.775 29.775 14.6625 30.075 14.6625C30.4 14.6625 30.6625 14.775 30.8625 15L32.2125 16.3125ZM24 32.175L18.0375 34.7625C17.1375 35.1375 16.275 35.0625 15.45 34.5375C14.65 33.9875 14.25 33.2375 14.25 32.2875V13.95C14.25 13.2 14.5125 12.5625 15.0375 12.0375C15.5625 11.5125 16.2 11.25 16.95 11.25H24.975C25.4 11.25 25.7125 11.4375 25.9125 11.8125C26.1125 12.1625 26.125 12.525 25.95 12.9C25.8 13.3 25.6875 13.7 25.6125 14.1C25.5375 14.5 25.5 14.925 25.5 15.375C25.5 17.15 26.075 18.7 27.225 20.025C28.375 21.35 29.8 22.1375 31.5 22.3875C31.675 22.4125 31.8375 22.4375 31.9875 22.4625C32.1375 22.4625 32.2875 22.4625 32.4375 22.4625C32.7875 22.4625 33.0875 22.5875 33.3375 22.8375C33.6125 23.0625 33.75 23.3625 33.75 23.7375V32.2875C33.75 33.2375 33.3375 33.9875 32.5125 34.5375C31.7125 35.0625 30.8625 35.1375 29.9625 34.7625L24 32.175Z" fill="#0000FF"/>
<path d="M32.2125 16.3125L31.6897 16.8502L32.2199 17.3657L32.7428 16.8428L32.2125 16.3125ZM38.2875 11.8125L37.7572 12.3428L37.7711 12.3568L37.7858 12.37L38.2875 11.8125ZM38.2875 13.425L37.7858 12.8675L37.7711 12.8807L37.7572 12.8947L38.2875 13.425ZM33.15 18.5625L33.6803 19.0928V19.0928L33.15 18.5625ZM31.2375 18.5625L30.7021 19.0878L30.7072 19.0928L31.2375 18.5625ZM29.2875 16.575L29.8229 16.0497L29.8049 16.0315L29.7858 16.0144L29.2875 16.575ZM29.2875 15L28.7572 14.4697L28.7572 14.4697L29.2875 15ZM30.8625 15L30.3019 15.4983L30.3201 15.5187L30.3397 15.5377L30.8625 15ZM24 32.175L24.2986 31.487L24 31.3574L23.7014 31.487L24 32.175ZM18.0375 34.7625L18.326 35.4549L18.3361 35.4505L18.0375 34.7625ZM15.45 34.5375L15.0251 35.1555L15.0361 35.1631L15.0473 35.1702L15.45 34.5375ZM15.0375 12.0375L14.5072 11.5072V11.5072L15.0375 12.0375ZM25.9125 11.8125L25.2507 12.1654L25.2559 12.1751L25.2613 12.1846L25.9125 11.8125ZM25.95 12.9L25.2704 12.5828L25.258 12.6093L25.2478 12.6367L25.95 12.9ZM27.225 20.025L26.6586 20.5166V20.5166L27.225 20.025ZM31.5 22.3875L31.3909 23.1295L31.3939 23.13L31.5 22.3875ZM31.9875 22.4625L31.8642 23.2023L31.9254 23.2125H31.9875V22.4625ZM33.3375 22.8375L32.8072 23.3678L32.8336 23.3943L32.8626 23.418L33.3375 22.8375ZM32.5125 34.5375L32.924 35.1646L32.9285 35.1615L32.5125 34.5375ZM29.9625 34.7625L29.6639 35.4506L29.674 35.4548L29.9625 34.7625ZM32.2125 16.3125L32.7428 16.8428L37.2428 12.3428L36.7125 11.8125L36.1822 11.2822L31.6822 15.7822L32.2125 16.3125ZM36.7125 11.8125L37.2428 12.3428C37.3366 12.249 37.4119 12.225 37.5 12.225V11.475V10.725C36.9881 10.725 36.5384 10.926 36.1822 11.2822L36.7125 11.8125ZM37.5 11.475V12.225C37.5881 12.225 37.6634 12.249 37.7572 12.3428L38.2875 11.8125L38.8178 11.2822C38.4617 10.926 38.0119 10.725 37.5 10.725V11.475ZM38.2875 11.8125L37.7858 12.37C37.884 12.4584 37.9125 12.5334 37.9125 12.6375H38.6625H39.4125C39.4125 12.0916 39.191 11.6166 38.7892 11.255L38.2875 11.8125ZM38.6625 12.6375H37.9125C37.9125 12.6978 37.899 12.7656 37.7858 12.8675L38.2875 13.425L38.7892 13.9825C39.176 13.6344 39.4125 13.1772 39.4125 12.6375H38.6625ZM38.2875 13.425L37.7572 12.8947L32.6197 18.0322L33.15 18.5625L33.6803 19.0928L38.8178 13.9553L38.2875 13.425ZM33.15 18.5625L32.6197 18.0322C32.4795 18.1723 32.343 18.225 32.175 18.225V18.975V19.725C32.757 19.725 33.2705 19.5027 33.6803 19.0928L33.15 18.5625ZM32.175 18.975V18.225C32.0469 18.225 31.9193 18.1836 31.7678 18.0322L31.2375 18.5625L30.7072 19.0928C31.1057 19.4914 31.6031 19.725 32.175 19.725V18.975ZM31.2375 18.5625L31.7729 18.0372L29.8229 16.0497L29.2875 16.575L28.7521 17.1003L30.7021 19.0878L31.2375 18.5625ZM29.2875 16.575L29.7858 16.0144C29.7203 15.9562 29.7 15.9099 29.7 15.825H28.95H28.2C28.2 16.3401 28.4047 16.7938 28.7892 17.1356L29.2875 16.575ZM28.95 15.825H29.7C29.7 15.6941 29.7368 15.6113 29.8178 15.5303L29.2875 15L28.7572 14.4697C28.3882 14.8387 28.2 15.3059 28.2 15.825H28.95ZM29.2875 15L29.8178 15.5303C29.9116 15.4365 29.9869 15.4125 30.075 15.4125V14.6625V13.9125C29.5631 13.9125 29.1134 14.1135 28.7572 14.4697L29.2875 15ZM30.075 14.6625V15.4125C30.205 15.4125 30.2565 15.4472 30.3019 15.4983L30.8625 15L31.4231 14.5017C31.0685 14.1028 30.595 13.9125 30.075 13.9125V14.6625ZM30.8625 15L30.3397 15.5377L31.6897 16.8502L32.2125 16.3125L32.7353 15.7748L31.3853 14.4623L30.8625 15ZM24 32.175L23.7014 31.487L17.7389 34.0745L18.0375 34.7625L18.3361 35.4505L24.2986 32.863L24 32.175ZM18.0375 34.7625L17.749 34.0702C17.0761 34.3506 16.4716 34.2986 15.8527 33.9048L15.45 34.5375L15.0473 35.1702C16.0784 35.8264 17.1989 35.9244 18.326 35.4548L18.0375 34.7625ZM15.45 34.5375L15.8749 33.9195C15.2731 33.5057 15 32.9841 15 32.2875H14.25H13.5C13.5 33.4909 14.0269 34.4693 15.0251 35.1555L15.45 34.5375ZM14.25 32.2875H15V13.95H14.25H13.5V32.2875H14.25ZM14.25 13.95H15C15 13.3966 15.1851 12.9506 15.5678 12.5678L15.0375 12.0375L14.5072 11.5072C13.8399 12.1744 13.5 13.0034 13.5 13.95H14.25ZM15.0375 12.0375L15.5678 12.5678C15.9506 12.1851 16.3966 12 16.95 12V11.25V10.5C16.0034 10.5 15.1744 10.8399 14.5072 11.5072L15.0375 12.0375ZM16.95 11.25V12H24.975V11.25V10.5H16.95V11.25ZM24.975 11.25V12C25.0745 12 25.1207 12.0208 25.1423 12.0337C25.1638 12.0466 25.2039 12.0777 25.2507 12.1654L25.9125 11.8125L26.5743 11.4596C26.4211 11.1723 26.205 10.9221 25.914 10.7475C25.623 10.5729 25.3005 10.5 24.975 10.5V11.25ZM25.9125 11.8125L25.2613 12.1846C25.3367 12.3165 25.3456 12.4216 25.2704 12.5828L25.95 12.9L26.6296 13.2172C26.9044 12.6284 26.8883 12.0085 26.5637 11.4404L25.9125 11.8125ZM25.95 12.9L25.2478 12.6367C25.0833 13.0753 24.9587 13.5171 24.8753 13.9618L25.6125 14.1L26.3497 14.2382C26.4163 13.8829 26.5167 13.5247 26.6522 13.1633L25.95 12.9ZM25.6125 14.1L24.8753 13.9618C24.791 14.4118 24.75 14.8834 24.75 15.375H25.5H26.25C26.25 14.9666 26.284 14.5881 26.3497 14.2382L25.6125 14.1ZM25.5 15.375H24.75C24.75 17.3283 25.3887 19.0534 26.6586 20.5166L27.225 20.025L27.7914 19.5334C26.7613 18.3466 26.25 16.9717 26.25 15.375H25.5ZM27.225 20.025L26.6586 20.5166C27.9235 21.9739 29.5094 22.8528 31.3909 23.1295L31.5 22.3875L31.6091 21.6455C30.0906 21.4222 28.8265 20.726 27.7914 19.5334L27.225 20.025ZM31.5 22.3875L31.3939 23.13C31.5641 23.1543 31.7208 23.1784 31.8642 23.2023L31.9875 22.4625L32.1108 21.7227C31.9542 21.6966 31.7859 21.6707 31.6061 21.645L31.5 22.3875ZM31.9875 22.4625V23.2125C31.9878 23.2125 31.9881 23.2125 31.9884 23.2125C31.9887 23.2125 31.989 23.2125 31.9893 23.2125C31.9896 23.2125 31.9898 23.2125 31.9901 23.2125C31.9904 23.2125 31.9907 23.2125 31.991 23.2125C31.9913 23.2125 31.9916 23.2125 31.9919 23.2125C31.9922 23.2125 31.9925 23.2125 31.9928 23.2125C31.9931 23.2125 31.9934 23.2125 31.9937 23.2125C31.9939 23.2125 31.9942 23.2125 31.9945 23.2125C31.9948 23.2125 31.9951 23.2125 31.9954 23.2125C31.9957 23.2125 31.996 23.2125 31.9963 23.2125C31.9966 23.2125 31.9969 23.2125 31.9972 23.2125C31.9975 23.2125 31.9978 23.2125 31.998 23.2125C31.9983 23.2125 31.9986 23.2125 31.9989 23.2125C31.9992 23.2125 31.9995 23.2125 31.9998 23.2125C32.0001 23.2125 32.0004 23.2125 32.0007 23.2125C32.001 23.2125 32.0013 23.2125 32.0016 23.2125C32.0019 23.2125 32.0021 23.2125 32.0024 23.2125C32.0027 23.2125 32.003 23.2125 32.0033 23.2125C32.0036 23.2125 32.0039 23.2125 32.0042 23.2125C32.0045 23.2125 32.0048 23.2125 32.0051 23.2125C32.0054 23.2125 32.0057 23.2125 32.006 23.2125C32.0063 23.2125 32.0065 23.2125 32.0068 23.2125C32.0071 23.2125 32.0074 23.2125 32.0077 23.2125C32.008 23.2125 32.0083 23.2125 32.0086 23.2125C32.0089 23.2125 32.0092 23.2125 32.0095 23.2125C32.0098 23.2125 32.0101 23.2125 32.0104 23.2125C32.0106 23.2125 32.0109 23.2125 32.0112 23.2125C32.0115 23.2125 32.0118 23.2125 32.0121 23.2125C32.0124 23.2125 32.0127 23.2125 32.013 23.2125C32.0133 23.2125 32.0136 23.2125 32.0139 23.2125C32.0142 23.2125 32.0145 23.2125 32.0147 23.2125C32.015 23.2125 32.0153 23.2125 32.0156 23.2125C32.0159 23.2125 32.0162 23.2125 32.0165 23.2125C32.0168 23.2125 32.0171 23.2125 32.0174 23.2125C32.0177 23.2125 32.018 23.2125 32.0183 23.2125C32.0186 23.2125 32.0188 23.2125 32.0191 23.2125C32.0194 23.2125 32.0197 23.2125 32.02 23.2125C32.0203 23.2125 32.0206 23.2125 32.0209 23.2125C32.0212 23.2125 32.0215 23.2125 32.0218 23.2125C32.0221 23.2125 32.0224 23.2125 32.0227 23.2125C32.0229 23.2125 32.0232 23.2125 32.0235 23.2125C32.0238 23.2125 32.0241 23.2125 32.0244 23.2125C32.0247 23.2125 32.025 23.2125 32.0253 23.2125C32.0256 23.2125 32.0259 23.2125 32.0262 23.2125C32.0265 23.2125 32.0268 23.2125 32.0271 23.2125C32.0273 23.2125 32.0276 23.2125 32.0279 23.2125C32.0282 23.2125 32.0285 23.2125 32.0288 23.2125C32.0291 23.2125 32.0294 23.2125 32.0297 23.2125C32.03 23.2125 32.0303 23.2125 32.0306 23.2125C32.0309 23.2125 32.0312 23.2125 32.0314 23.2125C32.0317 23.2125 32.032 23.2125 32.0323 23.2125C32.0326 23.2125 32.0329 23.2125 32.0332 23.2125C32.0335 23.2125 32.0338 23.2125 32.0341 23.2125C32.0344 23.2125 32.0347 23.2125 32.035 23.2125C32.0353 23.2125 32.0355 23.2125 32.0358 23.2125C32.0361 23.2125 32.0364 23.2125 32.0367 23.2125C32.037 23.2125 32.0373 23.2125 32.0376 23.2125C32.0379 23.2125 32.0382 23.2125 32.0385 23.2125C32.0388 23.2125 32.0391 23.2125 32.0394 23.2125C32.0396 23.2125 32.0399 23.2125 32.0402 23.2125C32.0405 23.2125 32.0408 23.2125 32.0411 23.2125C32.0414 23.2125 32.0417 23.2125 32.042 23.2125C32.0423 23.2125 32.0426 23.2125 32.0429 23.2125C32.0432 23.2125 32.0435 23.2125 32.0438 23.2125C32.044 23.2125 32.0443 23.2125 32.0446 23.2125C32.0449 23.2125 32.0452 23.2125 32.0455 23.2125C32.0458 23.2125 32.0461 23.2125 32.0464 23.2125C32.0467 23.2125 32.047 23.2125 32.0473 23.2125C32.0476 23.2125 32.0479 23.2125 32.0481 23.2125C32.0484 23.2125 32.0487 23.2125 32.049 23.2125C32.0493 23.2125 32.0496 23.2125 32.0499 23.2125C32.0502 23.2125 32.0505 23.2125 32.0508 23.2125C32.0511 23.2125 32.0514 23.2125 32.0517 23.2125C32.052 23.2125 32.0522 23.2125 32.0525 23.2125C32.0528 23.2125 32.0531 23.2125 32.0534 23.2125C32.0537 23.2125 32.054 23.2125 32.0543 23.2125C32.0546 23.2125 32.0549 23.2125 32.0552 23.2125C32.0555 23.2125 32.0558 23.2125 32.0561 23.2125C32.0563 23.2125 32.0566 23.2125 32.0569 23.2125C32.0572 23.2125 32.0575 23.2125 32.0578 23.2125C32.0581 23.2125 32.0584 23.2125 32.0587 23.2125C32.059 23.2125 32.0593 23.2125 32.0596 23.2125C32.0599 23.2125 32.0602 23.2125 32.0604 23.2125C32.0607 23.2125 32.061 23.2125 32.0613 23.2125C32.0616 23.2125 32.0619 23.2125 32.0622 23.2125C32.0625 23.2125 32.0628 23.2125 32.0631 23.2125C32.0634 23.2125 32.0637 23.2125 32.064 23.2125C32.0643 23.2125 32.0646 23.2125 32.0648 23.2125C32.0651 23.2125 32.0654 23.2125 32.0657 23.2125C32.066 23.2125 32.0663 23.2125 32.0666 23.2125C32.0669 23.2125 32.0672 23.2125 32.0675 23.2125C32.0678 23.2125 32.0681 23.2125 32.0684 23.2125C32.0687 23.2125 32.0689 23.2125 32.0692 23.2125C32.0695 23.2125 32.0698 23.2125 32.0701 23.2125C32.0704 23.2125 32.0707 23.2125 32.071 23.2125C32.0713 23.2125 32.0716 23.2125 32.0719 23.2125C32.0722 23.2125 32.0725 23.2125 32.0728 23.2125C32.073 23.2125 32.0733 23.2125 32.0736 23.2125C32.0739 23.2125 32.0742 23.2125 32.0745 23.2125C32.0748 23.2125 32.0751 23.2125 32.0754 23.2125C32.0757 23.2125 32.076 23.2125 32.0763 23.2125C32.0766 23.2125 32.0769 23.2125 32.0771 23.2125C32.0774 23.2125 32.0777 23.2125 32.078 23.2125C32.0783 23.2125 32.0786 23.2125 32.0789 23.2125C32.0792 23.2125 32.0795 23.2125 32.0798 23.2125C32.0801 23.2125 32.0804 23.2125 32.0807 23.2125C32.081 23.2125 32.0813 23.2125 32.0815 23.2125C32.0818 23.2125 32.0821 23.2125 32.0824 23.2125C32.0827 23.2125 32.083 23.2125 32.0833 23.2125C32.0836 23.2125 32.0839 23.2125 32.0842 23.2125C32.0845 23.2125 32.0848 23.2125 32.0851 23.2125C32.0854 23.2125 32.0856 23.2125 32.0859 23.2125C32.0862 23.2125 32.0865 23.2125 32.0868 23.2125C32.0871 23.2125 32.0874 23.2125 32.0877 23.2125C32.088 23.2125 32.0883 23.2125 32.0886 23.2125C32.0889 23.2125 32.0892 23.2125 32.0895 23.2125C32.0897 23.2125 32.09 23.2125 32.0903 23.2125C32.0906 23.2125 32.0909 23.2125 32.0912 23.2125C32.0915 23.2125 32.0918 23.2125 32.0921 23.2125C32.0924 23.2125 32.0927 23.2125 32.093 23.2125C32.0933 23.2125 32.0936 23.2125 32.0938 23.2125C32.0941 23.2125 32.0944 23.2125 32.0947 23.2125C32.095 23.2125 32.0953 23.2125 32.0956 23.2125C32.0959 23.2125 32.0962 23.2125 32.0965 23.2125C32.0968 23.2125 32.0971 23.2125 32.0974 23.2125C32.0977 23.2125 32.0979 23.2125 32.0982 23.2125C32.0985 23.2125 32.0988 23.2125 32.0991 23.2125C32.0994 23.2125 32.0997 23.2125 32.1 23.2125C32.1003 23.2125 32.1006 23.2125 32.1009 23.2125C32.1012 23.2125 32.1015 23.2125 32.1018 23.2125C32.1021 23.2125 32.1023 23.2125 32.1026 23.2125C32.1029 23.2125 32.1032 23.2125 32.1035 23.2125C32.1038 23.2125 32.1041 23.2125 32.1044 23.2125C32.1047 23.2125 32.105 23.2125 32.1053 23.2125C32.1056 23.2125 32.1059 23.2125 32.1062 23.2125C32.1064 23.2125 32.1067 23.2125 32.107 23.2125C32.1073 23.2125 32.1076 23.2125 32.1079 23.2125C32.1082 23.2125 32.1085 23.2125 32.1088 23.2125C32.1091 23.2125 32.1094 23.2125 32.1097 23.2125C32.11 23.2125 32.1103 23.2125 32.1105 23.2125C32.1108 23.2125 32.1111 23.2125 32.1114 23.2125C32.1117 23.2125 32.112 23.2125 32.1123 23.2125C32.1126 23.2125 32.1129 23.2125 32.1132 23.2125C32.1135 23.2125 32.1138 23.2125 32.1141 23.2125C32.1144 23.2125 32.1146 23.2125 32.1149 23.2125C32.1152 23.2125 32.1155 23.2125 32.1158 23.2125C32.1161 23.2125 32.1164 23.2125 32.1167 23.2125C32.117 23.2125 32.1173 23.2125 32.1176 23.2125C32.1179 23.2125 32.1182 23.2125 32.1185 23.2125C32.1188 23.2125 32.119 23.2125 32.1193 23.2125C32.1196 23.2125 32.1199 23.2125 32.1202 23.2125C32.1205 23.2125 32.1208 23.2125 32.1211 23.2125C32.1214 23.2125 32.1217 23.2125 32.122 23.2125C32.1223 23.2125 32.1226 23.2125 32.1229 23.2125C32.1231 23.2125 32.1234 23.2125 32.1237 23.2125C32.124 23.2125 32.1243 23.2125 32.1246 23.2125C32.1249 23.2125 32.1252 23.2125 32.1255 23.2125C32.1258 23.2125 32.1261 23.2125 32.1264 23.2125C32.1267 23.2125 32.127 23.2125 32.1272 23.2125C32.1275 23.2125 32.1278 23.2125 32.1281 23.2125C32.1284 23.2125 32.1287 23.2125 32.129 23.2125C32.1293 23.2125 32.1296 23.2125 32.1299 23.2125C32.1302 23.2125 32.1305 23.2125 32.1308 23.2125C32.1311 23.2125 32.1313 23.2125 32.1316 23.2125C32.1319 23.2125 32.1322 23.2125 32.1325 23.2125C32.1328 23.2125 32.1331 23.2125 32.1334 23.2125C32.1337 23.2125 32.134 23.2125 32.1343 23.2125C32.1346 23.2125 32.1349 23.2125 32.1352 23.2125C32.1355 23.2125 32.1357 23.2125 32.136 23.2125C32.1363 23.2125 32.1366 23.2125 32.1369 23.2125C32.1372 23.2125 32.1375 23.2125 32.1378 23.2125C32.1381 23.2125 32.1384 23.2125 32.1387 23.2125C32.139 23.2125 32.1393 23.2125 32.1396 23.2125C32.1398 23.2125 32.1401 23.2125 32.1404 23.2125C32.1407 23.2125 32.141 23.2125 32.1413 23.2125C32.1416 23.2125 32.1419 23.2125 32.1422 23.2125C32.1425 23.2125 32.1428 23.2125 32.1431 23.2125C32.1434 23.2125 32.1437 23.2125 32.1439 23.2125C32.1442 23.2125 32.1445 23.2125 32.1448 23.2125C32.1451 23.2125 32.1454 23.2125 32.1457 23.2125C32.146 23.2125 32.1463 23.2125 32.1466 23.2125C32.1469 23.2125 32.1472 23.2125 32.1475 23.2125C32.1478 23.2125 32.148 23.2125 32.1483 23.2125C32.1486 23.2125 32.1489 23.2125 32.1492 23.2125C32.1495 23.2125 32.1498 23.2125 32.1501 23.2125C32.1504 23.2125 32.1507 23.2125 32.151 23.2125C32.1513 23.2125 32.1516 23.2125 32.1519 23.2125C32.1521 23.2125 32.1524 23.2125 32.1527 23.2125C32.153 23.2125 32.1533 23.2125 32.1536 23.2125C32.1539 23.2125 32.1542 23.2125 32.1545 23.2125C32.1548 23.2125 32.1551 23.2125 32.1554 23.2125C32.1557 23.2125 32.156 23.2125 32.1563 23.2125C32.1565 23.2125 32.1568 23.2125 32.1571 23.2125C32.1574 23.2125 32.1577 23.2125 32.158 23.2125C32.1583 23.2125 32.1586 23.2125 32.1589 23.2125C32.1592 23.2125 32.1595 23.2125 32.1598 23.2125C32.1601 23.2125 32.1604 23.2125 32.1606 23.2125C32.1609 23.2125 32.1612 23.2125 32.1615 23.2125C32.1618 23.2125 32.1621 23.2125 32.1624 23.2125C32.1627 23.2125 32.163 23.2125 32.1633 23.2125C32.1636 23.2125 32.1639 23.2125 32.1642 23.2125C32.1645 23.2125 32.1647 23.2125 32.165 23.2125C32.1653 23.2125 32.1656 23.2125 32.1659 23.2125C32.1662 23.2125 32.1665 23.2125 32.1668 23.2125C32.1671 23.2125 32.1674 23.2125 32.1677 23.2125C32.168 23.2125 32.1683 23.2125 32.1686 23.2125C32.1688 23.2125 32.1691 23.2125 32.1694 23.2125C32.1697 23.2125 32.17 23.2125 32.1703 23.2125C32.1706 23.2125 32.1709 23.2125 32.1712 23.2125C32.1715 23.2125 32.1718 23.2125 32.1721 23.2125C32.1724 23.2125 32.1727 23.2125 32.173 23.2125C32.1732 23.2125 32.1735 23.2125 32.1738 23.2125C32.1741 23.2125 32.1744 23.2125 32.1747 23.2125C32.175 23.2125 32.1753 23.2125 32.1756 23.2125C32.1759 23.2125 32.1762 23.2125 32.1765 23.2125C32.1768 23.2125 32.1771 23.2125 32.1773 23.2125C32.1776 23.2125 32.1779 23.2125 32.1782 23.2125C32.1785 23.2125 32.1788 23.2125 32.1791 23.2125C32.1794 23.2125 32.1797 23.2125 32.18 23.2125C32.1803 23.2125 32.1806 23.2125 32.1809 23.2125C32.1812 23.2125 32.1814 23.2125 32.1817 23.2125C32.182 23.2125 32.1823 23.2125 32.1826 23.2125C32.1829 23.2125 32.1832 23.2125 32.1835 23.2125C32.1838 23.2125 32.1841 23.2125 32.1844 23.2125C32.1847 23.2125 32.185 23.2125 32.1853 23.2125C32.1855 23.2125 32.1858 23.2125 32.1861 23.2125C32.1864 23.2125 32.1867 23.2125 32.187 23.2125C32.1873 23.2125 32.1876 23.2125 32.1879 23.2125C32.1882 23.2125 32.1885 23.2125 32.1888 23.2125C32.1891 23.2125 32.1894 23.2125 32.1896 23.2125C32.1899 23.2125 32.1902 23.2125 32.1905 23.2125C32.1908 23.2125 32.1911 23.2125 32.1914 23.2125C32.1917 23.2125 32.192 23.2125 32.1923 23.2125C32.1926 23.2125 32.1929 23.2125 32.1932 23.2125C32.1935 23.2125 32.1938 23.2125 32.194 23.2125C32.1943 23.2125 32.1946 23.2125 32.1949 23.2125C32.1952 23.2125 32.1955 23.2125 32.1958 23.2125C32.1961 23.2125 32.1964 23.2125 32.1967 23.2125C32.197 23.2125 32.1973 23.2125 32.1976 23.2125C32.1979 23.2125 32.1981 23.2125 32.1984 23.2125C32.1987 23.2125 32.199 23.2125 32.1993 23.2125C32.1996 23.2125 32.1999 23.2125 32.2002 23.2125C32.2005 23.2125 32.2008 23.2125 32.2011 23.2125C32.2014 23.2125 32.2017 23.2125 32.202 23.2125C32.2022 23.2125 32.2025 23.2125 32.2028 23.2125C32.2031 23.2125 32.2034 23.2125 32.2037 23.2125C32.204 23.2125 32.2043 23.2125 32.2046 23.2125C32.2049 23.2125 32.2052 23.2125 32.2055 23.2125C32.2058 23.2125 32.2061 23.2125 32.2063 23.2125C32.2066 23.2125 32.2069 23.2125 32.2072 23.2125C32.2075 23.2125 32.2078 23.2125 32.2081 23.2125C32.2084 23.2125 32.2087 23.2125 32.209 23.2125C32.2093 23.2125 32.2096 23.2125 32.2099 23.2125C32.2102 23.2125 32.2105 23.2125 32.2107 23.2125C32.211 23.2125 32.2113 23.2125 32.2116 23.2125C32.2119 23.2125 32.2122 23.2125 32.2125 23.2125C32.2128 23.2125 32.2131 23.2125 32.2134 23.2125C32.2137 23.2125 32.214 23.2125 32.2143 23.2125C32.2146 23.2125 32.2148 23.2125 32.2151 23.2125C32.2154 23.2125 32.2157 23.2125 32.216 23.2125C32.2163 23.2125 32.2166 23.2125 32.2169 23.2125C32.2172 23.2125 32.2175 23.2125 32.2178 23.2125C32.2181 23.2125 32.2184 23.2125 32.2187 23.2125C32.2189 23.2125 32.2192 23.2125 32.2195 23.2125C32.2198 23.2125 32.2201 23.2125 32.2204 23.2125C32.2207 23.2125 32.221 23.2125 32.2213 23.2125C32.2216 23.2125 32.2219 23.2125 32.2222 23.2125C32.2225 23.2125 32.2228 23.2125 32.223 23.2125C32.2233 23.2125 32.2236 23.2125 32.2239 23.2125C32.2242 23.2125 32.2245 23.2125 32.2248 23.2125C32.2251 23.2125 32.2254 23.2125 32.2257 23.2125C32.226 23.2125 32.2263 23.2125 32.2266 23.2125C32.2269 23.2125 32.2271 23.2125 32.2274 23.2125C32.2277 23.2125 32.228 23.2125 32.2283 23.2125C32.2286 23.2125 32.2289 23.2125 32.2292 23.2125C32.2295 23.2125 32.2298 23.2125 32.2301 23.2125C32.2304 23.2125 32.2307 23.2125 32.231 23.2125C32.2313 23.2125 32.2315 23.2125 32.2318 23.2125C32.2321 23.2125 32.2324 23.2125 32.2327 23.2125C32.233 23.2125 32.2333 23.2125 32.2336 23.2125C32.2339 23.2125 32.2342 23.2125 32.2345 23.2125C32.2348 23.2125 32.2351 23.2125 32.2354 23.2125C32.2356 23.2125 32.2359 23.2125 32.2362 23.2125C32.2365 23.2125 32.2368 23.2125 32.2371 23.2125C32.2374 23.2125 32.2377 23.2125 32.238 23.2125C32.2383 23.2125 32.2386 23.2125 32.2389 23.2125C32.2392 23.2125 32.2395 23.2125 32.2397 23.2125C32.24 23.2125 32.2403 23.2125 32.2406 23.2125C32.2409 23.2125 32.2412 23.2125 32.2415 23.2125C32.2418 23.2125 32.2421 23.2125 32.2424 23.2125C32.2427 23.2125 32.243 23.2125 32.2433 23.2125C32.2436 23.2125 32.2438 23.2125 32.2441 23.2125C32.2444 23.2125 32.2447 23.2125 32.245 23.2125C32.2453 23.2125 32.2456 23.2125 32.2459 23.2125C32.2462 23.2125 32.2465 23.2125 32.2468 23.2125C32.2471 23.2125 32.2474 23.2125 32.2477 23.2125C32.248 23.2125 32.2482 23.2125 32.2485 23.2125C32.2488 23.2125 32.2491 23.2125 32.2494 23.2125C32.2497 23.2125 32.25 23.2125 32.2503 23.2125C32.2506 23.2125 32.2509 23.2125 32.2512 23.2125C32.2515 23.2125 32.2518 23.2125 32.2521 23.2125C32.2523 23.2125 32.2526 23.2125 32.2529 23.2125C32.2532 23.2125 32.2535 23.2125 32.2538 23.2125C32.2541 23.2125 32.2544 23.2125 32.2547 23.2125C32.255 23.2125 32.2553 23.2125 32.2556 23.2125C32.2559 23.2125 32.2562 23.2125 32.2564 23.2125C32.2567 23.2125 32.257 23.2125 32.2573 23.2125C32.2576 23.2125 32.2579 23.2125 32.2582 23.2125C32.2585 23.2125 32.2588 23.2125 32.2591 23.2125C32.2594 23.2125 32.2597 23.2125 32.26 23.2125C32.2603 23.2125 32.2605 23.2125 32.2608 23.2125C32.2611 23.2125 32.2614 23.2125 32.2617 23.2125C32.262 23.2125 32.2623 23.2125 32.2626 23.2125C32.2629 23.2125 32.2632 23.2125 32.2635 23.2125C32.2638 23.2125 32.2641 23.2125 32.2644 23.2125C32.2647 23.2125 32.2649 23.2125 32.2652 23.2125C32.2655 23.2125 32.2658 23.2125 32.2661 23.2125C32.2664 23.2125 32.2667 23.2125 32.267 23.2125C32.2673 23.2125 32.2676 23.2125 32.2679 23.2125C32.2682 23.2125 32.2685 23.2125 32.2688 23.2125C32.269 23.2125 32.2693 23.2125 32.2696 23.2125C32.2699 23.2125 32.2702 23.2125 32.2705 23.2125C32.2708 23.2125 32.2711 23.2125 32.2714 23.2125C32.2717 23.2125 32.272 23.2125 32.2723 23.2125C32.2726 23.2125 32.2729 23.2125 32.2731 23.2125C32.2734 23.2125 32.2737 23.2125 32.274 23.2125C32.2743 23.2125 32.2746 23.2125 32.2749 23.2125C32.2752 23.2125 32.2755 23.2125 32.2758 23.2125C32.2761 23.2125 32.2764 23.2125 32.2767 23.2125C32.277 23.2125 32.2772 23.2125 32.2775 23.2125C32.2778 23.2125 32.2781 23.2125 32.2784 23.2125C32.2787 23.2125 32.279 23.2125 32.2793 23.2125C32.2796 23.2125 32.2799 23.2125 32.2802 23.2125C32.2805 23.2125 32.2808 23.2125 32.2811 23.2125C32.2813 23.2125 32.2816 23.2125 32.2819 23.2125C32.2822 23.2125 32.2825 23.2125 32.2828 23.2125C32.2831 23.2125 32.2834 23.2125 32.2837 23.2125C32.284 23.2125 32.2843 23.2125 32.2846 23.2125C32.2849 23.2125 32.2852 23.2125 32.2854 23.2125C32.2857 23.2125 32.286 23.2125 32.2863 23.2125C32.2866 23.2125 32.2869 23.2125 32.2872 23.2125C32.2875 23.2125 32.2878 23.2125 32.2881 23.2125C32.2884 23.2125 32.2887 23.2125 32.289 23.2125C32.2893 23.2125 32.2896 23.2125 32.2898 23.2125C32.2901 23.2125 32.2904 23.2125 32.2907 23.2125C32.291 23.2125 32.2913 23.2125 32.2916 23.2125C32.2919 23.2125 32.2922 23.2125 32.2925 23.2125C32.2928 23.2125 32.2931 23.2125 32.2934 23.2125C32.2937 23.2125 32.2939 23.2125 32.2942 23.2125C32.2945 23.2125 32.2948 23.2125 32.2951 23.2125C32.2954 23.2125 32.2957 23.2125 32.296 23.2125C32.2963 23.2125 32.2966 23.2125 32.2969 23.2125C32.2972 23.2125 32.2975 23.2125 32.2978 23.2125C32.298 23.2125 32.2983 23.2125 32.2986 23.2125C32.2989 23.2125 32.2992 23.2125 32.2995 23.2125C32.2998 23.2125 32.3001 23.2125 32.3004 23.2125C32.3007 23.2125 32.301 23.2125 32.3013 23.2125C32.3016 23.2125 32.3019 23.2125 32.3022 23.2125C32.3024 23.2125 32.3027 23.2125 32.303 23.2125C32.3033 23.2125 32.3036 23.2125 32.3039 23.2125C32.3042 23.2125 32.3045 23.2125 32.3048 23.2125C32.3051 23.2125 32.3054 23.2125 32.3057 23.2125C32.306 23.2125 32.3063 23.2125 32.3065 23.2125C32.3068 23.2125 32.3071 23.2125 32.3074 23.2125C32.3077 23.2125 32.308 23.2125 32.3083 23.2125C32.3086 23.2125 32.3089 23.2125 32.3092 23.2125C32.3095 23.2125 32.3098 23.2125 32.3101 23.2125C32.3104 23.2125 32.3106 23.2125 32.3109 23.2125C32.3112 23.2125 32.3115 23.2125 32.3118 23.2125C32.3121 23.2125 32.3124 23.2125 32.3127 23.2125C32.313 23.2125 32.3133 23.2125 32.3136 23.2125C32.3139 23.2125 32.3142 23.2125 32.3145 23.2125C32.3147 23.2125 32.315 23.2125 32.3153 23.2125C32.3156 23.2125 32.3159 23.2125 32.3162 23.2125C32.3165 23.2125 32.3168 23.2125 32.3171 23.2125C32.3174 23.2125 32.3177 23.2125 32.318 23.2125C32.3183 23.2125 32.3186 23.2125 32.3188 23.2125C32.3191 23.2125 32.3194 23.2125 32.3197 23.2125C32.32 23.2125 32.3203 23.2125 32.3206 23.2125C32.3209 23.2125 32.3212 23.2125 32.3215 23.2125C32.3218 23.2125 32.3221 23.2125 32.3224 23.2125C32.3227 23.2125 32.323 23.2125 32.3232 23.2125C32.3235 23.2125 32.3238 23.2125 32.3241 23.2125C32.3244 23.2125 32.3247 23.2125 32.325 23.2125C32.3253 23.2125 32.3256 23.2125 32.3259 23.2125C32.3262 23.2125 32.3265 23.2125 32.3268 23.2125C32.3271 23.2125 32.3273 23.2125 32.3276 23.2125C32.3279 23.2125 32.3282 23.2125 32.3285 23.2125C32.3288 23.2125 32.3291 23.2125 32.3294 23.2125C32.3297 23.2125 32.33 23.2125 32.3303 23.2125C32.3306 23.2125 32.3309 23.2125 32.3312 23.2125C32.3314 23.2125 32.3317 23.2125 32.332 23.2125C32.3323 23.2125 32.3326 23.2125 32.3329 23.2125C32.3332 23.2125 32.3335 23.2125 32.3338 23.2125C32.3341 23.2125 32.3344 23.2125 32.3347 23.2125C32.335 23.2125 32.3353 23.2125 32.3355 23.2125C32.3358 23.2125 32.3361 23.2125 32.3364 23.2125C32.3367 23.2125 32.337 23.2125 32.3373 23.2125C32.3376 23.2125 32.3379 23.2125 32.3382 23.2125C32.3385 23.2125 32.3388 23.2125 32.3391 23.2125C32.3394 23.2125 32.3397 23.2125 32.3399 23.2125C32.3402 23.2125 32.3405 23.2125 32.3408 23.2125C32.3411 23.2125 32.3414 23.2125 32.3417 23.2125C32.342 23.2125 32.3423 23.2125 32.3426 23.2125C32.3429 23.2125 32.3432 23.2125 32.3435 23.2125C32.3438 23.2125 32.344 23.2125 32.3443 23.2125C32.3446 23.2125 32.3449 23.2125 32.3452 23.2125C32.3455 23.2125 32.3458 23.2125 32.3461 23.2125C32.3464 23.2125 32.3467 23.2125 32.347 23.2125C32.3473 23.2125 32.3476 23.2125 32.3479 23.2125C32.3481 23.2125 32.3484 23.2125 32.3487 23.2125C32.349 23.2125 32.3493 23.2125 32.3496 23.2125C32.3499 23.2125 32.3502 23.2125 32.3505 23.2125C32.3508 23.2125 32.3511 23.2125 32.3514 23.2125C32.3517 23.2125 32.352 23.2125 32.3522 23.2125C32.3525 23.2125 32.3528 23.2125 32.3531 23.2125C32.3534 23.2125 32.3537 23.2125 32.354 23.2125C32.3543 23.2125 32.3546 23.2125 32.3549 23.2125C32.3552 23.2125 32.3555 23.2125 32.3558 23.2125C32.3561 23.2125 32.3563 23.2125 32.3566 23.2125C32.3569 23.2125 32.3572 23.2125 32.3575 23.2125C32.3578 23.2125 32.3581 23.2125 32.3584 23.2125C32.3587 23.2125 32.359 23.2125 32.3593 23.2125C32.3596 23.2125 32.3599 23.2125 32.3602 23.2125C32.3605 23.2125 32.3607 23.2125 32.361 23.2125C32.3613 23.2125 32.3616 23.2125 32.3619 23.2125C32.3622 23.2125 32.3625 23.2125 32.3628 23.2125C32.3631 23.2125 32.3634 23.2125 32.3637 23.2125C32.364 23.2125 32.3643 23.2125 32.3646 23.2125C32.3648 23.2125 32.3651 23.2125 32.3654 23.2125C32.3657 23.2125 32.366 23.2125 32.3663 23.2125C32.3666 23.2125 32.3669 23.2125 32.3672 23.2125C32.3675 23.2125 32.3678 23.2125 32.3681 23.2125C32.3684 23.2125 32.3687 23.2125 32.3689 23.2125C32.3692 23.2125 32.3695 23.2125 32.3698 23.2125C32.3701 23.2125 32.3704 23.2125 32.3707 23.2125C32.371 23.2125 32.3713 23.2125 32.3716 23.2125C32.3719 23.2125 32.3722 23.2125 32.3725 23.2125C32.3728 23.2125 32.373 23.2125 32.3733 23.2125C32.3736 23.2125 32.3739 23.2125 32.3742 23.2125C32.3745 23.2125 32.3748 23.2125 32.3751 23.2125C32.3754 23.2125 32.3757 23.2125 32.376 23.2125C32.3763 23.2125 32.3766 23.2125 32.3769 23.2125C32.3771 23.2125 32.3774 23.2125 32.3777 23.2125C32.378 23.2125 32.3783 23.2125 32.3786 23.2125C32.3789 23.2125 32.3792 23.2125 32.3795 23.2125C32.3798 23.2125 32.3801 23.2125 32.3804 23.2125C32.3807 23.2125 32.381 23.2125 32.3813 23.2125C32.3815 23.2125 32.3818 23.2125 32.3821 23.2125C32.3824 23.2125 32.3827 23.2125 32.383 23.2125C32.3833 23.2125 32.3836 23.2125 32.3839 23.2125C32.3842 23.2125 32.3845 23.2125 32.3848 23.2125C32.3851 23.2125 32.3854 23.2125 32.3856 23.2125C32.3859 23.2125 32.3862 23.2125 32.3865 23.2125C32.3868 23.2125 32.3871 23.2125 32.3874 23.2125C32.3877 23.2125 32.388 23.2125 32.3883 23.2125C32.3886 23.2125 32.3889 23.2125 32.3892 23.2125C32.3895 23.2125 32.3897 23.2125 32.39 23.2125C32.3903 23.2125 32.3906 23.2125 32.3909 23.2125C32.3912 23.2125 32.3915 23.2125 32.3918 23.2125C32.3921 23.2125 32.3924 23.2125 32.3927 23.2125C32.393 23.2125 32.3933 23.2125 32.3936 23.2125C32.3939 23.2125 32.3941 23.2125 32.3944 23.2125C32.3947 23.2125 32.395 23.2125 32.3953 23.2125C32.3956 23.2125 32.3959 23.2125 32.3962 23.2125C32.3965 23.2125 32.3968 23.2125 32.3971 23.2125C32.3974 23.2125 32.3977 23.2125 32.398 23.2125C32.3982 23.2125 32.3985 23.2125 32.3988 23.2125C32.3991 23.2125 32.3994 23.2125 32.3997 23.2125C32.4 23.2125 32.4003 23.2125 32.4006 23.2125C32.4009 23.2125 32.4012 23.2125 32.4015 23.2125C32.4018 23.2125 32.4021 23.2125 32.4023 23.2125C32.4026 23.2125 32.4029 23.2125 32.4032 23.2125C32.4035 23.2125 32.4038 23.2125 32.4041 23.2125C32.4044 23.2125 32.4047 23.2125 32.405 23.2125C32.4053 23.2125 32.4056 23.2125 32.4059 23.2125C32.4062 23.2125 32.4064 23.2125 32.4067 23.2125C32.407 23.2125 32.4073 23.2125 32.4076 23.2125C32.4079 23.2125 32.4082 23.2125 32.4085 23.2125C32.4088 23.2125 32.4091 23.2125 32.4094 23.2125C32.4097 23.2125 32.41 23.2125 32.4103 23.2125C32.4105 23.2125 32.4108 23.2125 32.4111 23.2125C32.4114 23.2125 32.4117 23.2125 32.412 23.2125C32.4123 23.2125 32.4126 23.2125 32.4129 23.2125C32.4132 23.2125 32.4135 23.2125 32.4138 23.2125C32.4141 23.2125 32.4144 23.2125 32.4146 23.2125C32.4149 23.2125 32.4152 23.2125 32.4155 23.2125C32.4158 23.2125 32.4161 23.2125 32.4164 23.2125C32.4167 23.2125 32.417 23.2125 32.4173 23.2125C32.4176 23.2125 32.4179 23.2125 32.4182 23.2125C32.4185 23.2125 32.4188 23.2125 32.419 23.2125C32.4193 23.2125 32.4196 23.2125 32.4199 23.2125C32.4202 23.2125 32.4205 23.2125 32.4208 23.2125C32.4211 23.2125 32.4214 23.2125 32.4217 23.2125C32.422 23.2125 32.4223 23.2125 32.4226 23.2125C32.4229 23.2125 32.4231 23.2125 32.4234 23.2125C32.4237 23.2125 32.424 23.2125 32.4243 23.2125C32.4246 23.2125 32.4249 23.2125 32.4252 23.2125C32.4255 23.2125 32.4258 23.2125 32.4261 23.2125C32.4264 23.2125 32.4267 23.2125 32.427 23.2125C32.4272 23.2125 32.4275 23.2125 32.4278 23.2125C32.4281 23.2125 32.4284 23.2125 32.4287 23.2125C32.429 23.2125 32.4293 23.2125 32.4296 23.2125C32.4299 23.2125 32.4302 23.2125 32.4305 23.2125C32.4308 23.2125 32.4311 23.2125 32.4314 23.2125C32.4316 23.2125 32.4319 23.2125 32.4322 23.2125C32.4325 23.2125 32.4328 23.2125 32.4331 23.2125C32.4334 23.2125 32.4337 23.2125 32.434 23.2125C32.4343 23.2125 32.4346 23.2125 32.4349 23.2125C32.4352 23.2125 32.4355 23.2125 32.4357 23.2125C32.436 23.2125 32.4363 23.2125 32.4366 23.2125C32.4369 23.2125 32.4372 23.2125 32.4375 23.2125V22.4625V21.7125C32.4372 21.7125 32.4369 21.7125 32.4366 21.7125C32.4363 21.7125 32.436 21.7125 32.4357 21.7125C32.4355 21.7125 32.4352 21.7125 32.4349 21.7125C32.4346 21.7125 32.4343 21.7125 32.434 21.7125C32.4337 21.7125 32.4334 21.7125 32.4331 21.7125C32.4328 21.7125 32.4325 21.7125 32.4322 21.7125C32.4319 21.7125 32.4316 21.7125 32.4314 21.7125C32.4311 21.7125 32.4308 21.7125 32.4305 21.7125C32.4302 21.7125 32.4299 21.7125 32.4296 21.7125C32.4293 21.7125 32.429 21.7125 32.4287 21.7125C32.4284 21.7125 32.4281 21.7125 32.4278 21.7125C32.4275 21.7125 32.4272 21.7125 32.427 21.7125C32.4267 21.7125 32.4264 21.7125 32.4261 21.7125C32.4258 21.7125 32.4255 21.7125 32.4252 21.7125C32.4249 21.7125 32.4246 21.7125 32.4243 21.7125C32.424 21.7125 32.4237 21.7125 32.4234 21.7125C32.4231 21.7125 32.4229 21.7125 32.4226 21.7125C32.4223 21.7125 32.422 21.7125 32.4217 21.7125C32.4214 21.7125 32.4211 21.7125 32.4208 21.7125C32.4205 21.7125 32.4202 21.7125 32.4199 21.7125C32.4196 21.7125 32.4193 21.7125 32.419 21.7125C32.4188 21.7125 32.4185 21.7125 32.4182 21.7125C32.4179 21.7125 32.4176 21.7125 32.4173 21.7125C32.417 21.7125 32.4167 21.7125 32.4164 21.7125C32.4161 21.7125 32.4158 21.7125 32.4155 21.7125C32.4152 21.7125 32.4149 21.7125 32.4146 21.7125C32.4144 21.7125 32.4141 21.7125 32.4138 21.7125C32.4135 21.7125 32.4132 21.7125 32.4129 21.7125C32.4126 21.7125 32.4123 21.7125 32.412 21.7125C32.4117 21.7125 32.4114 21.7125 32.4111 21.7125C32.4108 21.7125 32.4105 21.7125 32.4103 21.7125C32.41 21.7125 32.4097 21.7125 32.4094 21.7125C32.4091 21.7125 32.4088 21.7125 32.4085 21.7125C32.4082 21.7125 32.4079 21.7125 32.4076 21.7125C32.4073 21.7125 32.407 21.7125 32.4067 21.7125C32.4064 21.7125 32.4062 21.7125 32.4059 21.7125C32.4056 21.7125 32.4053 21.7125 32.405 21.7125C32.4047 21.7125 32.4044 21.7125 32.4041 21.7125C32.4038 21.7125 32.4035 21.7125 32.4032 21.7125C32.4029 21.7125 32.4026 21.7125 32.4023 21.7125C32.4021 21.7125 32.4018 21.7125 32.4015 21.7125C32.4012 21.7125 32.4009 21.7125 32.4006 21.7125C32.4003 21.7125 32.4 21.7125 32.3997 21.7125C32.3994 21.7125 32.3991 21.7125 32.3988 21.7125C32.3985 21.7125 32.3982 21.7125 32.398 21.7125C32.3977 21.7125 32.3974 21.7125 32.3971 21.7125C32.3968 21.7125 32.3965 21.7125 32.3962 21.7125C32.3959 21.7125 32.3956 21.7125 32.3953 21.7125C32.395 21.7125 32.3947 21.7125 32.3944 21.7125C32.3941 21.7125 32.3939 21.7125 32.3936 21.7125C32.3933 21.7125 32.393 21.7125 32.3927 21.7125C32.3924 21.7125 32.3921 21.7125 32.3918 21.7125C32.3915 21.7125 32.3912 21.7125 32.3909 21.7125C32.3906 21.7125 32.3903 21.7125 32.39 21.7125C32.3897 21.7125 32.3895 21.7125 32.3892 21.7125C32.3889 21.7125 32.3886 21.7125 32.3883 21.7125C32.388 21.7125 32.3877 21.7125 32.3874 21.7125C32.3871 21.7125 32.3868 21.7125 32.3865 21.7125C32.3862 21.7125 32.3859 21.7125 32.3856 21.7125C32.3854 21.7125 32.3851 21.7125 32.3848 21.7125C32.3845 21.7125 32.3842 21.7125 32.3839 21.7125C32.3836 21.7125 32.3833 21.7125 32.383 21.7125C32.3827 21.7125 32.3824 21.7125 32.3821 21.7125C32.3818 21.7125 32.3815 21.7125 32.3813 21.7125C32.381 21.7125 32.3807 21.7125 32.3804 21.7125C32.3801 21.7125 32.3798 21.7125 32.3795 21.7125C32.3792 21.7125 32.3789 21.7125 32.3786 21.7125C32.3783 21.7125 32.378 21.7125 32.3777 21.7125C32.3774 21.7125 32.3771 21.7125 32.3769 21.7125C32.3766 21.7125 32.3763 21.7125 32.376 21.7125C32.3757 21.7125 32.3754 21.7125 32.3751 21.7125C32.3748 21.7125 32.3745 21.7125 32.3742 21.7125C32.3739 21.7125 32.3736 21.7125 32.3733 21.7125C32.373 21.7125 32.3728 21.7125 32.3725 21.7125C32.3722 21.7125 32.3719 21.7125 32.3716 21.7125C32.3713 21.7125 32.371 21.7125 32.3707 21.7125C32.3704 21.7125 32.3701 21.7125 32.3698 21.7125C32.3695 21.7125 32.3692 21.7125 32.3689 21.7125C32.3687 21.7125 32.3684 21.7125 32.3681 21.7125C32.3678 21.7125 32.3675 21.7125 32.3672 21.7125C32.3669 21.7125 32.3666 21.7125 32.3663 21.7125C32.366 21.7125 32.3657 21.7125 32.3654 21.7125C32.3651 21.7125 32.3648 21.7125 32.3646 21.7125C32.3643 21.7125 32.364 21.7125 32.3637 21.7125C32.3634 21.7125 32.3631 21.7125 32.3628 21.7125C32.3625 21.7125 32.3622 21.7125 32.3619 21.7125C32.3616 21.7125 32.3613 21.7125 32.361 21.7125C32.3607 21.7125 32.3605 21.7125 32.3602 21.7125C32.3599 21.7125 32.3596 21.7125 32.3593 21.7125C32.359 21.7125 32.3587 21.7125 32.3584 21.7125C32.3581 21.7125 32.3578 21.7125 32.3575 21.7125C32.3572 21.7125 32.3569 21.7125 32.3566 21.7125C32.3563 21.7125 32.3561 21.7125 32.3558 21.7125C32.3555 21.7125 32.3552 21.7125 32.3549 21.7125C32.3546 21.7125 32.3543 21.7125 32.354 21.7125C32.3537 21.7125 32.3534 21.7125 32.3531 21.7125C32.3528 21.7125 32.3525 21.7125 32.3522 21.7125C32.352 21.7125 32.3517 21.7125 32.3514 21.7125C32.3511 21.7125 32.3508 21.7125 32.3505 21.7125C32.3502 21.7125 32.3499 21.7125 32.3496 21.7125C32.3493 21.7125 32.349 21.7125 32.3487 21.7125C32.3484 21.7125 32.3481 21.7125 32.3479 21.7125C32.3476 21.7125 32.3473 21.7125 32.347 21.7125C32.3467 21.7125 32.3464 21.7125 32.3461 21.7125C32.3458 21.7125 32.3455 21.7125 32.3452 21.7125C32.3449 21.7125 32.3446 21.7125 32.3443 21.7125C32.344 21.7125 32.3438 21.7125 32.3435 21.7125C32.3432 21.7125 32.3429 21.7125 32.3426 21.7125C32.3423 21.7125 32.342 21.7125 32.3417 21.7125C32.3414 21.7125 32.3411 21.7125 32.3408 21.7125C32.3405 21.7125 32.3402 21.7125 32.3399 21.7125C32.3397 21.7125 32.3394 21.7125 32.3391 21.7125C32.3388 21.7125 32.3385 21.7125 32.3382 21.7125C32.3379 21.7125 32.3376 21.7125 32.3373 21.7125C32.337 21.7125 32.3367 21.7125 32.3364 21.7125C32.3361 21.7125 32.3358 21.7125 32.3355 21.7125C32.3353 21.7125 32.335 21.7125 32.3347 21.7125C32.3344 21.7125 32.3341 21.7125 32.3338 21.7125C32.3335 21.7125 32.3332 21.7125 32.3329 21.7125C32.3326 21.7125 32.3323 21.7125 32.332 21.7125C32.3317 21.7125 32.3314 21.7125 32.3312 21.7125C32.3309 21.7125 32.3306 21.7125 32.3303 21.7125C32.33 21.7125 32.3297 21.7125 32.3294 21.7125C32.3291 21.7125 32.3288 21.7125 32.3285 21.7125C32.3282 21.7125 32.3279 21.7125 32.3276 21.7125C32.3273 21.7125 32.3271 21.7125 32.3268 21.7125C32.3265 21.7125 32.3262 21.7125 32.3259 21.7125C32.3256 21.7125 32.3253 21.7125 32.325 21.7125C32.3247 21.7125 32.3244 21.7125 32.3241 21.7125C32.3238 21.7125 32.3235 21.7125 32.3232 21.7125C32.323 21.7125 32.3227 21.7125 32.3224 21.7125C32.3221 21.7125 32.3218 21.7125 32.3215 21.7125C32.3212 21.7125 32.3209 21.7125 32.3206 21.7125C32.3203 21.7125 32.32 21.7125 32.3197 21.7125C32.3194 21.7125 32.3191 21.7125 32.3188 21.7125C32.3186 21.7125 32.3183 21.7125 32.318 21.7125C32.3177 21.7125 32.3174 21.7125 32.3171 21.7125C32.3168 21.7125 32.3165 21.7125 32.3162 21.7125C32.3159 21.7125 32.3156 21.7125 32.3153 21.7125C32.315 21.7125 32.3147 21.7125 32.3145 21.7125C32.3142 21.7125 32.3139 21.7125 32.3136 21.7125C32.3133 21.7125 32.313 21.7125 32.3127 21.7125C32.3124 21.7125 32.3121 21.7125 32.3118 21.7125C32.3115 21.7125 32.3112 21.7125 32.3109 21.7125C32.3106 21.7125 32.3104 21.7125 32.3101 21.7125C32.3098 21.7125 32.3095 21.7125 32.3092 21.7125C32.3089 21.7125 32.3086 21.7125 32.3083 21.7125C32.308 21.7125 32.3077 21.7125 32.3074 21.7125C32.3071 21.7125 32.3068 21.7125 32.3065 21.7125C32.3063 21.7125 32.306 21.7125 32.3057 21.7125C32.3054 21.7125 32.3051 21.7125 32.3048 21.7125C32.3045 21.7125 32.3042 21.7125 32.3039 21.7125C32.3036 21.7125 32.3033 21.7125 32.303 21.7125C32.3027 21.7125 32.3024 21.7125 32.3022 21.7125C32.3019 21.7125 32.3016 21.7125 32.3013 21.7125C32.301 21.7125 32.3007 21.7125 32.3004 21.7125C32.3001 21.7125 32.2998 21.7125 32.2995 21.7125C32.2992 21.7125 32.2989 21.7125 32.2986 21.7125C32.2983 21.7125 32.298 21.7125 32.2978 21.7125C32.2975 21.7125 32.2972 21.7125 32.2969 21.7125C32.2966 21.7125 32.2963 21.7125 32.296 21.7125C32.2957 21.7125 32.2954 21.7125 32.2951 21.7125C32.2948 21.7125 32.2945 21.7125 32.2942 21.7125C32.2939 21.7125 32.2937 21.7125 32.2934 21.7125C32.2931 21.7125 32.2928 21.7125 32.2925 21.7125C32.2922 21.7125 32.2919 21.7125 32.2916 21.7125C32.2913 21.7125 32.291 21.7125 32.2907 21.7125C32.2904 21.7125 32.2901 21.7125 32.2898 21.7125C32.2896 21.7125 32.2893 21.7125 32.289 21.7125C32.2887 21.7125 32.2884 21.7125 32.2881 21.7125C32.2878 21.7125 32.2875 21.7125 32.2872 21.7125C32.2869 21.7125 32.2866 21.7125 32.2863 21.7125C32.286 21.7125 32.2857 21.7125 32.2854 21.7125C32.2852 21.7125 32.2849 21.7125 32.2846 21.7125C32.2843 21.7125 32.284 21.7125 32.2837 21.7125C32.2834 21.7125 32.2831 21.7125 32.2828 21.7125C32.2825 21.7125 32.2822 21.7125 32.2819 21.7125C32.2816 21.7125 32.2813 21.7125 32.2811 21.7125C32.2808 21.7125 32.2805 21.7125 32.2802 21.7125C32.2799 21.7125 32.2796 21.7125 32.2793 21.7125C32.279 21.7125 32.2787 21.7125 32.2784 21.7125C32.2781 21.7125 32.2778 21.7125 32.2775 21.7125C32.2772 21.7125 32.277 21.7125 32.2767 21.7125C32.2764 21.7125 32.2761 21.7125 32.2758 21.7125C32.2755 21.7125 32.2752 21.7125 32.2749 21.7125C32.2746 21.7125 32.2743 21.7125 32.274 21.7125C32.2737 21.7125 32.2734 21.7125 32.2731 21.7125C32.2729 21.7125 32.2726 21.7125 32.2723 21.7125C32.272 21.7125 32.2717 21.7125 32.2714 21.7125C32.2711 21.7125 32.2708 21.7125 32.2705 21.7125C32.2702 21.7125 32.2699 21.7125 32.2696 21.7125C32.2693 21.7125 32.269 21.7125 32.2688 21.7125C32.2685 21.7125 32.2682 21.7125 32.2679 21.7125C32.2676 21.7125 32.2673 21.7125 32.267 21.7125C32.2667 21.7125 32.2664 21.7125 32.2661 21.7125C32.2658 21.7125 32.2655 21.7125 32.2652 21.7125C32.2649 21.7125 32.2647 21.7125 32.2644 21.7125C32.2641 21.7125 32.2638 21.7125 32.2635 21.7125C32.2632 21.7125 32.2629 21.7125 32.2626 21.7125C32.2623 21.7125 32.262 21.7125 32.2617 21.7125C32.2614 21.7125 32.2611 21.7125 32.2608 21.7125C32.2605 21.7125 32.2603 21.7125 32.26 21.7125C32.2597 21.7125 32.2594 21.7125 32.2591 21.7125C32.2588 21.7125 32.2585 21.7125 32.2582 21.7125C32.2579 21.7125 32.2576 21.7125 32.2573 21.7125C32.257 21.7125 32.2567 21.7125 32.2564 21.7125C32.2562 21.7125 32.2559 21.7125 32.2556 21.7125C32.2553 21.7125 32.255 21.7125 32.2547 21.7125C32.2544 21.7125 32.2541 21.7125 32.2538 21.7125C32.2535 21.7125 32.2532 21.7125 32.2529 21.7125C32.2526 21.7125 32.2523 21.7125 32.2521 21.7125C32.2518 21.7125 32.2515 21.7125 32.2512 21.7125C32.2509 21.7125 32.2506 21.7125 32.2503 21.7125C32.25 21.7125 32.2497 21.7125 32.2494 21.7125C32.2491 21.7125 32.2488 21.7125 32.2485 21.7125C32.2482 21.7125 32.248 21.7125 32.2477 21.7125C32.2474 21.7125 32.2471 21.7125 32.2468 21.7125C32.2465 21.7125 32.2462 21.7125 32.2459 21.7125C32.2456 21.7125 32.2453 21.7125 32.245 21.7125C32.2447 21.7125 32.2444 21.7125 32.2441 21.7125C32.2438 21.7125 32.2436 21.7125 32.2433 21.7125C32.243 21.7125 32.2427 21.7125 32.2424 21.7125C32.2421 21.7125 32.2418 21.7125 32.2415 21.7125C32.2412 21.7125 32.2409 21.7125 32.2406 21.7125C32.2403 21.7125 32.24 21.7125 32.2397 21.7125C32.2395 21.7125 32.2392 21.7125 32.2389 21.7125C32.2386 21.7125 32.2383 21.7125 32.238 21.7125C32.2377 21.7125 32.2374 21.7125 32.2371 21.7125C32.2368 21.7125 32.2365 21.7125 32.2362 21.7125C32.2359 21.7125 32.2356 21.7125 32.2354 21.7125C32.2351 21.7125 32.2348 21.7125 32.2345 21.7125C32.2342 21.7125 32.2339 21.7125 32.2336 21.7125C32.2333 21.7125 32.233 21.7125 32.2327 21.7125C32.2324 21.7125 32.2321 21.7125 32.2318 21.7125C32.2315 21.7125 32.2313 21.7125 32.231 21.7125C32.2307 21.7125 32.2304 21.7125 32.2301 21.7125C32.2298 21.7125 32.2295 21.7125 32.2292 21.7125C32.2289 21.7125 32.2286 21.7125 32.2283 21.7125C32.228 21.7125 32.2277 21.7125 32.2274 21.7125C32.2271 21.7125 32.2269 21.7125 32.2266 21.7125C32.2263 21.7125 32.226 21.7125 32.2257 21.7125C32.2254 21.7125 32.2251 21.7125 32.2248 21.7125C32.2245 21.7125 32.2242 21.7125 32.2239 21.7125C32.2236 21.7125 32.2233 21.7125 32.223 21.7125C32.2228 21.7125 32.2225 21.7125 32.2222 21.7125C32.2219 21.7125 32.2216 21.7125 32.2213 21.7125C32.221 21.7125 32.2207 21.7125 32.2204 21.7125C32.2201 21.7125 32.2198 21.7125 32.2195 21.7125C32.2192 21.7125 32.2189 21.7125 32.2187 21.7125C32.2184 21.7125 32.2181 21.7125 32.2178 21.7125C32.2175 21.7125 32.2172 21.7125 32.2169 21.7125C32.2166 21.7125 32.2163 21.7125 32.216 21.7125C32.2157 21.7125 32.2154 21.7125 32.2151 21.7125C32.2148 21.7125 32.2146 21.7125 32.2143 21.7125C32.214 21.7125 32.2137 21.7125 32.2134 21.7125C32.2131 21.7125 32.2128 21.7125 32.2125 21.7125C32.2122 21.7125 32.2119 21.7125 32.2116 21.7125C32.2113 21.7125 32.211 21.7125 32.2107 21.7125C32.2105 21.7125 32.2102 21.7125 32.2099 21.7125C32.2096 21.7125 32.2093 21.7125 32.209 21.7125C32.2087 21.7125 32.2084 21.7125 32.2081 21.7125C32.2078 21.7125 32.2075 21.7125 32.2072 21.7125C32.2069 21.7125 32.2066 21.7125 32.2063 21.7125C32.2061 21.7125 32.2058 21.7125 32.2055 21.7125C32.2052 21.7125 32.2049 21.7125 32.2046 21.7125C32.2043 21.7125 32.204 21.7125 32.2037 21.7125C32.2034 21.7125 32.2031 21.7125 32.2028 21.7125C32.2025 21.7125 32.2022 21.7125 32.202 21.7125C32.2017 21.7125 32.2014 21.7125 32.2011 21.7125C32.2008 21.7125 32.2005 21.7125 32.2002 21.7125C32.1999 21.7125 32.1996 21.7125 32.1993 21.7125C32.199 21.7125 32.1987 21.7125 32.1984 21.7125C32.1981 21.7125 32.1979 21.7125 32.1976 21.7125C32.1973 21.7125 32.197 21.7125 32.1967 21.7125C32.1964 21.7125 32.1961 21.7125 32.1958 21.7125C32.1955 21.7125 32.1952 21.7125 32.1949 21.7125C32.1946 21.7125 32.1943 21.7125 32.194 21.7125C32.1938 21.7125 32.1935 21.7125 32.1932 21.7125C32.1929 21.7125 32.1926 21.7125 32.1923 21.7125C32.192 21.7125 32.1917 21.7125 32.1914 21.7125C32.1911 21.7125 32.1908 21.7125 32.1905 21.7125C32.1902 21.7125 32.1899 21.7125 32.1896 21.7125C32.1894 21.7125 32.1891 21.7125 32.1888 21.7125C32.1885 21.7125 32.1882 21.7125 32.1879 21.7125C32.1876 21.7125 32.1873 21.7125 32.187 21.7125C32.1867 21.7125 32.1864 21.7125 32.1861 21.7125C32.1858 21.7125 32.1855 21.7125 32.1853 21.7125C32.185 21.7125 32.1847 21.7125 32.1844 21.7125C32.1841 21.7125 32.1838 21.7125 32.1835 21.7125C32.1832 21.7125 32.1829 21.7125 32.1826 21.7125C32.1823 21.7125 32.182 21.7125 32.1817 21.7125C32.1814 21.7125 32.1812 21.7125 32.1809 21.7125C32.1806 21.7125 32.1803 21.7125 32.18 21.7125C32.1797 21.7125 32.1794 21.7125 32.1791 21.7125C32.1788 21.7125 32.1785 21.7125 32.1782 21.7125C32.1779 21.7125 32.1776 21.7125 32.1773 21.7125C32.1771 21.7125 32.1768 21.7125 32.1765 21.7125C32.1762 21.7125 32.1759 21.7125 32.1756 21.7125C32.1753 21.7125 32.175 21.7125 32.1747 21.7125C32.1744 21.7125 32.1741 21.7125 32.1738 21.7125C32.1735 21.7125 32.1732 21.7125 32.173 21.7125C32.1727 21.7125 32.1724 21.7125 32.1721 21.7125C32.1718 21.7125 32.1715 21.7125 32.1712 21.7125C32.1709 21.7125 32.1706 21.7125 32.1703 21.7125C32.17 21.7125 32.1697 21.7125 32.1694 21.7125C32.1691 21.7125 32.1688 21.7125 32.1686 21.7125C32.1683 21.7125 32.168 21.7125 32.1677 21.7125C32.1674 21.7125 32.1671 21.7125 32.1668 21.7125C32.1665 21.7125 32.1662 21.7125 32.1659 21.7125C32.1656 21.7125 32.1653 21.7125 32.165 21.7125C32.1647 21.7125 32.1645 21.7125 32.1642 21.7125C32.1639 21.7125 32.1636 21.7125 32.1633 21.7125C32.163 21.7125 32.1627 21.7125 32.1624 21.7125C32.1621 21.7125 32.1618 21.7125 32.1615 21.7125C32.1612 21.7125 32.1609 21.7125 32.1606 21.7125C32.1604 21.7125 32.1601 21.7125 32.1598 21.7125C32.1595 21.7125 32.1592 21.7125 32.1589 21.7125C32.1586 21.7125 32.1583 21.7125 32.158 21.7125C32.1577 21.7125 32.1574 21.7125 32.1571 21.7125C32.1568 21.7125 32.1565 21.7125 32.1563 21.7125C32.156 21.7125 32.1557 21.7125 32.1554 21.7125C32.1551 21.7125 32.1548 21.7125 32.1545 21.7125C32.1542 21.7125 32.1539 21.7125 32.1536 21.7125C32.1533 21.7125 32.153 21.7125 32.1527 21.7125C32.1524 21.7125 32.1521 21.7125 32.1519 21.7125C32.1516 21.7125 32.1513 21.7125 32.151 21.7125C32.1507 21.7125 32.1504 21.7125 32.1501 21.7125C32.1498 21.7125 32.1495 21.7125 32.1492 21.7125C32.1489 21.7125 32.1486 21.7125 32.1483 21.7125C32.148 21.7125 32.1478 21.7125 32.1475 21.7125C32.1472 21.7125 32.1469 21.7125 32.1466 21.7125C32.1463 21.7125 32.146 21.7125 32.1457 21.7125C32.1454 21.7125 32.1451 21.7125 32.1448 21.7125C32.1445 21.7125 32.1442 21.7125 32.1439 21.7125C32.1437 21.7125 32.1434 21.7125 32.1431 21.7125C32.1428 21.7125 32.1425 21.7125 32.1422 21.7125C32.1419 21.7125 32.1416 21.7125 32.1413 21.7125C32.141 21.7125 32.1407 21.7125 32.1404 21.7125C32.1401 21.7125 32.1398 21.7125 32.1396 21.7125C32.1393 21.7125 32.139 21.7125 32.1387 21.7125C32.1384 21.7125 32.1381 21.7125 32.1378 21.7125C32.1375 21.7125 32.1372 21.7125 32.1369 21.7125C32.1366 21.7125 32.1363 21.7125 32.136 21.7125C32.1357 21.7125 32.1355 21.7125 32.1352 21.7125C32.1349 21.7125 32.1346 21.7125 32.1343 21.7125C32.134 21.7125 32.1337 21.7125 32.1334 21.7125C32.1331 21.7125 32.1328 21.7125 32.1325 21.7125C32.1322 21.7125 32.1319 21.7125 32.1316 21.7125C32.1313 21.7125 32.1311 21.7125 32.1308 21.7125C32.1305 21.7125 32.1302 21.7125 32.1299 21.7125C32.1296 21.7125 32.1293 21.7125 32.129 21.7125C32.1287 21.7125 32.1284 21.7125 32.1281 21.7125C32.1278 21.7125 32.1275 21.7125 32.1272 21.7125C32.127 21.7125 32.1267 21.7125 32.1264 21.7125C32.1261 21.7125 32.1258 21.7125 32.1255 21.7125C32.1252 21.7125 32.1249 21.7125 32.1246 21.7125C32.1243 21.7125 32.124 21.7125 32.1237 21.7125C32.1234 21.7125 32.1231 21.7125 32.1229 21.7125C32.1226 21.7125 32.1223 21.7125 32.122 21.7125C32.1217 21.7125 32.1214 21.7125 32.1211 21.7125C32.1208 21.7125 32.1205 21.7125 32.1202 21.7125C32.1199 21.7125 32.1196 21.7125 32.1193 21.7125C32.119 21.7125 32.1188 21.7125 32.1185 21.7125C32.1182 21.7125 32.1179 21.7125 32.1176 21.7125C32.1173 21.7125 32.117 21.7125 32.1167 21.7125C32.1164 21.7125 32.1161 21.7125 32.1158 21.7125C32.1155 21.7125 32.1152 21.7125 32.1149 21.7125C32.1146 21.7125 32.1144 21.7125 32.1141 21.7125C32.1138 21.7125 32.1135 21.7125 32.1132 21.7125C32.1129 21.7125 32.1126 21.7125 32.1123 21.7125C32.112 21.7125 32.1117 21.7125 32.1114 21.7125C32.1111 21.7125 32.1108 21.7125 32.1105 21.7125C32.1103 21.7125 32.11 21.7125 32.1097 21.7125C32.1094 21.7125 32.1091 21.7125 32.1088 21.7125C32.1085 21.7125 32.1082 21.7125 32.1079 21.7125C32.1076 21.7125 32.1073 21.7125 32.107 21.7125C32.1067 21.7125 32.1064 21.7125 32.1062 21.7125C32.1059 21.7125 32.1056 21.7125 32.1053 21.7125C32.105 21.7125 32.1047 21.7125 32.1044 21.7125C32.1041 21.7125 32.1038 21.7125 32.1035 21.7125C32.1032 21.7125 32.1029 21.7125 32.1026 21.7125C32.1023 21.7125 32.1021 21.7125 32.1018 21.7125C32.1015 21.7125 32.1012 21.7125 32.1009 21.7125C32.1006 21.7125 32.1003 21.7125 32.1 21.7125C32.0997 21.7125 32.0994 21.7125 32.0991 21.7125C32.0988 21.7125 32.0985 21.7125 32.0982 21.7125C32.0979 21.7125 32.0977 21.7125 32.0974 21.7125C32.0971 21.7125 32.0968 21.7125 32.0965 21.7125C32.0962 21.7125 32.0959 21.7125 32.0956 21.7125C32.0953 21.7125 32.095 21.7125 32.0947 21.7125C32.0944 21.7125 32.0941 21.7125 32.0938 21.7125C32.0936 21.7125 32.0933 21.7125 32.093 21.7125C32.0927 21.7125 32.0924 21.7125 32.0921 21.7125C32.0918 21.7125 32.0915 21.7125 32.0912 21.7125C32.0909 21.7125 32.0906 21.7125 32.0903 21.7125C32.09 21.7125 32.0897 21.7125 32.0895 21.7125C32.0892 21.7125 32.0889 21.7125 32.0886 21.7125C32.0883 21.7125 32.088 21.7125 32.0877 21.7125C32.0874 21.7125 32.0871 21.7125 32.0868 21.7125C32.0865 21.7125 32.0862 21.7125 32.0859 21.7125C32.0856 21.7125 32.0854 21.7125 32.0851 21.7125C32.0848 21.7125 32.0845 21.7125 32.0842 21.7125C32.0839 21.7125 32.0836 21.7125 32.0833 21.7125C32.083 21.7125 32.0827 21.7125 32.0824 21.7125C32.0821 21.7125 32.0818 21.7125 32.0815 21.7125C32.0813 21.7125 32.081 21.7125 32.0807 21.7125C32.0804 21.7125 32.0801 21.7125 32.0798 21.7125C32.0795 21.7125 32.0792 21.7125 32.0789 21.7125C32.0786 21.7125 32.0783 21.7125 32.078 21.7125C32.0777 21.7125 32.0774 21.7125 32.0771 21.7125C32.0769 21.7125 32.0766 21.7125 32.0763 21.7125C32.076 21.7125 32.0757 21.7125 32.0754 21.7125C32.0751 21.7125 32.0748 21.7125 32.0745 21.7125C32.0742 21.7125 32.0739 21.7125 32.0736 21.7125C32.0733 21.7125 32.073 21.7125 32.0728 21.7125C32.0725 21.7125 32.0722 21.7125 32.0719 21.7125C32.0716 21.7125 32.0713 21.7125 32.071 21.7125C32.0707 21.7125 32.0704 21.7125 32.0701 21.7125C32.0698 21.7125 32.0695 21.7125 32.0692 21.7125C32.0689 21.7125 32.0687 21.7125 32.0684 21.7125C32.0681 21.7125 32.0678 21.7125 32.0675 21.7125C32.0672 21.7125 32.0669 21.7125 32.0666 21.7125C32.0663 21.7125 32.066 21.7125 32.0657 21.7125C32.0654 21.7125 32.0651 21.7125 32.0648 21.7125C32.0646 21.7125 32.0643 21.7125 32.064 21.7125C32.0637 21.7125 32.0634 21.7125 32.0631 21.7125C32.0628 21.7125 32.0625 21.7125 32.0622 21.7125C32.0619 21.7125 32.0616 21.7125 32.0613 21.7125C32.061 21.7125 32.0607 21.7125 32.0604 21.7125C32.0602 21.7125 32.0599 21.7125 32.0596 21.7125C32.0593 21.7125 32.059 21.7125 32.0587 21.7125C32.0584 21.7125 32.0581 21.7125 32.0578 21.7125C32.0575 21.7125 32.0572 21.7125 32.0569 21.7125C32.0566 21.7125 32.0563 21.7125 32.0561 21.7125C32.0558 21.7125 32.0555 21.7125 32.0552 21.7125C32.0549 21.7125 32.0546 21.7125 32.0543 21.7125C32.054 21.7125 32.0537 21.7125 32.0534 21.7125C32.0531 21.7125 32.0528 21.7125 32.0525 21.7125C32.0522 21.7125 32.052 21.7125 32.0517 21.7125C32.0514 21.7125 32.0511 21.7125 32.0508 21.7125C32.0505 21.7125 32.0502 21.7125 32.0499 21.7125C32.0496 21.7125 32.0493 21.7125 32.049 21.7125C32.0487 21.7125 32.0484 21.7125 32.0481 21.7125C32.0479 21.7125 32.0476 21.7125 32.0473 21.7125C32.047 21.7125 32.0467 21.7125 32.0464 21.7125C32.0461 21.7125 32.0458 21.7125 32.0455 21.7125C32.0452 21.7125 32.0449 21.7125 32.0446 21.7125C32.0443 21.7125 32.044 21.7125 32.0438 21.7125C32.0435 21.7125 32.0432 21.7125 32.0429 21.7125C32.0426 21.7125 32.0423 21.7125 32.042 21.7125C32.0417 21.7125 32.0414 21.7125 32.0411 21.7125C32.0408 21.7125 32.0405 21.7125 32.0402 21.7125C32.0399 21.7125 32.0396 21.7125 32.0394 21.7125C32.0391 21.7125 32.0388 21.7125 32.0385 21.7125C32.0382 21.7125 32.0379 21.7125 32.0376 21.7125C32.0373 21.7125 32.037 21.7125 32.0367 21.7125C32.0364 21.7125 32.0361 21.7125 32.0358 21.7125C32.0355 21.7125 32.0353 21.7125 32.035 21.7125C32.0347 21.7125 32.0344 21.7125 32.0341 21.7125C32.0338 21.7125 32.0335 21.7125 32.0332 21.7125C32.0329 21.7125 32.0326 21.7125 32.0323 21.7125C32.032 21.7125 32.0317 21.7125 32.0314 21.7125C32.0312 21.7125 32.0309 21.7125 32.0306 21.7125C32.0303 21.7125 32.03 21.7125 32.0297 21.7125C32.0294 21.7125 32.0291 21.7125 32.0288 21.7125C32.0285 21.7125 32.0282 21.7125 32.0279 21.7125C32.0276 21.7125 32.0273 21.7125 32.0271 21.7125C32.0268 21.7125 32.0265 21.7125 32.0262 21.7125C32.0259 21.7125 32.0256 21.7125 32.0253 21.7125C32.025 21.7125 32.0247 21.7125 32.0244 21.7125C32.0241 21.7125 32.0238 21.7125 32.0235 21.7125C32.0232 21.7125 32.0229 21.7125 32.0227 21.7125C32.0224 21.7125 32.0221 21.7125 32.0218 21.7125C32.0215 21.7125 32.0212 21.7125 32.0209 21.7125C32.0206 21.7125 32.0203 21.7125 32.02 21.7125C32.0197 21.7125 32.0194 21.7125 32.0191 21.7125C32.0188 21.7125 32.0186 21.7125 32.0183 21.7125C32.018 21.7125 32.0177 21.7125 32.0174 21.7125C32.0171 21.7125 32.0168 21.7125 32.0165 21.7125C32.0162 21.7125 32.0159 21.7125 32.0156 21.7125C32.0153 21.7125 32.015 21.7125 32.0147 21.7125C32.0145 21.7125 32.0142 21.7125 32.0139 21.7125C32.0136 21.7125 32.0133 21.7125 32.013 21.7125C32.0127 21.7125 32.0124 21.7125 32.0121 21.7125C32.0118 21.7125 32.0115 21.7125 32.0112 21.7125C32.0109 21.7125 32.0106 21.7125 32.0104 21.7125C32.0101 21.7125 32.0098 21.7125 32.0095 21.7125C32.0092 21.7125 32.0089 21.7125 32.0086 21.7125C32.0083 21.7125 32.008 21.7125 32.0077 21.7125C32.0074 21.7125 32.0071 21.7125 32.0068 21.7125C32.0065 21.7125 32.0063 21.7125 32.006 21.7125C32.0057 21.7125 32.0054 21.7125 32.0051 21.7125C32.0048 21.7125 32.0045 21.7125 32.0042 21.7125C32.0039 21.7125 32.0036 21.7125 32.0033 21.7125C32.003 21.7125 32.0027 21.7125 32.0024 21.7125C32.0021 21.7125 32.0019 21.7125 32.0016 21.7125C32.0013 21.7125 32.001 21.7125 32.0007 21.7125C32.0004 21.7125 32.0001 21.7125 31.9998 21.7125C31.9995 21.7125 31.9992 21.7125 31.9989 21.7125C31.9986 21.7125 31.9983 21.7125 31.998 21.7125C31.9978 21.7125 31.9975 21.7125 31.9972 21.7125C31.9969 21.7125 31.9966 21.7125 31.9963 21.7125C31.996 21.7125 31.9957 21.7125 31.9954 21.7125C31.9951 21.7125 31.9948 21.7125 31.9945 21.7125C31.9942 21.7125 31.9939 21.7125 31.9937 21.7125C31.9934 21.7125 31.9931 21.7125 31.9928 21.7125C31.9925 21.7125 31.9922 21.7125 31.9919 21.7125C31.9916 21.7125 31.9913 21.7125 31.991 21.7125C31.9907 21.7125 31.9904 21.7125 31.9901 21.7125C31.9898 21.7125 31.9896 21.7125 31.9893 21.7125C31.989 21.7125 31.9887 21.7125 31.9884 21.7125C31.9881 21.7125 31.9878 21.7125 31.9875 21.7125V22.4625ZM32.4375 22.4625V23.2125C32.5863 23.2125 32.6962 23.2569 32.8072 23.3678L33.3375 22.8375L33.8678 22.3072C33.4788 21.9181 32.9887 21.7125 32.4375 21.7125V22.4625ZM33.3375 22.8375L32.8626 23.418C32.9527 23.4917 33 23.5731 33 23.7375H33.75H34.5C34.5 23.1519 34.2723 22.6333 33.8124 22.257L33.3375 22.8375ZM33.75 23.7375H33V32.2875H33.75H34.5V23.7375H33.75ZM33.75 32.2875H33C33 32.9739 32.7237 33.4953 32.0965 33.9135L32.5125 34.5375L32.9285 35.1615C33.9513 34.4797 34.5 33.5011 34.5 32.2875H33.75ZM32.5125 34.5375L32.101 33.9105C31.5137 34.2959 30.9265 34.3517 30.251 34.0702L29.9625 34.7625L29.674 35.4548C30.7985 35.9233 31.9113 35.8291 32.924 35.1645L32.5125 34.5375ZM29.9625 34.7625L30.2611 34.0745L24.2986 31.487L24 32.175L23.7014 32.863L29.6639 35.4505L29.9625 34.7625Z" fill="white"/>
</svg>
