<svg width="10" height="12" viewBox="0 0 10 12" fill="none" xmlns="http://www.w3.org/2000/svg">
<path d="M1.05002 11.1996C0.758358 11.1996 0.510441 11.0975 0.306275 10.8934C0.102108 10.6795 2.44975e-05 10.4316 2.44975e-05 10.1496V2.44961C2.44975e-05 2.16766 0.102108 1.92461 0.306275 1.72044C0.510441 1.50655 0.758358 1.39961 1.05002 1.39961H2.10002V0.524608C2.10002 0.378775 2.14864 0.257247 2.24586 0.160026C2.3528 0.0530811 2.47919 -0.000391126 2.62502 -0.000391126C2.77086 -0.000391126 2.89239 0.0530811 2.98961 0.160026C3.09655 0.257247 3.15002 0.378775 3.15002 0.524608V1.39961H6.65003V0.524608C6.65003 0.378775 6.69864 0.257247 6.79586 0.160026C6.9028 0.0530811 7.02919 -0.000391126 7.17502 -0.000391126C7.32086 -0.000391126 7.44239 0.0530811 7.53961 0.160026C7.64655 0.257247 7.70003 0.378775 7.70003 0.524608V1.39961H8.75002C9.04169 1.39961 9.28961 1.50655 9.49378 1.72044C9.69794 1.92461 9.80002 2.16766 9.80002 2.44961V10.1496C9.80002 10.4316 9.69794 10.6795 9.49378 10.8934C9.28961 11.0975 9.04169 11.1996 8.75002 11.1996H1.05002ZM1.05002 10.1496H8.75002V4.89961H1.05002V10.1496ZM1.05002 3.84961H8.75002V2.44961H1.05002V3.84961ZM1.05002 3.84961V2.44961V3.84961Z" fill="black" fill-opacity="0.6"/>
</svg>
