<svg width="18" height="18" viewBox="0 0 18 18" fill="none" xmlns="http://www.w3.org/2000/svg">
<path d="M16.95 18C14.8667 18 12.8083 17.55 10.775 16.65C8.74167 15.7333 6.89167 14.4417 5.225 12.775C3.55833 11.1083 2.26667 9.25833 1.35 7.225C0.45 5.19167 0 3.13333 0 1.05C0 0.749999 0.1 0.499999 0.3 0.299998C0.5 0.0999985 0.75 -1.43051e-06 1.05 -1.43051e-06H5.1C5.33333 -1.43051e-06 5.54167 0.0833321 5.725 0.249999C5.90833 0.399999 6.01667 0.583332 6.05 0.799999L6.7 4.3C6.73333 4.56667 6.725 4.79167 6.675 4.975C6.625 5.15833 6.53333 5.31667 6.4 5.45L3.975 7.9C4.30833 8.51667 4.7 9.11667 5.15 9.7C5.61667 10.2667 6.125 10.8167 6.675 11.35C7.19167 11.8667 7.73333 12.35 8.3 12.8C8.86667 13.2333 9.46667 13.6333 10.1 14L12.45 11.65C12.6 11.5 12.7917 11.3917 13.025 11.325C13.275 11.2417 13.5167 11.2167 13.75 11.25L17.2 11.95C17.4333 12.0167 17.625 12.1417 17.775 12.325C17.925 12.4917 18 12.6833 18 12.9V16.95C18 17.25 17.9 17.5 17.7 17.7C17.5 17.9 17.25 18 16.95 18ZM3.025 6L4.675 4.35L4.25 2H2.025C2.10833 2.68333 2.225 3.35833 2.375 4.025C2.525 4.69167 2.74167 5.35 3.025 6ZM11.975 14.95C12.625 15.2333 13.2833 15.4583 13.95 15.625C14.6333 15.7917 15.3167 15.9 16 15.95V13.75L13.65 13.275L11.975 14.95Z" fill="#0E9FCA"/>
</svg>
