<svg width="29" height="24" viewBox="0 0 29 24" fill="none" xmlns="http://www.w3.org/2000/svg">
<path d="M6.16665 10.0667L4.59998 10.9667C4.28887 11.1444 3.95554 11.1889 3.59998 11.1C3.24443 11.0111 2.98887 10.8111 2.83332 10.5L0.26665 6.06667C0.0888727 5.75555 0.0444283 5.44444 0.133317 5.13333C0.222206 4.82222 0.422206 4.57778 0.733317 4.4L8.36665 -1.90735e-06H10.6333C10.8555 -1.90735e-06 11.0222 0.066665 11.1333 0.199999C11.2667 0.333331 11.3333 0.499998 11.3333 0.699999V1.33333C11.3333 2.08889 11.6 2.73333 12.1333 3.26666C12.6667 3.8 13.3111 4.06667 14.0667 4.06667C14.8444 4.06667 15.4889 3.8 16 3.26666C16.5333 2.73333 16.8 2.08889 16.8 1.33333V0.699999C16.8 0.499998 16.8667 0.333331 17 0.199999C17.1333 0.066665 17.3 -1.90735e-06 17.5 -1.90735e-06H19.7667L27.4333 4.4C27.7222 4.57778 27.9111 4.82222 28 5.13333C28.0889 5.44444 28.0444 5.75555 27.8667 6.06667L25.3 10.5C25.1444 10.8111 24.8778 11.0111 24.5 11.1C24.1444 11.1667 23.8111 11.1222 23.5 10.9667L21.9333 10.0667V22.6667C21.9333 23.0444 21.8 23.3667 21.5333 23.6333C21.2667 23.8778 20.9555 24 20.6 24H7.49998C7.12221 24 6.79998 23.8778 6.53332 23.6333C6.28887 23.3667 6.16665 23.0444 6.16665 22.6667V10.0667Z" fill="#F287CE"/>
</svg>
