<svg width="27" height="22" viewBox="0 0 27 22" fill="none" xmlns="http://www.w3.org/2000/svg">
<path d="M-8.13007e-05 21.3332V17.6665H2.66659V2.43317C2.66659 1.7665 2.89992 1.19984 3.36659 0.73317C3.85547 0.24428 4.43325 -0.000164032 5.09992 -0.000164032H25.3333V2.43317H5.09992V17.6665H13.0999V21.3332H-8.13007e-05ZM16.7666 21.3332C16.4333 21.3332 16.1444 21.2221 15.8999 20.9998C15.6777 20.7554 15.5666 20.4554 15.5666 20.0998V6.09984C15.5666 5.7665 15.6777 5.48873 15.8999 5.2665C16.1444 5.02206 16.4333 4.89984 16.7666 4.89984H25.4333C25.7888 4.89984 26.0777 5.02206 26.2999 5.2665C26.5444 5.48873 26.6666 5.7665 26.6666 6.09984V20.0998C26.6666 20.4554 26.5444 20.7554 26.2999 20.9998C26.0777 21.2221 25.7888 21.3332 25.4333 21.3332H16.7666Z" fill="#396DBB"/>
</svg>
