<svg width="27" height="24" viewBox="0 0 27 24" fill="none" xmlns="http://www.w3.org/2000/svg">
<path d="M2.43325 24C1.76659 24 1.18881 23.7667 0.699919 23.3C0.233252 22.8111 -8.13007e-05 22.2333 -8.13007e-05 21.5667V2.43333C-8.13007e-05 1.76667 0.233252 1.2 0.699919 0.733332C1.18881 0.244443 1.76659 -1.90735e-06 2.43325 -1.90735e-06H24.2333C24.8999 -1.90735e-06 25.4666 0.244443 25.9333 0.733332C26.4221 1.2 26.6666 1.76667 26.6666 2.43333V21.5667C26.6666 22.2333 26.4221 22.8111 25.9333 23.3C25.4666 23.7667 24.8999 24 24.2333 24H2.43325ZM5.43325 18.6H21.2333V16.1667H5.43325V18.6ZM5.43325 13.2H10.6999V5.4H5.43325V13.2ZM13.6333 13.2H21.2333V10.7667H13.6333V13.2ZM13.6333 7.83333H21.2333V5.4H13.6333V7.83333Z" fill="#E49E49"/>
</svg>
