<svg width="24" height="22" viewBox="0 0 24 22" fill="none" xmlns="http://www.w3.org/2000/svg">
<path d="M3.56667 18.6335V20.1002C3.56667 20.4557 3.44444 20.7557 3.2 21.0002C2.97778 21.2224 2.68889 21.3335 2.33333 21.3335H1.23333C0.877778 21.3335 0.577778 21.2224 0.333333 21.0002C0.111111 20.7557 0 20.4557 0 20.1002V9.40016L2.8 1.2335C2.93333 0.855717 3.15556 0.555717 3.46667 0.333494C3.77778 0.111273 4.13333 0.000162125 4.53333 0.000162125H19.4667C19.8667 0.000162125 20.2222 0.111273 20.5333 0.333494C20.8444 0.555717 21.0667 0.855717 21.2 1.2335L24 9.40016V20.1002C24 20.4557 23.8778 20.7557 23.6333 21.0002C23.4111 21.2224 23.1222 21.3335 22.7667 21.3335H21.6667C21.3111 21.3335 21.0111 21.2224 20.7667 21.0002C20.5444 20.7557 20.4333 20.4557 20.4333 20.1002V18.6335H3.56667ZM3.4 6.96683H20.6L19.0333 2.43349H4.96667L3.4 6.96683ZM5.83333 14.7335C6.38889 14.7335 6.84444 14.5446 7.2 14.1668C7.57778 13.7891 7.76667 13.3335 7.76667 12.8002C7.76667 12.2668 7.57778 11.8113 7.2 11.4335C6.84444 11.0335 6.38889 10.8335 5.83333 10.8335C5.3 10.8335 4.84444 11.0335 4.46667 11.4335C4.08889 11.8113 3.9 12.2668 3.9 12.8002C3.9 13.3335 4.08889 13.7891 4.46667 14.1668C4.84444 14.5446 5.3 14.7335 5.83333 14.7335ZM18.1667 14.7335C18.7 14.7335 19.1556 14.5446 19.5333 14.1668C19.9333 13.7891 20.1333 13.3335 20.1333 12.8002C20.1333 12.2668 19.9333 11.8113 19.5333 11.4335C19.1556 11.0335 18.7 10.8335 18.1667 10.8335C17.6333 10.8335 17.1778 11.0335 16.8 11.4335C16.4222 11.8113 16.2333 12.2668 16.2333 12.8002C16.2333 13.3335 16.4222 13.7891 16.8 14.1668C17.1778 14.5446 17.6333 14.7335 18.1667 14.7335Z" fill="#E5D400"/>
</svg>
