<svg width="30" height="24" viewBox="0 0 30 24" fill="none" xmlns="http://www.w3.org/2000/svg">
<path d="M5.26675 24C4.91119 24 4.61119 23.8889 4.36675 23.6667C4.14453 23.4222 4.03341 23.1333 4.03341 22.8V21.4333H3.83342C2.74453 21.4333 1.83341 21.0556 1.10008 20.3C0.366748 19.5222 8.14199e-05 18.6 8.14199e-05 17.5333V10.4C8.14199e-05 9.68889 0.244526 9.07778 0.733415 8.56667C1.24453 8.03333 1.85564 7.76667 2.56675 7.76667C3.27786 7.76667 3.87786 8.03333 4.36675 8.56667C4.87786 9.07778 5.13342 9.68889 5.13342 10.4V15.8667H24.2001V10.4C24.2001 9.68889 24.4445 9.07778 24.9334 8.56667C25.4445 8.03333 26.0556 7.76667 26.7668 7.76667C27.4779 7.76667 28.0779 8.03333 28.5667 8.56667C29.0779 9.07778 29.3334 9.68889 29.3334 10.4V17.5333C29.3334 18.6 28.9667 19.5222 28.2334 20.3C27.5001 21.0556 26.6001 21.4333 25.5334 21.4333H25.3001V22.8C25.3001 23.1333 25.1779 23.4222 24.9334 23.6667C24.7112 23.8889 24.4223 24 24.0667 24C23.7334 24 23.4445 23.8889 23.2001 23.6667C22.9779 23.4222 22.8667 23.1333 22.8667 22.8V21.4333H6.46675V22.8C6.46675 23.1333 6.34453 23.4222 6.10008 23.6667C5.87786 23.8889 5.60008 24 5.26675 24ZM7.56675 13.4333V10.4C7.56675 9.22222 7.2223 8.17778 6.53342 7.26667C5.84453 6.33333 4.94453 5.7 3.83342 5.36666V3.8C3.83342 2.75555 4.18897 1.86666 4.90008 1.13333C5.63341 0.377776 6.5223 -1.90735e-06 7.56675 -1.90735e-06H21.7667C22.8112 -1.90735e-06 23.7001 0.377776 24.4334 1.13333C25.1667 1.86666 25.5334 2.75555 25.5334 3.8V5.36666C24.4001 5.65555 23.489 6.26667 22.8001 7.2C22.1112 8.13333 21.7667 9.2 21.7667 10.4V13.4333H7.56675Z" fill="#ADB94F"/>
</svg>
