<svg width="20" height="19" viewBox="0 0 20 19" fill="none" xmlns="http://www.w3.org/2000/svg">
<path d="M4 16L1.7 18.3C1.38333 18.6167 1.01667 18.6917 0.6 18.525C0.2 18.3417 5.96046e-08 18.025 5.96046e-08 17.575V2C5.96046e-08 1.45 0.191667 0.983332 0.575 0.599999C0.975 0.199999 1.45 -4.76837e-07 2 -4.76837e-07H18C18.55 -4.76837e-07 19.0167 0.199999 19.4 0.599999C19.8 0.983332 20 1.45 20 2V14C20 14.55 19.8 15.025 19.4 15.425C19.0167 15.8083 18.55 16 18 16H4ZM3.15 14H18V2H2V15.125L3.15 14ZM2 14V2V14ZM5 12H11C11.2833 12 11.5167 11.9083 11.7 11.725C11.9 11.525 12 11.2833 12 11C12 10.7167 11.9 10.4833 11.7 10.3C11.5167 10.1 11.2833 10 11 10H5C4.71667 10 4.475 10.1 4.275 10.3C4.09167 10.4833 4 10.7167 4 11C4 11.2833 4.09167 11.525 4.275 11.725C4.475 11.9083 4.71667 12 5 12ZM5 9H15C15.2833 9 15.5167 8.90833 15.7 8.725C15.9 8.525 16 8.28333 16 8C16 7.71667 15.9 7.48333 15.7 7.3C15.5167 7.1 15.2833 7 15 7H5C4.71667 7 4.475 7.1 4.275 7.3C4.09167 7.48333 4 7.71667 4 8C4 8.28333 4.09167 8.525 4.275 8.725C4.475 8.90833 4.71667 9 5 9ZM5 6H15C15.2833 6 15.5167 5.90833 15.7 5.725C15.9 5.525 16 5.28333 16 5C16 4.71667 15.9 4.48333 15.7 4.3C15.5167 4.1 15.2833 4 15 4H5C4.71667 4 4.475 4.1 4.275 4.3C4.09167 4.48333 4 4.71667 4 5C4 5.28333 4.09167 5.525 4.275 5.725C4.475 5.90833 4.71667 6 5 6Z" fill="#DD8A00"/>
</svg>
