<svg width="20" height="20" viewBox="0 0 20 20" fill="none" xmlns="http://www.w3.org/2000/svg">
<path d="M1.16336 11.4806C1.33385 12.1316 1.56634 12.7671 1.86083 13.387L0.65188 17.5021C0.543384 17.8276 0.605381 18.1143 0.837871 18.3623C1.08586 18.5948 1.3726 18.6568 1.69808 18.5483L5.81316 17.3394C6.43313 17.6339 7.0686 17.8663 7.71957 18.0368C8.38604 18.1918 9.06801 18.2693 9.76548 18.2693C10.9899 18.2693 12.1369 18.0368 13.2063 17.5719C14.2913 17.1069 15.229 16.4792 16.0195 15.6887C16.8099 14.8982 17.4376 13.9683 17.9026 12.8988C18.3676 11.8139 18.6001 10.6592 18.6001 9.43471C18.6001 8.21027 18.3676 7.06332 17.9026 5.99386C17.4376 4.90891 16.8099 3.9712 16.0195 3.18074C15.229 2.39027 14.2913 1.76255 13.2063 1.29757C12.1369 0.832588 10.9899 0.600098 9.76548 0.600098C8.54104 0.600098 7.38634 0.832588 6.30138 1.29757C5.23193 1.76255 4.30197 2.39027 3.51151 3.18074C2.72104 3.9712 2.09332 4.90891 1.62834 5.99386C1.16336 7.06332 0.930867 8.21027 0.930867 9.43471C0.930867 10.1322 1.00836 10.8142 1.16336 11.4806Z" stroke="#262626" stroke-width="1.2"/>
<circle cx="6.1001" cy="9.1001" r="1.5" fill="#262626"/>
<circle cx="10.1001" cy="9.1001" r="1.5" fill="#262626"/>
<circle cx="14.1001" cy="9.1001" r="1.5" fill="#262626"/>
</svg>
