<svg width="20" height="20" viewBox="0 0 20 20" fill="none" xmlns="http://www.w3.org/2000/svg">
<path d="M1.16324 11.4801C1.33373 12.1311 1.56622 12.7666 1.8607 13.3866L0.651757 17.5016C0.543262 17.8271 0.605259 18.1138 0.837749 18.3618C1.08574 18.5943 1.37248 18.6563 1.69796 18.5478L5.81303 17.3389C6.43301 17.6334 7.06848 17.8659 7.71945 18.0364C8.38592 18.1913 9.06789 18.2688 9.76536 18.2688C10.9898 18.2688 12.1368 18.0364 13.2062 17.5714C14.2912 17.1064 15.2289 16.4787 16.0193 15.6882C16.8098 14.8977 17.4375 13.9678 17.9025 12.8983C18.3675 11.8134 18.6 10.6587 18.6 9.43423C18.6 8.20978 18.3675 7.06283 17.9025 5.99337C17.4375 4.90842 16.8098 3.97071 16.0193 3.18025C15.2289 2.38978 14.2912 1.76206 13.2062 1.29708C12.1368 0.832099 10.9898 0.599609 9.76536 0.599609C8.54091 0.599609 7.38622 0.832099 6.30126 1.29708C5.23181 1.76206 4.30185 2.38978 3.51138 3.18025C2.72092 3.97071 2.09319 4.90842 1.62821 5.99337C1.16324 7.06283 0.930745 8.20978 0.930745 9.43423C0.930745 10.1317 1.00824 10.8137 1.16324 11.4801Z" stroke="white" stroke-width="1.2"/>
<circle cx="6.09998" cy="9.09961" r="1.5" fill="white"/>
<circle cx="10.1" cy="9.09961" r="1.5" fill="white"/>
<circle cx="14.1" cy="9.09961" r="1.5" fill="white"/>
</svg>
