<svg width="18" height="16" viewBox="0 0 18 16" fill="none" xmlns="http://www.w3.org/2000/svg">
<path d="M9 16C8.79474 16 8.58947 15.9678 8.38421 15.9033C8.17895 15.8228 7.99737 15.7019 7.83947 15.5408L6.48947 14.284C4.8 12.721 3.29211 11.1903 1.96579 9.69184C0.655263 8.17724 0 6.5579 0 4.83384C0 3.46425 0.45 2.32024 1.35 1.40181C2.26579 0.467271 3.39474 0 4.73684 0C5.49474 0 6.24474 0.185297 6.98684 0.555891C7.74474 0.910372 8.41579 1.49043 9 2.29607C9.58421 1.49043 10.2474 0.910372 10.9895 0.555891C11.7474 0.185297 12.5053 0 13.2632 0C14.6053 0 15.7263 0.467271 16.6263 1.40181C17.5421 2.32024 18 3.46425 18 4.83384C18 6.57402 17.3289 8.20947 15.9868 9.74018C14.6447 11.2548 13.1447 12.7774 11.4868 14.3082L10.1605 15.5408C10.0026 15.7019 9.81316 15.8228 9.59211 15.9033C9.38684 15.9678 9.18948 16 9 16Z" fill="#F62D2D"/>
</svg>
