<svg width="18" height="15" viewBox="0 0 18 15" fill="none" xmlns="http://www.w3.org/2000/svg">
<path d="M8.52502 14.7584C8.32641 14.7584 8.13544 14.7278 7.95211 14.6667C7.76877 14.5903 7.60836 14.4834 7.47086 14.3459L6.25627 13.2459C4.60627 11.764 3.14725 10.3202 1.87919 8.91465C0.626413 7.50909 2.45124e-05 6.01187 2.45124e-05 4.42298C2.45124e-05 3.1702 0.427802 2.12368 1.28336 1.2834C2.13891 0.427842 3.20072 6.44922e-05 4.46877 6.44922e-05C5.18683 6.44922e-05 5.89725 0.16812 6.60002 0.504231C7.31808 0.840342 7.95975 1.39034 8.52502 2.15423C9.10558 1.39034 9.74725 0.840342 10.45 0.504231C11.1528 0.16812 11.8632 6.44922e-05 12.5813 6.44922e-05C13.8493 6.44922e-05 14.9111 0.427842 15.7667 1.2834C16.6222 2.12368 17.05 3.1702 17.05 4.42298C17.05 6.02715 16.4007 7.53965 15.1021 8.96048C13.8188 10.3813 12.375 11.8098 10.7709 13.2459L9.57919 14.3459C9.42641 14.4834 9.25836 14.5903 9.07503 14.6667C8.89169 14.7278 8.70836 14.7584 8.52502 14.7584ZM7.90627 3.50631C7.44794 2.74243 6.93614 2.18479 6.37086 1.8334C5.80558 1.46673 5.17155 1.2834 4.46877 1.2834C3.55211 1.2834 2.78822 1.58131 2.17711 2.17715C1.58127 2.77298 1.28336 3.52159 1.28336 4.42298C1.28336 5.15631 1.51252 5.91256 1.97086 6.69173C2.44447 7.4709 3.03266 8.2577 3.73544 9.05215C4.43822 9.83131 5.20211 10.5952 6.02711 11.3438C6.85211 12.0771 7.62364 12.7646 8.34169 13.4063C8.38752 13.4521 8.44864 13.4751 8.52502 13.4751C8.60141 13.4751 8.66253 13.4521 8.70836 13.4063C9.42641 12.7646 10.1979 12.0771 11.0229 11.3438C11.8479 10.5952 12.6118 9.83131 13.3146 9.05215C14.0174 8.2577 14.5979 7.4709 15.0563 6.69173C15.5299 5.91256 15.7667 5.15631 15.7667 4.42298C15.7667 3.52159 15.4611 2.77298 14.85 2.17715C14.2542 1.58131 13.5056 1.2834 12.6042 1.2834C11.9014 1.2834 11.2597 1.46673 10.6792 1.8334C10.0986 2.18479 9.57919 2.74243 9.12086 3.50631C9.05975 3.61326 8.97572 3.69729 8.86877 3.7584C8.76183 3.80423 8.64725 3.82715 8.52502 3.82715C8.4028 3.82715 8.28058 3.80423 8.15836 3.7584C8.05141 3.69729 7.96739 3.61326 7.90627 3.50631Z" fill="black"/>
</svg>
