<svg width="19" height="21" viewBox="0 0 19 21" fill="none" xmlns="http://www.w3.org/2000/svg">
<path d="M-8.12411e-05 18.1995V7.55365C-8.12411e-05 7.20365 0.0776966 6.87309 0.233252 6.56198C0.388808 6.25087 0.612419 5.98837 0.904085 5.77448L7.99159 0.436977C8.38047 0.145311 8.8277 -0.000522614 9.33325 -0.000522614C9.83881 -0.000522614 10.286 0.145311 10.6749 0.436977L17.7624 5.77448C18.0541 5.98837 18.2777 6.25087 18.4333 6.56198C18.5888 6.87309 18.6666 7.20365 18.6666 7.55365V18.1995C18.6666 18.8217 18.443 19.3564 17.9958 19.8036C17.568 20.2314 17.043 20.4453 16.4208 20.4453H12.7749C12.4638 20.4453 12.2013 20.3384 11.9874 20.1245C11.7735 19.9106 11.6666 19.6481 11.6666 19.337V13.387C11.6666 13.0759 11.5596 12.8134 11.3458 12.5995C11.1319 12.3856 10.8694 12.2786 10.5583 12.2786H8.10825C7.79714 12.2786 7.53464 12.3856 7.32075 12.5995C7.10686 12.8134 6.99992 13.0759 6.99992 13.387V19.337C6.99992 19.6481 6.89297 19.9106 6.67909 20.1245C6.4652 20.3384 6.2027 20.4453 5.89159 20.4453H2.24575C1.62353 20.4453 1.08881 20.2314 0.641586 19.8036C0.213808 19.3564 -8.12411e-05 18.8217 -8.12411e-05 18.1995Z" fill="currentColor"/>
</svg>
