<svg width="20" height="20" viewBox="0 0 20 20" fill="none" xmlns="http://www.w3.org/2000/svg">
<path d="M12.5001 12C13.0668 12 13.5918 11.9 14.0751 11.7C14.5584 11.4833 14.9918 11.1917 15.3751 10.825C15.6751 10.5417 15.9334 10.2167 16.1501 9.85C16.3668 9.46667 16.5168 9.05833 16.6001 8.625C16.6334 8.45833 16.5918 8.31667 16.4751 8.2C16.3751 8.06667 16.2418 8.01667 16.0751 8.05C15.6418 8.11667 15.2251 8.25 14.8251 8.45C14.4418 8.65 14.1001 8.89167 13.8001 9.175C13.4168 9.54167 13.1084 9.96667 12.8751 10.45C12.6584 10.9333 12.5334 11.45 12.5001 12ZM12.5001 12C12.4668 11.45 12.3334 10.9333 12.1001 10.45C11.8834 9.96667 11.5834 9.54167 11.2001 9.175C10.9001 8.89167 10.5501 8.65 10.1501 8.45C9.76676 8.25 9.35843 8.11667 8.9251 8.05C8.75843 8.01667 8.61676 8.06667 8.5001 8.2C8.4001 8.31667 8.36676 8.45833 8.4001 8.625C8.48343 9.05833 8.63343 9.46667 8.8501 9.85C9.06677 10.2167 9.3251 10.5417 9.6251 10.825C10.0084 11.1917 10.4418 11.4833 10.9251 11.7C11.4084 11.9 11.9334 12 12.5001 12ZM12.5001 9C12.7834 9 13.0168 8.90833 13.2001 8.725C13.4001 8.525 13.5001 8.28333 13.5001 8V7.75L13.7501 7.85C14.0001 7.95 14.2501 7.975 14.5001 7.925C14.7668 7.875 14.9668 7.73333 15.1001 7.5C15.2501 7.25 15.3001 6.98333 15.2501 6.7C15.2001 6.41667 15.0334 6.21667 14.7501 6.1L14.5001 6L14.7501 5.9C15.0334 5.78333 15.1918 5.58333 15.2251 5.3C15.2751 5 15.2334 4.73333 15.1001 4.5C14.9501 4.25 14.7501 4.10833 14.5001 4.075C14.2501 4.025 14.0001 4.05 13.7501 4.15L13.5001 4.25V4C13.5001 3.71667 13.4001 3.48333 13.2001 3.3C13.0168 3.1 12.7834 3 12.5001 3C12.2168 3 11.9751 3.1 11.7751 3.3C11.5918 3.48333 11.5001 3.71667 11.5001 4V4.25L11.2501 4.15C11.0001 4.05 10.7501 4.025 10.5001 4.075C10.2501 4.10833 10.0501 4.25 9.9001 4.5C9.76676 4.73333 9.71676 5 9.7501 5.3C9.8001 5.58333 9.96676 5.78333 10.2501 5.9L10.5001 6L10.2501 6.1C9.96676 6.21667 9.8001 6.41667 9.7501 6.7C9.7001 6.98333 9.7501 7.25 9.9001 7.5C10.0334 7.73333 10.2251 7.875 10.4751 7.925C10.7418 7.975 11.0001 7.95 11.2501 7.85L11.5001 7.75V8C11.5001 8.28333 11.5918 8.525 11.7751 8.725C11.9751 8.90833 12.2168 9 12.5001 9ZM12.5001 7C12.2168 7 11.9751 6.90833 11.7751 6.725C11.5918 6.525 11.5001 6.28333 11.5001 6C11.5001 5.71667 11.5918 5.48333 11.7751 5.3C11.9751 5.1 12.2168 5 12.5001 5C12.7834 5 13.0168 5.1 13.2001 5.3C13.4001 5.48333 13.5001 5.71667 13.5001 6C13.5001 6.28333 13.4001 6.525 13.2001 6.725C13.0168 6.90833 12.7834 7 12.5001 7ZM6.9751 15C6.4251 15 5.9501 14.8083 5.5501 14.425C5.16676 14.025 4.9751 13.55 4.9751 13V2C4.9751 1.45 5.16676 0.983332 5.5501 0.599999C5.9501 0.199999 6.4251 -4.76837e-07 6.9751 -4.76837e-07H17.9751C18.5251 -4.76837e-07 18.9918 0.199999 19.3751 0.599999C19.7751 0.983332 19.9751 1.45 19.9751 2V13C19.9751 13.55 19.7751 14.025 19.3751 14.425C18.9918 14.8083 18.5251 15 17.9751 15H6.9751ZM6.9751 13H17.9751V2H6.9751V13ZM3.6751 19.875C3.1251 19.9417 2.6251 19.8083 2.1751 19.475C1.74176 19.1417 1.49176 18.7 1.4251 18.15L0.100098 7.225C0.0334311 6.675 0.175098 6.18333 0.525098 5.75C0.875098 5.31667 1.3251 5.05833 1.8751 4.975H1.9251C2.20843 4.925 2.45843 5 2.6751 5.2C2.90843 5.4 3.0251 5.65 3.0251 5.95C3.0251 6.2 2.93343 6.41667 2.7501 6.6C2.58343 6.78333 2.3751 6.9 2.1251 6.95H2.1001L3.4501 17.9L15.3001 16.45C15.5834 16.4167 15.8334 16.4833 16.0501 16.65C16.2668 16.8167 16.3918 17.0417 16.4251 17.325C16.4584 17.6083 16.3918 17.8583 16.2251 18.075C16.0584 18.275 15.8334 18.3917 15.5501 18.425L3.6751 19.875Z" fill="#617188"/>
</svg>
