<svg width="21" height="20" viewBox="0 0 21 20" fill="none" xmlns="http://www.w3.org/2000/svg">
<path d="M6 20C5.45 20 4.975 19.8083 4.575 19.425C4.19167 19.025 4 18.55 4 18C4 17.45 4.19167 16.9833 4.575 16.6C4.975 16.2 5.45 16 6 16C6.55 16 7.01667 16.2 7.4 16.6C7.8 16.9833 8 17.45 8 18C8 18.55 7.8 19.025 7.4 19.425C7.01667 19.8083 6.55 20 6 20ZM16 20C15.45 20 14.975 19.8083 14.575 19.425C14.1917 19.025 14 18.55 14 18C14 17.45 14.1917 16.9833 14.575 16.6C14.975 16.2 15.45 16 16 16C16.55 16 17.0167 16.2 17.4 16.6C17.8 16.9833 18 17.45 18 18C18 18.55 17.8 19.025 17.4 19.425C17.0167 19.8083 16.55 20 16 20ZM5.15 4L7.55 9H14.55L17.3 4H5.15ZM4.2 2H18.95C19.3333 2 19.625 2.175 19.825 2.525C20.025 2.85833 20.0333 3.2 19.85 3.55L16.3 9.95C16.1167 10.2833 15.8667 10.5417 15.55 10.725C15.25 10.9083 14.9167 11 14.55 11H7.1L6 13H17C17.2833 13 17.5167 13.1 17.7 13.3C17.9 13.4833 18 13.7167 18 14C18 14.2833 17.9 14.525 17.7 14.725C17.5167 14.9083 17.2833 15 17 15H6C5.25 15 4.68333 14.675 4.3 14.025C3.91667 13.3583 3.9 12.7 4.25 12.05L5.6 9.6L2 2H1C0.716667 2 0.475 1.90833 0.275 1.725C0.0916667 1.525 2.98023e-08 1.28333 2.98023e-08 0.999999C2.98023e-08 0.716666 0.0916667 0.483333 0.275 0.299999C0.475 0.0999994 0.716667 -4.76837e-07 1 -4.76837e-07H2.625C2.80833 -4.76837e-07 2.98333 0.0499992 3.15 0.149999C3.31667 0.249999 3.44167 0.391666 3.525 0.574999L4.2 2ZM7.55 9H14.55H7.55Z" fill="#21357C"/>
</svg>
