<svg width="54" height="38" viewBox="0 0 54 38" fill="none" xmlns="http://www.w3.org/2000/svg">
<path d="M25.6667 16.5327L20.1334 22.066C19.9556 22.2882 19.7112 22.3993 19.4001 22.3993C19.1334 22.3993 18.9112 22.3105 18.7334 22.1327C18.5112 21.9105 18.4001 21.666 18.4001 21.3993C18.4001 21.0882 18.5112 20.8216 18.7334 20.5993L25.4001 13.9327C25.7556 13.5771 26.1779 13.3993 26.6667 13.3993C27.1556 13.3993 27.5779 13.5771 27.9334 13.9327L34.6668 20.5993C34.8445 20.8216 34.9334 21.0882 34.9334 21.3993C34.9779 21.666 34.889 21.8882 34.6668 22.066C34.4445 22.2882 34.1779 22.3771 33.8667 22.3327C33.6001 22.2882 33.3556 22.1771 33.1334 21.9993L27.6667 16.5327V33.666C27.6667 34.066 27.8445 34.4438 28.2001 34.7993C28.5556 35.1105 28.9334 35.266 29.3334 35.266H44.3334C46.2445 35.266 47.8668 34.5993 49.2001 33.266C50.5779 31.8882 51.2668 30.2438 51.2668 28.3327C51.2668 26.4216 50.5779 24.7993 49.2001 23.466C47.8668 22.0882 46.2445 21.3993 44.3334 21.3993H40.2001V15.9327C40.2001 12.1549 38.889 8.91046 36.2668 6.19935C33.6445 3.44379 30.4223 2.06601 26.6001 2.06601C22.8223 2.06601 19.6001 3.44379 16.9334 6.19935C14.2667 8.91046 12.9334 12.1549 12.9334 15.9327H11.5334C8.95564 15.9327 6.73342 16.866 4.86675 18.7327C3.00008 20.5993 2.06675 22.9105 2.06675 25.666C2.06675 28.2882 3.00008 30.5549 4.86675 32.466C6.73342 34.3327 9.00008 35.266 11.6667 35.266H18.5334C18.8445 35.266 19.089 35.3771 19.2667 35.5993C19.489 35.7771 19.6001 36.0216 19.6001 36.3327C19.6001 36.5993 19.489 36.8438 19.2667 37.066C19.089 37.2438 18.8445 37.3327 18.5334 37.3327H11.6667C8.4223 37.3327 5.66675 36.1993 3.40008 33.9327C1.13341 31.6216 8.15392e-05 28.8438 8.15392e-05 25.5993C8.15392e-05 22.4882 1.11119 19.7771 3.33342 17.466C5.55564 15.1549 8.15564 13.9549 11.1334 13.866C11.6223 9.91046 13.3334 6.62157 16.2667 3.99935C19.2445 1.33268 22.7334 -0.000652313 26.7334 -0.000652313C31.1334 -0.000652313 34.8223 1.5549 37.8001 4.66601C40.7779 7.77712 42.2668 11.5327 42.2668 15.9327V19.3327H43.9334C46.5556 19.2438 48.7779 20.066 50.6001 21.7993C52.4223 23.4882 53.3334 25.666 53.3334 28.3327C53.3334 30.8216 52.4667 32.9549 50.7334 34.7327C49.0001 36.466 46.889 37.3327 44.4001 37.3327H29.3334C28.3112 37.3327 27.4445 36.9771 26.7334 36.266C26.0223 35.5549 25.6667 34.6882 25.6667 33.666V16.5327Z" fill="#0000FF"/>
</svg>
