<svg width="12" height="10" viewBox="0 0 12 10" fill="none" xmlns="http://www.w3.org/2000/svg">
<path d="M3.04796 9.80039C2.70768 9.80039 2.39171 9.72747 2.10004 9.58164C1.8181 9.43581 1.54101 9.2122 1.26879 8.91081C0.87018 8.47331 0.559069 7.94831 0.335457 7.33581C0.111846 6.72331 4.07249e-05 6.09622 4.07249e-05 5.45456C4.07249e-05 4.70595 0.145874 4.00108 0.437541 3.33997C0.73893 2.67886 1.1424 2.10039 1.64796 1.60456C2.16324 1.10872 2.76115 0.719834 3.44171 0.43789C4.12226 0.146224 4.84657 0.000390291 5.61462 0.000390291C6.3924 0.000390291 7.11671 0.146224 7.78754 0.43789C8.4681 0.729557 9.06115 1.12817 9.56671 1.63372C10.082 2.13928 10.4855 2.73233 10.7771 3.41289C11.0688 4.08372 11.2146 4.80317 11.2146 5.57122C11.2146 6.2615 11.0931 6.90803 10.85 7.51081C10.6167 8.11358 10.2813 8.624 9.84379 9.04206C9.58129 9.29483 9.30907 9.48442 9.02712 9.61081C8.74518 9.7372 8.45837 9.80039 8.16671 9.80039C8.00143 9.80039 7.83129 9.78095 7.65629 9.74206C7.48129 9.69345 7.31115 9.63025 7.14587 9.55247L6.31462 9.14414C6.20768 9.09553 6.10074 9.0615 5.99379 9.04206C5.89657 9.01289 5.78476 8.99831 5.65837 8.99831C5.51254 8.99831 5.36671 9.01775 5.22087 9.05664C5.07504 9.08581 4.93407 9.13442 4.79796 9.20247L4.08337 9.55247C3.9181 9.63025 3.74796 9.69345 3.57296 9.74206C3.39796 9.78095 3.22296 9.80039 3.04796 9.80039ZM3.04796 8.76497C3.14518 8.76497 3.23754 8.75525 3.32504 8.73581C3.42226 8.70664 3.51949 8.66775 3.61671 8.61914L4.31671 8.25456C4.51115 8.14761 4.72018 8.06983 4.94379 8.02122C5.1674 7.97261 5.39587 7.94831 5.62921 7.94831C5.8431 7.94831 6.0424 7.97261 6.22712 8.02122C6.42157 8.06011 6.60629 8.12331 6.78129 8.21081L7.59796 8.61914C7.7049 8.66775 7.79726 8.70664 7.87504 8.73581C7.96254 8.75525 8.0549 8.76497 8.15212 8.76497C8.3174 8.76497 8.47782 8.73095 8.63337 8.66289C8.79865 8.58511 8.96393 8.46845 9.12921 8.31289C9.46949 8.00178 9.72712 7.61775 9.90212 7.16081C10.0771 6.69414 10.1646 6.18858 10.1646 5.64414C10.1646 4.36081 9.72226 3.27678 8.83754 2.39206C7.96254 1.49761 6.88824 1.05039 5.61462 1.05039C4.35074 1.05039 3.27157 1.49275 2.37712 2.37747C1.4924 3.2622 1.05004 4.33164 1.05004 5.58581C1.05004 6.13025 1.13754 6.64067 1.31254 7.11706C1.49726 7.58372 1.7549 7.97747 2.08546 8.29831C2.25074 8.46358 2.41115 8.58511 2.56671 8.66289C2.72226 8.73095 2.88268 8.76497 3.04796 8.76497ZM5.61462 6.47539C5.90629 6.47539 6.15421 6.37331 6.35837 6.16914C6.56254 5.96497 6.66462 5.71706 6.66462 5.42539C6.66462 5.34761 6.6549 5.26983 6.63546 5.19206C6.62574 5.11428 6.60143 5.0365 6.56254 4.95872L7.33546 3.95247C7.46185 4.08858 7.56879 4.23442 7.65629 4.38997C7.74379 4.54553 7.79726 4.71567 7.81671 4.90039C7.83615 5.0365 7.89449 5.15317 7.99171 5.25039C8.08893 5.33789 8.2056 5.38164 8.34171 5.38164C8.50699 5.38164 8.63824 5.31358 8.73546 5.17747C8.8424 5.03164 8.87643 4.87122 8.83754 4.69622C8.66254 3.93789 8.27365 3.31567 7.67087 2.82956C7.07782 2.34345 6.3924 2.10039 5.61462 2.10039C4.82712 2.10039 4.13199 2.34831 3.52921 2.84414C2.92643 3.33025 2.5424 3.95247 2.37712 4.71081C2.33824 4.88581 2.37226 5.04136 2.47921 5.17747C2.58615 5.31358 2.72226 5.38164 2.88754 5.38164C3.02365 5.38164 3.14032 5.33789 3.23754 5.25039C3.33476 5.15317 3.3931 5.0365 3.41254 4.90039C3.50976 4.37539 3.7674 3.95247 4.18546 3.63164C4.60351 3.31081 5.0799 3.15039 5.61462 3.15039C5.77018 3.15039 5.92087 3.16497 6.06671 3.19414C6.21254 3.22331 6.35351 3.26706 6.48962 3.32539L5.68754 4.37539C5.6681 4.37539 5.65351 4.37539 5.64379 4.37539C5.64379 4.37539 5.63407 4.37539 5.61462 4.37539C5.32296 4.37539 5.07504 4.47747 4.87087 4.68164C4.66671 4.88581 4.56462 5.13372 4.56462 5.42539C4.56462 5.71706 4.66671 5.96497 4.87087 6.16914C5.07504 6.37331 5.32296 6.47539 5.61462 6.47539Z" fill="black" fill-opacity="0.6"/>
</svg>
