<svg width="12" height="12" viewBox="0 0 12 12" fill="none" xmlns="http://www.w3.org/2000/svg">
<path d="M5.6001 11.1996C4.83204 11.1996 4.10774 11.0538 3.42718 10.7621C2.74663 10.4704 2.14871 10.0718 1.63343 9.56628C1.12788 9.051 0.729264 8.45308 0.437598 7.77253C0.145931 7.09197 9.77814e-05 6.36766 9.77814e-05 5.59961C9.77814e-05 4.82183 0.145931 4.09753 0.437598 3.42669C0.729264 2.74614 1.12788 2.15308 1.63343 1.64753C2.14871 1.13225 2.74663 0.728776 3.42718 0.437109C4.10774 0.145442 4.83204 -0.000391126 5.6001 -0.000391126C6.93204 -0.000391126 8.09871 0.407942 9.1001 1.22461C10.1112 2.03155 10.7626 3.05725 11.0543 4.30169C11.0932 4.4378 11.0688 4.56905 10.9813 4.69544C10.9036 4.82183 10.7966 4.90447 10.6605 4.94336C10.5244 4.98225 10.3932 4.9628 10.2668 4.88503C10.1501 4.79753 10.0723 4.68572 10.0334 4.54961C9.86815 3.84961 9.54732 3.22253 9.07093 2.66836C8.60426 2.10447 8.03065 1.68155 7.3501 1.39961V1.74961C7.3501 2.04128 7.24802 2.28919 7.04385 2.49336C6.83968 2.69753 6.59176 2.79961 6.3001 2.79961H4.9001V3.49961C4.9001 3.69405 4.83204 3.85933 4.69593 3.99544C4.55982 4.13155 4.39454 4.19961 4.2001 4.19961H3.5001V5.59961H7.0001C7.14593 5.59961 7.25774 5.65794 7.33551 5.77461C7.41329 5.89128 7.41815 6.0128 7.3501 6.13919C7.23343 6.35308 7.14593 6.57669 7.0876 6.81003C7.02926 7.04336 7.0001 7.28641 7.0001 7.53919C7.0001 8.01558 7.10704 8.47253 7.32093 8.91003C7.54454 9.3378 7.7876 9.74128 8.0501 10.1204C8.12788 10.2274 8.14732 10.3392 8.10843 10.4559C8.06954 10.5725 7.99663 10.6552 7.88968 10.7038C7.53968 10.8691 7.17024 10.9954 6.78135 11.0829C6.40218 11.1607 6.00843 11.1996 5.6001 11.1996ZM4.9001 10.0913V9.09961C4.70565 9.09961 4.54038 9.03155 4.40426 8.89544C4.26815 8.75933 4.2001 8.59405 4.2001 8.39961V7.69961L1.15218 4.65169C1.11329 4.83641 1.08413 5.00655 1.06468 5.16211C1.05496 5.31766 1.0501 5.4635 1.0501 5.59961C1.0501 6.71766 1.40982 7.70447 2.12926 8.56003C2.85843 9.41558 3.78204 9.926 4.9001 10.0913ZM9.9751 11.185C9.91676 11.185 9.86329 11.1704 9.81468 11.1413C9.76607 11.1024 9.73204 11.0538 9.7126 10.9954C9.6251 10.6649 9.47926 10.3635 9.2751 10.0913C9.08065 9.81905 8.88621 9.54197 8.69176 9.26003C8.50704 9.00725 8.35149 8.73503 8.2251 8.44336C8.10843 8.15169 8.0501 7.8503 8.0501 7.53919C8.0501 6.99475 8.23482 6.5378 8.60427 6.16836C8.98343 5.78919 9.44038 5.59961 9.9751 5.59961C10.5098 5.59961 10.9619 5.78919 11.3313 6.16836C11.7105 6.54753 11.9001 7.00447 11.9001 7.53919C11.9001 7.8503 11.8369 8.15169 11.7105 8.44336C11.5938 8.73503 11.4432 9.00725 11.2584 9.26003C11.064 9.54197 10.8647 9.81905 10.6605 10.0913C10.4661 10.3635 10.3251 10.6649 10.2376 10.9954C10.2182 11.0538 10.1841 11.1024 10.1355 11.1413C10.0869 11.1704 10.0334 11.185 9.9751 11.185ZM9.9751 9.87253C10.0723 9.6878 10.1841 9.5128 10.3105 9.34753C10.4369 9.18225 10.5633 9.01697 10.6897 8.85169C10.8258 8.65725 10.9425 8.45308 11.0397 8.23919C11.1466 8.01558 11.2001 7.78225 11.2001 7.53919C11.2001 7.19891 11.0786 6.90725 10.8355 6.66419C10.6022 6.42114 10.3154 6.29961 9.9751 6.29961C9.63482 6.29961 9.34315 6.42114 9.1001 6.66419C8.86676 6.90725 8.7501 7.19891 8.7501 7.53919C8.7501 7.78225 8.79871 8.01558 8.89593 8.23919C9.00288 8.45308 9.1244 8.65725 9.26052 8.85169C9.3869 9.01697 9.50843 9.18711 9.6251 9.36211C9.75149 9.52739 9.86815 9.69753 9.9751 9.87253ZM9.9751 8.39961C9.78065 8.39961 9.61538 8.33155 9.47927 8.19544C9.34315 8.05933 9.2751 7.89405 9.2751 7.69961C9.2751 7.50516 9.34315 7.33989 9.47927 7.20378C9.61538 7.06766 9.78065 6.99961 9.9751 6.99961C10.1695 6.99961 10.3348 7.06766 10.4709 7.20378C10.607 7.33989 10.6751 7.50516 10.6751 7.69961C10.6751 7.89405 10.607 8.05933 10.4709 8.19544C10.3348 8.33155 10.1695 8.39961 9.9751 8.39961Z" fill="black" fill-opacity="0.6"/>
</svg>
