<svg width="10" height="12" viewBox="0 0 10 12" fill="none" xmlns="http://www.w3.org/2000/svg">
<path d="M4.66663 9.84388C5.80413 8.81332 6.66454 7.87513 7.24788 7.0293C7.83121 6.18346 8.12288 5.40569 8.12288 4.69596C8.12288 3.69457 7.79232 2.86332 7.13121 2.20221C6.47982 1.5411 5.65829 1.21055 4.66663 1.21055C3.67496 1.21055 2.84857 1.5411 2.18746 2.20221C1.53607 2.86332 1.21038 3.69457 1.21038 4.69596C1.21038 5.40569 1.50204 6.18346 2.08538 7.0293C2.66871 7.87513 3.52913 8.81332 4.66663 9.84388ZM4.66663 11.0835C4.53051 11.0835 4.39927 11.0592 4.27288 11.0105C4.15621 10.9619 4.0444 10.8939 3.93746 10.8064C3.52913 10.4564 3.09163 10.0529 2.62496 9.59596C2.16802 9.13902 1.74024 8.64805 1.34163 8.12305C0.952737 7.58832 0.631904 7.0293 0.379126 6.44596C0.126348 5.86263 -4.06206e-05 5.2793 -4.06206e-05 4.69596C-4.06206e-05 3.36402 0.44232 2.25082 1.32704 1.35638C2.22149 0.452213 3.33468 0.000129819 4.66663 0.000129819C5.98885 0.000129819 7.09718 0.452213 7.99163 1.35638C8.88607 2.25082 9.33329 3.36402 9.33329 4.69596C9.33329 5.2793 9.20204 5.86749 8.93954 6.46055C8.68677 7.04388 8.36593 7.60291 7.97704 8.13763C7.58815 8.66263 7.16038 9.1536 6.69371 9.61055C6.23677 10.0578 5.80413 10.4564 5.39579 10.8064C5.28885 10.8939 5.17218 10.9619 5.04579 11.0105C4.92913 11.0592 4.80274 11.0835 4.66663 11.0835ZM4.66663 5.74596C4.96802 5.74596 5.22079 5.64388 5.42496 5.43971C5.63885 5.22582 5.74579 4.96819 5.74579 4.6668C5.74579 4.36541 5.63885 4.11263 5.42496 3.90846C5.22079 3.69457 4.96802 3.58763 4.66663 3.58763C4.36524 3.58763 4.1076 3.69457 3.89371 3.90846C3.68954 4.11263 3.58746 4.36541 3.58746 4.6668C3.58746 4.96819 3.68954 5.22582 3.89371 5.43971C4.1076 5.64388 4.36524 5.74596 4.66663 5.74596Z" fill="black"/>
</svg>
