<svg width="348" height="78" viewBox="0 0 348 78" fill="none" xmlns="http://www.w3.org/2000/svg">
<path d="M115.906 9.20106C113.508 7.77875 110.715 7.05859 107.524 7.05859C104.532 7.05859 101.955 7.72474 99.7921 9.07504C98.1699 10.0833 96.8362 11.4336 95.7908 13.1079V7.31065H88.9417V47.9996H95.7727V34.9647C96.8181 36.6391 98.1519 37.9894 99.7741 38.9976C101.937 40.3479 104.55 41.014 107.633 41.014C110.715 41.014 113.617 40.2939 115.996 38.8716C118.375 37.4493 120.213 35.4508 121.547 32.9123C122.863 30.3737 123.53 27.4391 123.53 24.1263C123.53 20.8136 122.863 17.7349 121.511 15.1784C120.159 12.6218 118.303 10.6234 115.906 9.20106ZM115.906 29.7436C115.149 31.4179 114.067 32.7502 112.715 33.7044C111.345 34.6767 109.777 35.1448 107.993 35.1448C106.209 35.1448 104.677 34.6767 103.289 33.7224C101.901 32.7682 100.837 31.4539 100.062 29.7616C99.3055 28.0692 98.9089 26.1248 98.9089 23.9283C98.9089 21.7318 99.2874 19.8234 100.062 18.167C100.819 16.5107 101.901 15.1964 103.289 14.2242C104.677 13.252 106.245 12.7838 107.993 12.7838C109.741 12.7838 111.364 13.27 112.715 14.2242C114.085 15.1964 115.149 16.5107 115.906 18.185C116.663 19.8594 117.059 21.7678 117.059 23.9103C117.059 26.0528 116.681 28.0332 115.906 29.7076V29.7436Z" fill="#0000FF"/>
<path d="M142.969 7.2175C140.849 7.48235 136.809 8.40048 133.592 11.4374L132.952 12.0377V7.32344H126.353V40.2349H132.952V25.739C132.952 25.5272 132.952 25.2976 132.934 25.0504V24.7326L132.952 24.4148L132.989 24.1323C133.592 14.9157 144.669 13.1677 144.669 13.1677H144.688H144.706V7.05859C144.377 7.05859 143.847 7.09391 143.189 7.16453L142.951 7.19984L142.969 7.2175Z" fill="#0000FF"/>
<path d="M251.431 9.2691C249.52 14.5887 247.536 20.088 245.553 25.4795L245.39 25.9468L245.21 25.4795C243.605 21.2562 241.928 16.9789 240.306 12.8455C239.548 10.9225 238.791 8.98156 238.052 7.05859H231.073C232.065 9.44882 233.039 11.857 234.03 14.2472C236.555 20.3935 239.151 26.7555 241.82 32.9737L241.856 33.0456L241.82 33.1175C241.73 33.423 240.81 36.1187 238.611 37.233C237.529 37.7721 236.32 37.844 235.022 37.4306H234.914C234.319 37.215 233.706 36.9634 232.985 36.6399C232.011 38.2034 231.055 39.8029 230.118 41.5641C231.199 42.1572 232.173 42.6065 232.985 42.93C236.339 44.0802 242.523 45.0506 246.256 38.5629C246.472 38.1136 246.689 37.6463 246.905 37.1431C247.049 36.8016 247.194 36.4422 247.338 36.1007L247.464 35.7773C249.736 30.242 252.134 24.2934 254.442 18.5425C255.993 14.6786 257.544 10.8326 259.059 7.09454H252.261L251.467 9.32302L251.431 9.2691Z" fill="#0000FF"/>
<path d="M228.38 33.8927V33.8568C227.266 33.0117 226.205 32.0767 225.271 31.0339C227.481 27.1681 228.721 22.781 228.901 19.0411C229.08 17.1712 229.727 7.56973 225.613 2.71508C224.301 1.1508 222.576 0.25179 220.653 0.0180473C220.006 -0.0358933 219.144 0.0180473 218.228 0.359671L218.012 0.449572C217.832 0.521493 217.635 0.611394 217.455 0.719275C216.323 1.34858 215.335 2.33749 214.49 3.68601L214.31 4.00965C210.357 12.6222 212.711 23.1586 218.012 31.0878C216.916 32.3644 215.694 33.3893 214.418 34.0725C211.831 35.457 209.261 35.3491 206.494 33.695C205.542 33.1556 204.59 32.3824 203.709 31.4115C205.973 27.6356 207.411 23.2125 207.608 19.0411C207.788 17.1712 208.435 7.56973 204.32 2.71508C203.008 1.16878 201.301 0.25179 199.397 0.0360275C198.804 6.70786e-05 197.995 0.0360275 197.133 0.30573C195.587 0.845136 194.276 1.97789 193.216 3.70399L193.036 4.02763C188.921 13.0177 191.724 23.6081 196.719 31.1238L196.414 31.4654C195.713 32.0408 194.977 32.5622 194.204 32.9757C188.813 35.7986 181.105 35.9964 177.314 31.6812C180.53 28.5706 183.099 25.0824 184.429 21.9719C185.633 19.3288 187.43 14.3303 185.795 10.6084C185.238 9.34977 184.357 8.36086 183.207 7.67761C182.471 7.26407 180.979 6.72466 178.967 7.10225C175.948 7.78549 173.361 10.1409 171.582 13.8988C169.372 18.5377 168.545 25.2622 169.947 30.2787C166.982 32.5083 163.73 34.2344 160.711 34.7738C157.782 35.3132 155.5 34.7018 153.703 32.9218C153.11 32.0588 152.625 31.0698 152.266 30.009C154.009 29.3438 155.68 28.3908 157.189 27.0603C161.807 22.9967 164.844 15.9845 161.717 10.4466L161.573 10.2128C160.549 8.73844 159.022 7.82145 157.261 7.62367C155.087 7.38993 152.769 8.27096 150.774 10.1229C147.055 13.8268 145.222 19.7243 145.474 25.46C143.515 25.6039 141.503 25.496 139.58 25.3342L139.059 31.2137C141.359 31.4115 143.893 31.5373 146.462 31.3036C147.055 33.2095 147.917 34.9895 149.049 36.5538L149.319 36.8775C152.517 40.2038 156.83 41.4804 161.771 40.5814C165.508 39.8981 169.336 37.9922 172.822 35.475C176.056 39.2508 180.925 40.905 185.92 40.905C189.748 40.905 193.647 39.9341 196.971 38.19C198.067 37.6146 199.091 36.8954 200.062 36.1043C201.194 37.2191 202.379 38.154 203.565 38.8193C205.919 40.2397 208.399 40.941 210.861 40.941C213.017 40.941 215.173 40.4016 217.221 39.3048C218.91 38.4058 220.438 37.1831 221.785 35.7807C223.187 37.2191 224.678 38.4957 226.259 39.5565L226.421 39.6644C226.924 40.006 227.445 40.3297 227.966 40.6173L230.823 35.475C229.35 34.6119 228.398 33.8927 228.398 33.8927H228.38ZM154.871 14.3662C155.213 14.0606 155.518 13.8448 155.788 13.719C156.129 13.5751 156.578 13.5571 156.848 14.0246C156.902 14.1864 156.974 14.3483 157.009 14.5281V14.6539C157.423 17.2251 155.626 20.5694 153.308 22.6192C152.715 23.1406 152.068 23.5721 151.403 23.9317C151.511 20.2098 152.697 16.5418 154.889 14.3483L154.871 14.3662ZM175.05 24.615C174.87 20.7312 175.84 16.8295 177.943 14.4022C178.266 14.0606 178.571 13.8268 178.859 13.665C179.218 13.5032 179.668 13.4313 179.991 13.9167C180.063 14.0786 180.135 14.2404 180.189 14.4202L180.225 14.546C180.548 15.9845 180.225 17.6926 179.488 19.3108V19.4007C178.715 21.4684 175.175 25.3342 175.175 25.3342L175.05 24.615ZM201.751 18.6276C201.643 20.8571 201.086 23.2125 200.169 25.4241C196.827 19.1849 196.019 12.1187 198.265 6.83254L198.426 6.5089V6.47294C198.822 5.95151 199.181 6.00545 199.433 6.1493C199.558 6.2392 199.684 6.34708 199.828 6.52688C201.589 8.61258 202.128 14.2584 201.733 18.6276H201.751ZM223.043 18.6276C222.935 20.929 222.342 23.3024 221.426 25.514C218.138 19.2029 217.419 11.867 219.557 6.81456C219.629 6.6887 219.683 6.54486 219.755 6.45496L219.791 6.419C220.186 5.93353 220.599 6.09535 220.905 6.3291L221.12 6.52688C222.881 8.61258 223.42 14.2584 223.025 18.6276H223.043Z" fill="#0000FF"/>
<path d="M226.85 73.0996V74.4996H225.45V73.0996H226.85Z" fill="#0000FF"/>
<path d="M218.301 64.7012V68.4037C218.86 67.6191 219.684 67.22 220.788 67.22C222.496 67.22 223.35 68.032 223.35 69.6424V74.5011H222.098V69.9177C222.098 69.3809 221.966 68.968 221.73 68.6789C221.495 68.3899 221.053 68.2385 220.435 68.2385C219.67 68.2385 219.11 68.4725 218.786 68.9267C218.463 69.3947 218.301 70.0416 218.301 70.8949V74.5011H217.05V64.7012H218.301Z" fill="#0000FF"/>
<path d="M215.649 72.0777C215.531 73.0315 215.189 73.8007 214.594 74.3546C214 74.9238 213.242 75.2007 212.291 75.2007C211.131 75.2007 210.24 74.8315 209.601 74.093C208.976 73.3546 208.65 72.3546 208.65 71.1084C208.65 69.7854 208.991 68.7392 209.645 67.97C210.314 67.2008 211.206 66.8008 212.335 66.8008C213.286 66.8008 214.03 67.0469 214.594 67.5392C215.159 68.0315 215.501 68.7238 215.59 69.6315H214.282C214.059 68.4777 213.42 67.9085 212.365 67.9085C211.622 67.9085 211.042 68.1854 210.626 68.7392C210.195 69.2931 209.987 70.0623 209.987 71.0161C209.987 71.97 210.18 72.7392 210.596 73.293C210.998 73.8469 211.562 74.1238 212.276 74.1238C212.841 74.1238 213.316 73.9392 213.673 73.6007C214.03 73.2469 214.267 72.7392 214.371 72.0777H215.649Z" fill="#0000FF"/>
<path d="M207.95 67.4661V68.4112H206.377V72.4751C206.377 72.7046 206.377 72.8531 206.377 72.9207C206.377 73.0017 206.407 73.0962 206.468 73.2177C206.514 73.3392 206.606 73.4202 206.728 73.4472C206.85 73.4877 207.018 73.5012 207.247 73.5012C207.43 73.5012 207.675 73.4877 207.95 73.4607V74.4463C207.583 74.4868 207.247 74.5003 206.957 74.5003C206.59 74.5003 206.285 74.4733 206.041 74.3923C205.796 74.3248 205.598 74.2438 205.475 74.1493C205.353 74.0683 205.262 73.9063 205.201 73.6767C205.139 73.4472 205.094 73.2582 205.094 73.0962C205.078 72.9342 205.078 72.6776 205.078 72.2996V72.2456V72.1781V72.1106V68.4112H203.75V67.4661H205.078V65.4004H206.377V67.4661H207.95Z" fill="#0000FF"/>
<path d="M203.749 73.9191V74.9537C203.49 75.0463 203.215 75.1081 202.912 75.1081C202.205 75.1081 201.844 74.7066 201.83 73.9345C201.123 74.7684 200.228 75.2007 199.131 75.2007C198.395 75.2007 197.818 75 197.385 74.5985C196.952 74.197 196.75 73.6412 196.75 72.9463C196.75 71.5257 197.63 70.6919 199.391 70.4603C199.506 70.4294 199.665 70.414 199.896 70.3985C200.733 70.2905 201.238 70.1669 201.44 70.0434C201.657 69.8736 201.772 69.5956 201.772 69.1941C201.772 68.314 201.209 67.8817 200.084 67.8817C199.506 67.8817 199.059 68.0052 198.77 68.2522C198.467 68.4993 198.294 68.9162 198.236 69.503H197.038C197.053 68.6383 197.341 67.9743 197.89 67.5111C198.438 67.0324 199.189 66.8008 200.156 66.8008C201.195 66.8008 201.974 67.0478 202.494 67.5728C202.653 67.7272 202.768 67.9434 202.855 68.2214C202.927 68.4839 202.97 68.7 202.985 68.8699C202.985 69.0397 202.999 69.3022 202.999 69.6419C202.999 70.028 202.985 70.6147 202.97 71.4022C202.941 72.2051 202.941 72.7919 202.941 73.1779C202.941 73.4713 202.97 73.672 203.042 73.7956C203.114 73.9191 203.244 73.9654 203.446 73.9654C203.519 73.9654 203.62 73.95 203.749 73.9191ZM201.772 70.8463C201.686 70.9081 201.585 70.9699 201.498 71.0316C201.397 71.078 201.267 71.1243 201.123 71.1552C200.978 71.186 200.877 71.2015 200.82 71.2169C200.762 71.2324 200.646 71.2478 200.444 71.2787C200.242 71.3096 200.127 71.325 200.127 71.325C199.824 71.3559 199.622 71.3868 199.535 71.4022C199.448 71.4177 199.275 71.464 199.015 71.5412C198.756 71.6029 198.582 71.6956 198.481 71.7882C198.366 71.8809 198.265 72.0044 198.164 72.1897C198.063 72.375 198.02 72.5912 198.02 72.8382C198.02 73.2397 198.149 73.564 198.409 73.811C198.669 74.0426 199.044 74.1662 199.506 74.1662C200.084 74.1662 200.618 73.9809 201.079 73.6103C201.541 73.2397 201.772 72.7919 201.772 72.2978V70.8463Z" fill="#0000FF"/>
<path d="M183.45 64.7012H184.882L186.963 72.8907L189.34 64.7012H190.86L193.207 72.8907L195.362 64.7012H196.75L193.945 74.5011H192.484L190.063 66.2978L187.613 74.5011H186.151L183.45 64.7012Z" fill="#0000FF"/>
<path d="M177.85 73.0996V74.4996H176.45V73.0996H177.85Z" fill="#0000FF"/>
<path d="M174.35 64.7012V74.5011H172.95V64.7012H174.35Z" fill="#0000FF"/>
<path d="M171.55 64.7012V74.5011H170.15V64.7012H171.55Z" fill="#0000FF"/>
<path d="M168.661 72.4416C168.277 74.281 167.17 75.2007 165.339 75.2007C164.216 75.2007 163.33 74.8482 162.695 74.1124C162.06 73.392 161.75 72.3803 161.75 71.0927C161.75 69.8205 162.075 68.7935 162.725 67.9964C163.375 67.1993 164.231 66.8008 165.294 66.8008C166.461 66.8008 167.332 67.2146 167.894 68.0424C168.455 68.8701 168.75 69.8971 168.75 71.154V71.338H163.02L163.005 71.4299C163.005 72.273 163.212 72.9321 163.64 73.4073C164.054 73.8978 164.645 74.1277 165.383 74.1277C165.929 74.1277 166.358 74.0051 166.683 73.7292C167.007 73.4686 167.259 73.0394 167.436 72.4416H168.661ZM167.45 70.2803C167.391 69.5292 167.17 68.9467 166.786 68.5176C166.402 68.0884 165.885 67.8738 165.265 67.8738C164.645 67.8738 164.143 68.0884 163.744 68.5176C163.33 68.9467 163.094 69.5446 163.02 70.2803H167.45Z" fill="#0000FF"/>
<path d="M159.987 67.366L158.748 67.3811C158.614 65.917 157.82 65.1924 156.366 65.1924C155.679 65.1924 155.141 65.3434 154.764 65.6604C154.387 65.9622 154.198 66.4 154.198 66.9736C154.198 67.1698 154.225 67.3509 154.279 67.5019C154.333 67.6528 154.427 67.7736 154.562 67.8943C154.697 68.0151 154.818 68.1056 154.925 68.1962C155.047 68.2717 155.235 68.3471 155.477 68.4226C155.733 68.5132 155.935 68.5735 156.083 68.6037C156.245 68.6339 156.473 68.6943 156.797 68.7698C157.2 68.8603 157.523 68.9509 157.779 69.0264C158.048 69.1018 158.358 69.2226 158.708 69.3886C159.071 69.5698 159.354 69.7509 159.57 69.9622C159.785 70.1735 159.96 70.4452 160.121 70.7773C160.283 71.1245 160.35 71.5169 160.35 71.9396C160.35 72.6943 160.162 73.3282 159.785 73.8414C159.408 74.3546 158.95 74.7018 158.412 74.898C157.873 75.1093 157.281 75.1999 156.622 75.1999C155.423 75.1999 154.468 74.8829 153.741 74.249C153.014 73.615 152.65 72.6641 152.65 71.4113H153.875C153.902 72.332 154.185 72.9962 154.697 73.4188C155.222 73.8414 155.895 74.0527 156.729 74.0527C157.389 74.0527 157.954 73.8867 158.425 73.5848C158.883 73.2829 159.125 72.7848 159.125 72.0905C159.125 71.7584 159.058 71.4867 158.937 71.2603C158.802 71.0339 158.614 70.8528 158.345 70.7018C158.075 70.5509 157.806 70.4452 157.537 70.3547C157.268 70.2641 156.904 70.1584 156.473 70.0528C156.406 70.0377 156.366 70.0226 156.339 70.0075C155.343 69.766 154.697 69.5547 154.4 69.4037C153.458 68.9509 153 68.1811 153 67.0641C153 66.0377 153.337 65.283 154.01 64.7698C154.683 64.2566 155.504 64 156.46 64C157.51 64 158.358 64.2868 158.977 64.8453C159.61 65.4189 159.946 66.249 159.987 67.366Z" fill="#0000FF"/>
<path d="M146.35 73.0996V74.4996H144.95V73.0996H146.35Z" fill="#0000FF"/>
<path d="M144.95 67.5L141.747 75.9405C141.617 76.2886 141.501 76.5496 141.414 76.7382C141.327 76.9267 141.197 77.1298 141.023 77.3618C140.849 77.5938 140.646 77.7534 140.414 77.8549C140.182 77.9564 139.907 77.9999 139.588 77.9999C139.341 77.9999 139.037 77.9564 138.675 77.8694V76.7672C139.023 76.8832 139.298 76.9267 139.472 76.9267C139.878 76.9267 140.168 76.7237 140.341 76.3031L140.921 74.9399L137.95 67.5H139.341L141.559 73.4606L143.66 67.5H144.95Z" fill="#0000FF"/>
<path d="M136.55 67.5L136.537 74.9965H135.508V73.8198C134.935 74.7496 134.167 75.1999 133.19 75.1999C132.487 75.1999 131.927 74.982 131.536 74.5462C131.146 74.1103 130.95 73.4856 130.95 72.6575V67.5H132.057V72.3234C132.057 72.919 132.161 73.3694 132.37 73.6745C132.578 73.9796 132.943 74.1249 133.477 74.1249C134.779 74.1249 135.443 73.2241 135.443 71.4226V67.5H136.55Z" fill="#0000FF"/>
<path d="M121.15 64.7012L125.308 64.7149C126.197 64.7149 126.936 64.9076 127.524 65.3068C128.112 65.6922 128.413 66.3116 128.413 67.1649C128.413 67.6467 128.276 68.0733 128.016 68.4587C127.756 68.8441 127.414 69.1056 126.977 69.2708C127.578 69.4084 128.03 69.6837 128.358 70.1242C128.686 70.5508 128.85 71.0876 128.85 71.7345C128.85 73.5789 127.619 74.5011 125.158 74.5011H121.15V64.7012ZM122.409 65.816V68.9129H124.72C124.98 68.9129 125.199 68.8992 125.39 68.8854C125.582 68.8716 125.787 68.8441 126.033 68.7891C126.265 68.734 126.457 68.6514 126.594 68.5413C126.73 68.4312 126.854 68.2798 126.963 68.0871C127.072 67.8806 127.113 67.6329 127.113 67.3576C127.113 67.0686 127.072 66.8208 126.977 66.6281C126.895 66.4354 126.785 66.284 126.648 66.1739C126.525 66.0638 126.348 65.995 126.129 65.9399C125.91 65.8849 125.705 65.8436 125.527 65.8298C125.349 65.816 125.117 65.816 124.843 65.816H122.409ZM122.409 69.9315L122.395 73.4275H124.966C125.294 73.4275 125.554 73.4137 125.746 73.4C125.951 73.3862 126.183 73.3449 126.43 73.2899C126.676 73.221 126.881 73.1247 127.018 73.0008C127.168 72.8769 127.291 72.698 127.387 72.464C127.496 72.23 127.537 71.9548 127.537 71.6244C127.537 71.3492 127.51 71.1014 127.442 70.9087C127.373 70.7022 127.264 70.5371 127.1 70.427C126.936 70.3031 126.785 70.2067 126.648 70.1379C126.512 70.0553 126.306 70.014 126.047 69.9865C125.773 69.959 125.568 69.9315 125.431 69.9315C125.281 69.9315 125.062 69.9315 124.761 69.9315H122.409Z" fill="#0000FF"/>
</svg>
