<svg width="38" height="38" viewBox="0 0 38 38" fill="none" xmlns="http://www.w3.org/2000/svg">
<path d="M11.825 19.5542L16.2583 23.9875C16.3556 24.1042 16.4042 24.2403 16.4042 24.3958C16.4236 24.5319 16.375 24.6583 16.2583 24.775C16.1417 24.9111 16.0056 24.9792 15.85 24.9792C15.7139 24.9792 15.5875 24.9111 15.4708 24.775L10.3083 19.6417C10.2111 19.5444 10.1431 19.4472 10.1042 19.35C10.0653 19.2333 10.0458 19.1167 10.0458 19C10.0458 18.8833 10.0653 18.7764 10.1042 18.6792C10.1431 18.5625 10.2111 18.4556 10.3083 18.3583L15.4708 13.1958C15.5681 13.0986 15.6944 13.05 15.85 13.05C16.0056 13.0306 16.1417 13.0792 16.2583 13.1958C16.375 13.3125 16.4333 13.4486 16.4333 13.6042C16.4333 13.7403 16.375 13.8764 16.2583 14.0125L11.825 18.4458H27.7792C27.9347 18.4458 28.0611 18.5042 28.1583 18.6208C28.275 18.7181 28.3333 18.8444 28.3333 19C28.3333 19.1556 28.275 19.2917 28.1583 19.4083C28.0611 19.5056 27.9347 19.5542 27.7792 19.5542H11.825Z" fill="#21357C"/>
</svg>
