<svg width="300" height="204" viewBox="0 0 300 204" fill="none" xmlns="http://www.w3.org/2000/svg">
<path d="M161.059 203.569C172.158 203.607 183.256 203.591 194.355 203.488C218.132 203.266 241.911 202.647 265.647 201.228C275.927 200.613 312.482 201.163 295.172 179.135C289.324 171.697 276.843 168.778 268.643 168.641C259.662 168.491 250.934 169.303 241.94 169.785C233.58 170.228 225.243 170.863 216.868 170.841C199.768 170.794 182.665 170.841 165.593 172.238C149.557 173.55 133.48 173.1 117.405 173.1C101.331 173.1 84.5533 172.941 68.1914 170.266C61.0613 169.1 53.7997 168.691 46.632 167.875C40.2149 167.144 34.0479 167.891 27.6557 168.566C22.2893 169.135 16.9573 170.819 12.0819 173.666C8.22287 175.919 1.34287 182.922 0.157631 188.3C-3.16041 203.382 46.9197 203.019 54.6097 202.985C90.0917 202.828 125.571 203.457 161.053 203.572L161.059 203.569Z" fill="#EEF2FF"/>
<path d="M240.364 143.694C242.481 145.557 242.969 149.129 243.113 151.844C243.322 155.863 241.959 159.347 240.864 163.122C240.783 163.401 240.68 163.707 240.423 163.841C240.123 163.997 239.729 163.822 239.544 163.538C239.36 163.254 239.338 162.894 239.357 162.554C239.419 161.444 239.851 160.394 240.164 159.326C241.199 155.791 240.798 151.888 238.775 148.81C237.981 147.601 236.611 146.341 237.474 143.604C238.037 141.816 239.013 142.51 240.357 143.694H240.364Z" fill="#3B455A"/>
<path d="M233.155 154.219C230.206 153.597 227.082 153.857 224.039 154.15C220.721 154.469 217.256 154.872 214.52 156.441C213.116 157.244 211.774 158.56 211.261 160.247C211.039 160.975 210.995 161.766 211.218 162.504C211.318 162.838 211.446 163.225 211.571 163.535C211.759 164 212.081 164.05 212.506 164.182C213.041 164.347 213.497 164.722 213.97 165.044C216.171 166.544 218.667 166.55 221.153 166.869C223.655 167.188 226.163 167.432 228.68 167.485C232.783 167.569 240.026 167.207 241.299 163.019C242.49 159.104 237.055 155.041 233.152 154.219H233.155Z" fill="#3B455A"/>
<path d="M216.528 161.878C216.115 162.25 215.577 162.428 215.048 162.581C213.36 163.069 212.112 164.044 210.354 164.034C204.416 163.997 204.262 155.878 209.513 153.818C213.516 152.25 220.965 157.865 216.528 161.878Z" fill="#3B455A"/>
<path d="M234.96 161.163C235.873 160.367 236.943 159.726 237.981 159.195C238.209 159.079 238.447 158.963 238.703 158.938C238.966 158.913 239.225 158.988 239.466 159.095C240.92 159.726 241.687 161.604 241.089 163.073C240.895 163.545 240.589 163.96 240.27 164.357C239.36 165.476 238.3 166.479 237.54 167.704C236.145 169.951 236.893 171.754 237.512 174.085C237.571 174.307 237.631 174.532 237.634 174.76C237.646 175.86 237.34 176.901 236.029 177.02C235.667 177.051 235.257 176.845 235.194 176.488C235.082 175.87 235.807 175.754 235.954 175.288C236.104 174.807 235.626 174.323 235.401 173.945C234.807 172.938 234.247 171.907 233.768 170.842C232.88 168.857 232.148 166.467 232.815 164.301C233.202 163.045 233.997 162.02 234.966 161.173L234.96 161.163Z" fill="#3B455A"/>
<path d="M226.738 172.429C226.601 172.726 226.463 173.051 226.532 173.37C226.588 173.642 226.782 173.861 226.97 174.067C227.379 174.517 227.789 174.967 228.195 175.414C228.574 175.829 228.99 176.27 229.543 176.392C230.094 176.514 230.785 176.129 230.747 175.567C230.7 174.851 229.718 174.676 229.227 174.148C228.633 173.51 228.883 172.47 229.315 171.714C230.084 170.364 231.335 169.295 232.786 168.742C233.265 168.56 233.771 168.426 234.184 168.126C234.597 167.826 234.903 167.298 234.756 166.807C234.128 164.717 231.141 164.585 230.037 166.026C228.674 167.804 227.673 170.395 226.735 172.426L226.738 172.429Z" fill="#3B455A"/>
<path d="M218.973 174.015C219.117 174.303 219.28 174.609 219.549 174.746C219.777 174.865 220.043 174.84 220.296 174.815C220.846 174.759 221.397 174.703 221.95 174.643C222.463 174.59 223.007 174.521 223.395 174.153C223.783 173.784 223.877 173.006 223.445 172.696C222.895 172.303 222.232 172.984 221.581 173.059C219.53 173.293 219.067 169.787 219.955 168.437C220.14 168.156 220.365 167.912 220.571 167.65C221.009 167.093 221.387 166.437 221.616 165.74C221.903 164.868 221.816 165.137 221.294 164.821C220.205 164.165 218.983 163.731 217.766 164.225C216.618 164.687 215.727 166.184 216.08 167.534C216.64 169.69 217.994 172.046 218.973 174.015Z" fill="#3B455A"/>
<path d="M217.654 168.795C217.729 169.573 217.801 170.354 217.772 171.136C217.741 172.011 217.578 172.889 217.704 173.754C217.832 174.639 218.248 175.448 218.413 176.323C218.473 176.633 218.495 176.973 218.357 177.251C218.22 177.529 217.872 177.698 217.629 177.526C216.772 176.142 215.89 174.695 215.674 173.042C215.496 171.673 215.79 170.22 215.317 168.936C215.011 168.104 214.426 167.448 214.079 166.642C213.763 165.908 213.366 165.014 213.601 164.198C213.732 163.742 214.107 163.551 214.192 163.098C214.204 163.023 214.229 162.939 214.295 162.92C214.335 162.908 214.376 162.926 214.414 162.945C215.177 163.314 216.869 163.723 217.244 164.558C217.466 165.054 217.381 165.954 217.435 166.511C217.507 167.273 217.578 168.033 217.65 168.795H217.654Z" fill="#3B455A"/>
<path d="M217.216 155.863C217.216 155.863 216.559 161.926 213.05 163.951L211.962 163.938C211.962 163.938 215.786 160.254 216.446 155.285L217.216 155.863Z" fill="white"/>
<path d="M212.175 163.95C212.806 164.159 212.615 164.203 212.894 164.765C213.063 165.109 213.122 165.543 212.903 165.859C212.728 166.112 212.409 166.231 212.103 166.25C211.418 166.284 210.714 165.778 210.633 165.097C210.551 164.415 211.224 163.725 211.893 163.871L212.175 163.95Z" fill="#96BFEE"/>
<path d="M206.864 151.788C206.802 151.756 206.739 151.819 206.761 151.884C206.918 152.344 206.908 152.853 206.899 153.344C206.871 154.522 206.846 155.7 206.817 156.878C206.836 156.081 211.952 158.628 211.424 155.831C211.117 154.206 208.319 152.503 206.864 151.784V151.788Z" fill="#3B455A"/>
<path d="M209.31 151.239C209.247 151.208 209.185 151.27 209.207 151.336C209.363 151.795 209.354 152.304 209.344 152.795C209.316 153.973 209.291 155.151 209.263 156.329C209.282 155.533 214.398 158.079 213.869 155.283C213.563 153.658 210.764 151.954 209.31 151.236V151.239Z" fill="#3B455A"/>
<path d="M88.5847 100.683L89.6042 98.3863L88.7724 96.3332L89.1195 95.9363L89.6261 96.3426L89.426 94.4426L90.286 93.1488L92.3531 93.0801L94.0793 94.3332L93.9324 96.3895L92.5532 98.4207L91.2929 101.624L88.5847 100.683Z" fill="#EACFC1"/>
<path d="M88.9756 98.6777L81.2825 112.037L67.0096 114.528L68.7109 122.846L83.8778 120.503L90.3778 114.528L93.8354 99.3246L88.9756 98.6777Z" fill="#0202C4"/>
<path d="M81.9393 184.342L86.1736 187.161V189.101L82.4678 189.807L76.6479 186.986L77.1765 184.342H81.9393Z" fill="#305399"/>
<path d="M66.7126 113.961L62.472 114.474C62.2124 113.371 62.0404 110.683 61.9591 109.552C60.7176 109.405 59.2478 109.092 58.7787 107.933C58.6317 107.567 58.6098 107.164 58.5911 106.774C58.5129 105.146 58.4347 103.521 58.3534 101.892C58.3252 101.33 58.3002 100.749 58.4941 100.221C58.8287 99.2894 59.7544 98.7112 60.6676 98.3331C63.0005 97.3706 65.7619 97.3081 68.001 98.4769C68.5952 98.7894 69.1612 99.1956 69.5209 99.7644C70.0744 100.639 70.0525 101.746 70.015 102.78C69.9806 103.736 69.943 104.689 69.9086 105.642C69.868 106.739 69.7366 108.008 68.8235 108.621C68.3388 108.946 67.6977 109.024 67.2849 109.436C66.5562 110.164 66.9534 112.961 66.7126 113.961Z" fill="#EACFC1"/>
<path d="M77.2328 93.6574C77.3829 93.2136 77.558 92.7792 77.7644 92.3605C78.2147 91.4542 78.837 90.6261 79.1466 89.6636C79.4562 88.7011 79.3749 87.5073 78.5994 86.8573C78.099 86.4386 77.4141 86.3261 76.7605 86.2823C74.6121 86.1386 72.4293 86.5824 70.5091 87.5542C68.6797 88.4792 67.1254 89.6823 65.0114 89.3886C63.0255 89.1136 61.7621 89.6855 59.9984 90.798C58.0876 92.0011 55.3418 92.7949 53.6969 94.2574C53.0089 94.8667 52.5367 95.6886 52.2177 96.5511C51.1106 99.5355 51.9018 103.132 54.1629 105.376C54.6695 105.879 55.2386 106.317 55.8266 106.723C57.0431 107.567 58.5066 108.614 59.9389 108.707C59.7013 107.498 57.7592 103.945 58.4629 102.754C59.5824 100.86 63.0224 100.667 64.9301 100.648C67.0097 100.626 69.0956 101.635 71.1314 101.498C72.5981 101.398 74.2493 100.301 75.2907 99.3011C76.576 98.0667 76.6792 95.2761 77.2328 93.6542V93.6574Z" fill="#3B455A"/>
<path d="M42.4199 183.08L44.1024 186.024L43.8929 187.914L41.3692 188.336L37.582 186.024L38.8455 178.036L42.4199 176.986V183.08Z" fill="#305399"/>
<path d="M44.1024 156.386C44.1024 156.386 40.1057 163.743 45.5753 168.368C51.0449 172.993 60.5112 180.349 60.5112 180.349L42.6326 176.355L41.3691 182.661C41.3691 182.661 68.5045 191.699 69.1362 191.071C69.7679 190.439 76.4978 184.555 76.4978 184.555L61.9841 152.814L45.9975 154.705L44.1055 156.386H44.1024Z" fill="#3B455A"/>
<path d="M86.5896 151.761C85.2761 150.355 84.0596 148.874 82.9994 147.289C80.6821 143.827 79.3186 139.971 78.9027 135.93C78.6932 133.889 78.6963 131.839 78.7901 129.802C78.8402 128.699 78.9215 127.596 79.0153 126.496C79.0685 125.871 79.672 123.614 79.3374 123.124C75.9287 118.142 75.5159 114.467 69.9368 113.864C57.2057 112.492 57.9281 113.264 53.6 118.524C51.8581 120.639 48.6464 126.705 47.533 129.18C46.1883 132.177 44.878 135.192 43.6677 138.246C42.3199 141.655 41.094 145.111 40.0901 148.636C39.9776 149.027 39.621 150.111 39.2395 151.424C38.5171 153.902 37.7103 157.189 38.2982 158.139C38.6047 158.933 39.4115 159.777 41.3692 160.167C45.5754 161.008 48.9403 161.008 53.5687 158.696C58.197 156.383 65.862 158.024 65.862 158.024C67.0816 158.358 68.3544 158.686 69.7117 158.989C79.5751 161.186 84.6725 155.152 86.2706 154.055C87.6685 153.096 86.5864 151.758 86.5864 151.758L86.5896 151.761Z" fill="#0000FF"/>
<path d="M64.7173 157.435L87.4339 146.926L93.3225 154.491L83.2245 185.391L76.4946 184.551L78.3867 166.054C78.3867 166.054 72.7075 170.888 62.6096 170.47C57.9812 165.845 57.9812 166.054 57.9812 166.054L64.7111 157.435H64.7173Z" fill="#3B455A"/>
<path d="M192.792 31.1445L73.899 70.4539L145.607 87.8352L192.792 31.1445Z" fill="url(#paint0_linear_636_3754)"/>
<path d="M70.7968 74.1828L96.1277 150.689L207.577 113.842C216.009 111.055 220.424 101.498 217.444 92.4953L197.511 32.2891L147.224 92.7078L70.7968 74.1828Z" fill="url(#paint1_linear_636_3754)"/>
<path opacity="0.2" d="M171.457 38.1977C171.639 39.257 171.901 40.3164 172.249 41.3695C173.321 44.6133 175.094 47.4258 177.343 49.7039L192.789 31.1445L171.457 38.1977Z" fill="#231F20"/>
<path opacity="0.2" d="M199.44 55.0297C201.182 54.4547 202.799 53.6766 204.278 52.7328L197.508 32.2891L180.702 52.4797C186.027 56.0391 192.882 57.1953 199.437 55.0297H199.44Z" fill="#231F20"/>
<path d="M212.104 45.6152C220.508 37.2177 220.508 23.6026 212.104 15.2052C203.701 6.80766 190.076 6.80766 181.672 15.2052C173.269 23.6026 173.269 37.2177 181.672 45.6152C190.076 54.0127 203.701 54.0127 212.104 45.6152Z" fill="#96BFEE"/>
<path d="M198.286 40.041L193.817 26.541L190.85 27.5223L189.561 23.6285L196.866 21.2129L202.627 38.6066L198.286 40.041Z" fill="white"/>
<path d="M211.277 62.2848L210.151 60.8285L208.453 57.766L206.123 56.9629L203.643 58.4004C203.643 58.4004 204.225 59.4348 205.101 59.3191C205.976 59.2035 206.414 59.1473 206.414 59.1473L207.337 62.0066C207.337 62.0066 207.352 62.0691 207.399 62.166L207.759 63.2379C207.759 63.2379 209.022 64.1098 209.232 63.8973C209.285 63.8441 209.407 63.7504 209.56 63.6379C209.923 63.7941 209.926 63.7973 209.926 63.7973L211.283 62.2848H211.277Z" fill="#CC937A"/>
<path d="M267.58 178.654L268.131 181.057L263.868 184.564L260.91 182.711L262.767 179.754L267.03 176.248L267.58 178.654Z" fill="#3B455A"/>
<path d="M258.518 104.336L260.191 111.639L257.692 145.514L267.652 177.82L263.099 179.867L242.9 142.492L240.567 130.589L239.547 105.458L258.518 104.336Z" fill="#587BC9"/>
<path d="M224.39 103.886L226.125 135.327L234.753 175.439L239.307 175.136L239.691 137.567L243.428 99.7734L224.39 103.886Z" fill="#587BC9"/>
<path d="M239.41 177.055L234.647 179.846L232.02 177.549L234.319 174.924L239.244 174.596L239.41 177.055Z" fill="#3B455A"/>
<path d="M238.847 58.2227L223.33 73.0133C223.33 73.0133 223.289 73.032 223.217 73.0664L210.686 60.8914L207.853 63.6602L220.865 83.4508C220.997 83.7133 221.075 83.8664 221.075 83.8664L237.262 76.4945L244.229 61.5477L238.844 58.2227H238.847Z" fill="#970EE5"/>
<path d="M247.55 58.7373C250.509 59.4967 253.123 61.1092 254.893 64.4217C256.435 67.3061 257.004 70.6248 257.548 73.8748C259.106 83.1748 259.772 93.3936 263.265 102.234C264.785 106.075 266.201 108.347 265.951 112.769C265.882 113.975 263.065 125.209 263.083 125.222C259.19 122.722 254.462 121.55 249.852 121.94C245.718 122.29 218.457 130.719 215.371 126.469C214.698 125.544 219.205 112.4 219.611 110.472C220.943 104.144 222.276 97.8123 223.627 91.4904C225.118 84.4686 226.629 77.4186 229.171 70.7061C230.031 68.4342 231.007 66.2092 232.092 64.0373C232.777 62.6654 234.141 58.7311 235.57 58.0623C236.749 57.5092 239.501 58.1186 240.845 58.1123C243.094 58.1029 245.361 58.1748 247.553 58.7373H247.55Z" fill="#AB18FF"/>
<path d="M248.807 45.5845C246.015 39.6439 236.721 38.5751 235.485 46.0157C235.113 48.2532 235.01 50.5907 235.704 52.747C236.398 54.9032 238.006 56.8626 240.176 57.522C240.189 57.5251 240.201 57.5282 240.214 57.5314C240.201 58.1157 240.192 58.697 240.179 59.2814C240.179 59.4064 240.179 59.5439 240.261 59.6407C240.354 59.7501 240.514 59.7595 240.658 59.7657C241.355 59.7845 242.053 59.8064 242.75 59.8251C243.094 59.8345 243.457 59.8407 243.769 59.697C244.457 59.3814 244.651 58.4907 244.592 57.7345C244.576 57.5532 244.554 57.372 244.529 57.1907C248.417 55.3157 250.637 49.4657 248.811 45.5845H248.807Z" fill="#CC937A"/>
<path d="M238.487 35.6006C236.827 35.3225 235.379 36.9131 233.828 37.7318C232.536 38.4131 231.085 38.5756 229.747 39.135C228.411 39.6975 227.085 40.8912 227.032 42.4193C225.703 41.6975 224.258 40.9537 222.751 41.2193C221.24 41.4818 219.811 43.2537 220.387 44.7443C220.9 46.0787 222.626 46.4225 223.176 47.735C224.049 49.8131 221.531 52.9756 223.189 54.3725C223.586 54.71 224.136 54.7975 224.527 55.1443C225.012 55.5725 225.159 56.3006 225.365 56.9443C226.31 59.8725 229.212 61.8287 232.12 61.4881C233.94 60.6756 235.407 58.9568 236.089 56.9693C236.908 54.5756 235.635 53.7131 235.457 51.4475C235.263 48.9725 236.095 46.3725 237.687 44.4818C238.722 43.2506 240.189 42.2006 241.724 42.0818C242.346 42.035 242.143 42.5475 242.85 42.0818C243.153 41.8818 243.579 41.1068 243.669 40.735C242.018 39.36 240.676 35.9631 238.491 35.5975L238.487 35.6006Z" fill="#3B455A"/>
<path d="M214.21 41.882L212.556 37.632L214.342 36.8477L216.121 39.507L216.793 38.7445L217.763 42.5508L216.018 43.6195L214.21 41.882Z" fill="#CC937A"/>
<path d="M247.441 58.8473C245.364 57.9254 242.59 58.141 239.773 58.0535C236.467 57.9535 233.159 57.8504 229.853 57.7504L217.869 41.1504L214.511 43.4441L224.315 66.1754C228.646 67.2879 232.977 68.4004 237.305 69.5129C239.695 70.1254 242.462 71.316 244.93 71.4598C248.56 71.6723 251.25 67.3285 250.731 63.8973C250.293 61.0191 249.089 59.5754 247.441 58.8441V58.8473Z" fill="#AB18FF"/>
<path d="M256.444 39.1223C257.298 39.3754 258.233 39.3567 259.046 39.7317C260.266 40.291 260.169 41.566 260.497 42.6785C260.86 43.9129 261.392 45.5692 262.186 46.5379C262.758 47.2348 263.568 47.641 264.269 48.1848C264.969 48.7285 265.61 49.5223 265.576 50.4785C265.545 51.3848 264.922 52.1879 264.816 53.091C264.685 54.4379 264.903 55.1317 264.466 56.5035C264.237 57.2098 263.984 57.9598 263.443 58.4348C262.727 59.0629 261.726 59.0317 260.847 58.8692C259.969 58.7066 259.062 58.4473 258.189 58.7223C256.294 59.3223 256.613 61.2316 256.081 62.8191C255.275 65.2348 252.432 66.6004 250.293 65.7004C248.479 64.9348 247.46 62.7973 247.578 60.7067C247.638 59.6598 248.072 58.691 248.123 57.641C248.169 56.6285 247.625 55.2192 248.554 54.4317C248.782 54.241 249.07 54.141 249.273 53.9223C249.439 53.7442 249.533 53.5035 249.595 53.266C249.805 52.4348 249.636 51.5192 249.155 50.8692C248.807 50.4035 248.307 50.0567 248.098 49.4973C247.86 48.8567 248.069 48.116 248.126 47.416C248.257 45.7192 247.356 44.0348 245.952 43.3566C245.027 42.9066 244.192 42.6379 243.385 41.966C243.263 41.8629 241.436 40.191 241.38 40.5441C241.474 39.9285 241.843 39.3973 242.218 38.9067C242.831 38.1035 243.513 37.3223 244.367 36.8504C247.125 35.3254 247.194 38.9879 249.395 38.5442C249.927 38.4379 250.334 37.9598 250.815 37.6785C251.725 37.1473 252.826 37.3629 253.739 37.7879C254.652 38.2129 255.484 38.8348 256.447 39.1223H256.444Z" fill="#3B455A"/>
<path d="M90.3109 139.486L92.7221 140.189L94.6485 139.092L95.0894 139.382L94.7548 139.936L96.6124 139.482L98.0103 140.164L98.3543 142.198L97.341 144.079L95.2833 144.204L93.0848 143.114L89.7386 142.295L90.3109 139.486Z" fill="#EACFC1"/>
<path d="M92.7346 138.001L79.3779 131.501L76.4603 120.822L65.446 116.713L67.6508 136.416L92.7346 144.022V138.001Z" fill="#0000FF"/>
<defs>
<linearGradient id="paint0_linear_636_3754" x1="152.68" y1="110.802" x2="108.701" y2="25.042" gradientUnits="userSpaceOnUse">
<stop stop-color="#DC1FFF"/>
<stop offset="1" stop-color="#0000FF"/>
</linearGradient>
<linearGradient id="paint1_linear_636_3754" x1="168.585" y1="198.656" x2="56.6973" y2="68.9832" gradientUnits="userSpaceOnUse">
<stop stop-color="#DC1FFF"/>
<stop offset="1" stop-color="#0000FF"/>
</linearGradient>
</defs>
</svg>
