<svg width="24" height="24" viewBox="0 0 24 24" fill="none" xmlns="http://www.w3.org/2000/svg">
<path d="M10.5584 12.8035V16.391C10.5584 16.7021 10.6654 16.9646 10.8792 17.1785C11.0931 17.3924 11.3654 17.4993 11.6959 17.4993C12.007 17.4993 12.2695 17.3924 12.4834 17.1785C12.6973 16.9646 12.8042 16.7021 12.8042 16.391V12.8035H16.3917C16.7029 12.8035 16.9654 12.6966 17.1792 12.4827C17.3931 12.2688 17.5001 12.0063 17.5001 11.6952C17.5001 11.3646 17.3931 11.0924 17.1792 10.8785C16.9654 10.6646 16.7029 10.5577 16.3917 10.5577H12.8042V6.94101C12.8042 6.6299 12.6973 6.3674 12.4834 6.15351C12.2695 5.93963 11.9973 5.83268 11.6667 5.83268C11.3556 5.83268 11.0931 5.93963 10.8792 6.15351C10.6654 6.3674 10.5584 6.6299 10.5584 6.94101V10.5577H6.94175C6.63064 10.5577 6.36814 10.6646 6.15425 10.8785C5.94036 11.0924 5.83342 11.3646 5.83342 11.6952C5.83342 12.0063 5.94036 12.2688 6.15425 12.4827C6.36814 12.6966 6.63064 12.8035 6.94175 12.8035H10.5584ZM11.6667 23.3327C10.0529 23.3327 8.53619 23.0313 7.11675 22.4285C5.6973 21.8063 4.46258 20.9702 3.41258 19.9202C2.36258 18.8702 1.52647 17.6355 0.904248 16.216C0.30147 14.7966 8.14497e-05 13.2799 8.14497e-05 11.666C8.14497e-05 10.0521 0.30147 8.53546 0.904248 7.11601C1.52647 5.69657 2.36258 4.46185 3.41258 3.41185C4.46258 2.36185 5.6973 1.53546 7.11675 0.932681C8.53619 0.310459 10.0529 -0.000651598 11.6667 -0.000651598C13.2806 -0.000651598 14.7973 0.310459 16.2167 0.932681C17.6362 1.53546 18.8709 2.36185 19.9209 3.41185C20.9709 4.46185 21.7973 5.69657 22.4001 7.11601C23.0223 8.53546 23.3334 10.0521 23.3334 11.666C23.3334 13.2799 23.0223 14.7966 22.4001 16.216C21.7973 17.6355 20.9709 18.8702 19.9209 19.9202C18.8709 20.9702 17.6362 21.8063 16.2167 22.4285C14.7973 23.0313 13.2806 23.3327 11.6667 23.3327Z" fill="#0000FF"/>
</svg>
