<svg width="48" height="48" viewBox="0 0 48 48" fill="none" xmlns="http://www.w3.org/2000/svg">
<path d="M10.95 39.75C10.2 39.75 9.5625 39.4875 9.0375 38.9625C8.5125 38.4375 8.25 37.8 8.25 37.05V33.9375C8.25 33.6375 8.35 33.375 8.55 33.15C8.775 32.925 9.05 32.8125 9.375 32.8125C9.7 32.8125 9.9625 32.925 10.1625 33.15C10.3875 33.375 10.5 33.6375 10.5 33.9375V37.05C10.5 37.175 10.5375 37.2875 10.6125 37.3875C10.7125 37.4625 10.825 37.5 10.95 37.5H14.0625C14.3625 37.5 14.625 37.6125 14.85 37.8375C15.075 38.0375 15.1875 38.3 15.1875 38.625C15.1875 38.95 15.075 39.225 14.85 39.45C14.625 39.65 14.3625 39.75 14.0625 39.75H10.95ZM37.05 39.75H33.9375C33.6375 39.75 33.375 39.65 33.15 39.45C32.925 39.225 32.8125 38.95 32.8125 38.625C32.8125 38.3 32.925 38.0375 33.15 37.8375C33.375 37.6125 33.6375 37.5 33.9375 37.5H37.05C37.175 37.5 37.275 37.4625 37.35 37.3875C37.45 37.2875 37.5 37.175 37.5 37.05V33.9375C37.5 33.6375 37.6 33.375 37.8 33.15C38.025 32.925 38.3 32.8125 38.625 32.8125C38.95 32.8125 39.2125 32.925 39.4125 33.15C39.6375 33.375 39.75 33.6375 39.75 33.9375V37.05C39.75 37.8 39.4875 38.4375 38.9625 38.9625C38.4375 39.4875 37.8 39.75 37.05 39.75ZM24 33.1875C21.475 33.1875 19.15 32.5375 17.025 31.2375C14.925 29.9125 13.2625 28.075 12.0375 25.725C11.8875 25.475 11.775 25.2125 11.7 24.9375C11.65 24.6375 11.625 24.3375 11.625 24.0375C11.625 23.7375 11.65 23.4375 11.7 23.1375C11.775 22.8125 11.8875 22.525 12.0375 22.275C13.2625 19.925 14.925 18.1 17.025 16.8C19.15 15.475 21.475 14.8125 24 14.8125C26.525 14.8125 28.8375 15.475 30.9375 16.8C33.0625 18.1 34.7375 19.925 35.9625 22.275C36.1125 22.525 36.2125 22.8 36.2625 23.1C36.3375 23.4 36.375 23.7 36.375 24C36.375 24.3 36.3375 24.6 36.2625 24.9C36.2125 25.2 36.1125 25.475 35.9625 25.725C34.7375 28.075 33.0625 29.9125 30.9375 31.2375C28.8375 32.5375 26.525 33.1875 24 33.1875ZM24 28.7625C25.325 28.7625 26.45 28.3 27.375 27.375C28.3 26.45 28.7625 25.325 28.7625 24C28.7625 22.675 28.3 21.55 27.375 20.625C26.45 19.7 25.325 19.2375 24 19.2375C22.675 19.2375 21.55 19.7 20.625 20.625C19.7 21.55 19.2375 22.675 19.2375 24C19.2375 25.325 19.7 26.45 20.625 27.375C21.55 28.3 22.675 28.7625 24 28.7625ZM24 26.5125C23.3 26.5125 22.7 26.275 22.2 25.8C21.725 25.3 21.4875 24.7 21.4875 24C21.4875 23.3 21.725 22.7125 22.2 22.2375C22.7 21.7375 23.3 21.4875 24 21.4875C24.7 21.4875 25.2875 21.7375 25.7625 22.2375C26.2625 22.7125 26.5125 23.3 26.5125 24C26.5125 24.7 26.2625 25.3 25.7625 25.8C25.2875 26.275 24.7 26.5125 24 26.5125ZM39.75 10.95V14.0625C39.75 14.3625 39.6375 14.625 39.4125 14.85C39.2125 15.075 38.95 15.1875 38.625 15.1875C38.3 15.1875 38.025 15.075 37.8 14.85C37.6 14.625 37.5 14.3625 37.5 14.0625V10.95C37.5 10.825 37.45 10.725 37.35 10.65C37.275 10.55 37.175 10.5 37.05 10.5H33.9375C33.6375 10.5 33.375 10.4 33.15 10.2C32.925 9.975 32.8125 9.7 32.8125 9.375C32.8125 9.05 32.925 8.7875 33.15 8.5875C33.375 8.3625 33.6375 8.25 33.9375 8.25H37.05C37.8 8.25 38.4375 8.5125 38.9625 9.0375C39.4875 9.5625 39.75 10.2 39.75 10.95ZM10.95 8.25H14.0625C14.3625 8.25 14.625 8.3625 14.85 8.5875C15.075 8.7875 15.1875 9.05 15.1875 9.375C15.1875 9.7 15.075 9.975 14.85 10.2C14.625 10.4 14.3625 10.5 14.0625 10.5H10.95C10.825 10.5 10.7125 10.55 10.6125 10.65C10.5375 10.725 10.5 10.825 10.5 10.95V14.0625C10.5 14.3625 10.3875 14.625 10.1625 14.85C9.9625 15.075 9.7 15.1875 9.375 15.1875C9.05 15.1875 8.775 15.075 8.55 14.85C8.35 14.625 8.25 14.3625 8.25 14.0625V10.95C8.25 10.2 8.5125 9.5625 9.0375 9.0375C9.5625 8.5125 10.2 8.25 10.95 8.25Z" fill="white"/>
</svg>
