<svg width="48" height="48" viewBox="0 0 48 48" fill="none" xmlns="http://www.w3.org/2000/svg">
<path d="M33.6094 12.5608C35.3363 11.9475 37.0018 13.6132 36.3887 15.3401L29.0439 36.0061C28.4022 37.812 25.9089 37.9669 25.0488 36.2542L21.3906 28.9719L28.3213 22.0422C28.7115 21.6517 28.7117 21.0186 28.3213 20.6282C27.9308 20.238 27.2977 20.238 26.9072 20.6282L19.9766 27.5579L12.6953 23.9006C10.9827 23.0405 11.1375 20.5473 12.9434 19.9055L33.6094 12.5608ZM10.458 19.2688V19.2698C10.2651 19.5009 10.1012 19.7506 9.96582 20.0129C9.92065 20.1005 9.87855 20.1893 9.83984 20.2795L9.7334 20.553C9.89441 20.091 10.1362 19.6542 10.458 19.2688ZM11.6611 18.2913C11.4691 18.3945 11.29 18.5108 11.123 18.637C11.29 18.5108 11.4691 18.3945 11.6611 18.2913ZM38.1836 12.9729C38.2132 13.0413 38.2406 13.1107 38.2666 13.1809C38.2406 13.1107 38.2132 13.0413 38.1836 12.9729ZM37.084 11.4651C37.4024 11.744 37.6769 12.0711 37.9004 12.4319C37.8265 12.3125 37.7492 12.1955 37.6641 12.0842C37.6067 12.0093 37.5465 11.9364 37.4844 11.8655C37.3599 11.7234 37.2261 11.5896 37.084 11.4651ZM36.3945 10.9729V10.9719V10.9729ZM35.3369 10.5471V10.5461V10.5471Z" fill="white"/>
</svg>
