<svg width="21" height="15" viewBox="0 0 21 15" fill="none" xmlns="http://www.w3.org/2000/svg">
<path d="M10.4426 11.1199C11.5711 11.1199 12.526 10.7292 13.3072 9.948C14.0885 9.14939 14.4791 8.19453 14.4791 7.08341C14.4791 5.95494 14.0798 5.00008 13.2812 4.21883C12.4999 3.43758 11.5537 3.04696 10.4426 3.04696C9.31416 3.04696 8.35929 3.44626 7.57804 4.24487C6.79679 5.02612 6.40617 5.9723 6.40617 7.08341C6.40617 8.21189 6.79679 9.16675 7.57804 9.948C8.37666 10.7292 9.33152 11.1199 10.4426 11.1199ZM10.4426 9.92196C9.64402 9.92196 8.96693 9.64418 8.41138 9.08862C7.87318 8.53307 7.60409 7.86466 7.60409 7.08341C7.60409 6.2848 7.88186 5.6164 8.43742 5.07821C8.99297 4.52265 9.66138 4.24487 10.4426 4.24487C11.2412 4.24487 11.9096 4.52265 12.4478 5.07821C13.0034 5.63376 13.2812 6.30216 13.2812 7.08341C13.2812 7.88203 13.0034 8.55911 12.4478 9.11466C11.8923 9.65286 11.2239 9.92196 10.4426 9.92196ZM10.4426 14.1667C8.30721 14.1667 6.34541 13.6112 4.55721 12.5001C2.76902 11.3716 1.33672 9.88723 0.260335 8.04696C0.17353 7.89071 0.104085 7.73446 0.052002 7.57821C0.0172798 7.42196 -8.12933e-05 7.25703 -8.12933e-05 7.08341C-8.12933e-05 6.9098 0.0172798 6.74487 0.052002 6.58862C0.104085 6.43237 0.17353 6.27612 0.260335 6.11987C1.33672 4.27959 2.76902 2.8039 4.55721 1.69279C6.34541 0.564316 8.30721 7.96914e-05 10.4426 7.96914e-05C12.578 7.96914e-05 14.5398 0.564316 16.328 1.69279C18.1162 2.8039 19.5485 4.27959 20.6249 6.11987C20.7117 6.27612 20.7725 6.43237 20.8072 6.58862C20.8593 6.74487 20.8853 6.9098 20.8853 7.08341C20.8853 7.25703 20.8593 7.42196 20.8072 7.57821C20.7725 7.73446 20.7117 7.89071 20.6249 8.04696C19.5485 9.88723 18.1162 11.3716 16.328 12.5001C14.5398 13.6112 12.578 14.1667 10.4426 14.1667ZM10.4426 12.8907C12.4218 12.8907 14.2447 12.3699 15.9114 11.3282C17.578 10.2692 18.8541 8.85425 19.7395 7.08341C18.8541 5.31258 17.578 3.90633 15.9114 2.86466C14.2447 1.80564 12.4218 1.27612 10.4426 1.27612C8.46346 1.27612 6.64054 1.80564 4.97388 2.86466C3.30721 3.90633 2.03117 5.31258 1.14575 7.08341C2.03117 8.85425 3.30721 10.2692 4.97388 11.3282C6.64054 12.3699 8.46346 12.8907 10.4426 12.8907Z" fill="#262626"/>
</svg>
